<?xml version="1.0" encoding="utf-8"?><svg xmlns="http://www.w3.org/2000/svg" xmlns:xlink="http://www.w3.org/1999/xlink"><symbol viewBox="0 0 64 64" id="close"><path d="M28.941 31.786L.613 60.114a2.014 2.014 0 1 0 2.848 2.849l28.541-28.541 28.541 28.541c.394.394.909.59 1.424.59a2.014 2.014 0 0 0 1.424-3.439L35.064 31.786 63.41 3.438A2.014 2.014 0 1 0 60.562.589L32.003 29.15 3.441.59A2.015 2.015 0 0 0 .593 3.439l28.348 28.347z"/></symbol><symbol viewBox="0 0 125 125" id="eqt1"><circle cx="52.8" cy="73.5" r="50.5" fill="#ffeb7b"/><path d="M52.7 125c-13.2 0-26.3-5-36.3-15-.6-.6-.6-1.6 0-2.2.6-.6 1.6-.6 2.2 0 18.9 18.9 49.5 18.9 68.4 0 9-9.1 14-21.3 14-34.2s-5-25.1-14.2-34.2c-.6-.6-.6-1.6 0-2.2.6-.6 1.6-.6 2.2 0 9.7 9.7 15.1 22.6 15.1 36.3 0 13.7-5.3 26.6-15.1 36.3C79 120 65.9 125 52.7 125z"/><path d="M73.5 98.5H6.4c-3.6 0-6.5-2.9-6.5-6.5V18c0-1.1.1-4.4 24-9.2.4-.1.8-.5.8-.9V5.6c0-1.9 1.6-3.5 3.5-3.5h22.6c1.9 0 3.5 1.6 3.5 3.5v2.3c0 .4.4.8.7.9h.2l21.9 7h.1c1.6.6 2.8 2.4 2.8 4.1v72c0 3.7-2.9 6.6-6.5 6.6zM2.9 18.3V92c0 1.9 1.6 3.5 3.5 3.5h67.2c1.9 0 3.5-1.6 3.5-3.5V20c0-.5-.4-1.1-.9-1.3l-21.8-7c-1.7-.4-3.1-2.1-3.1-3.8V5.6c0-.3-.2-.5-.5-.5H28.1c-.3 0-.5.2-.5.5v2.3c0 1.8-1.4 3.5-3.2 3.9-9.3 1.9-20 4.8-21.5 6.5zM78.5 105H1.4c-.8 0-1.5-.7-1.5-1.5s.7-1.5 1.5-1.5h77.2c.8 0 1.5.7 1.5 1.5s-.7 1.5-1.6 1.5z"/><path d="M46.8 18.1H32.6c-.8 0-1.5-.7-1.5-1.5s.7-1.5 1.5-1.5h14.2c.8 0 1.5.7 1.5 1.5s-.7 1.5-1.5 1.5zm24.1 80.4H9.8v-68c0-3.6 2.9-6.5 6.5-6.5h48.1c3.6 0 6.5 2.9 6.5 6.5v68zm-58.1-3h55.1v-65c0-1.9-1.6-3.5-3.5-3.5H16.3c-1.9 0-3.5 1.6-3.5 3.5v65z"/><path d="M40.3 98.5c-.8 0-1.5-.7-1.5-1.5V25.5c0-.8.7-1.5 1.5-1.5s1.5.7 1.5 1.5V97c0 .8-.7 1.5-1.5 1.5zm-9-38.1c-.4 0-.8-.1-1.1-.4l-14-14c-.6-.6-.6-1.5 0-2.1s1.5-.6 2.1 0l14 14c.6.6.6 1.5 0 2.1-.2.3-.6.4-1 .4zm30 16c-.4 0-.8-.1-1.1-.4l-14-14c-.6-.6-.6-1.5 0-2.1s1.5-.6 2.1 0l14 14c.6.6.6 1.5 0 2.1-.2.3-.6.4-1 .4zm-1-16c-.4 0-.8-.1-1.1-.4l-14-14c-.6-.6-.6-1.5 0-2.1s1.5-.6 2.1 0l14 14c.6.6.6 1.5 0 2.1-.2.3-.6.4-1 .4zm-29 15c-.4 0-.8-.1-1.1-.4l-14-14c-.6-.6-.6-1.5 0-2.1s1.5-.6 2.1 0l14 14c.6.6.6 1.5 0 2.1-.2.3-.6.4-1 .4z"/></symbol><symbol viewBox="0 0 125 125" id="eqt2"><circle cx="67.8" cy="73.5" r="50.5" fill="#ffeb7b"/><path d="M67.7 125c-13.2 0-26.3-5-36.3-15-.6-.6-.6-1.6 0-2.2.6-.6 1.6-.6 2.2 0 18.9 18.9 49.5 18.9 68.4 0 9-9.1 14-21.3 14-34.2s-5-25.1-14.2-34.2c-.6-.6-.6-1.6 0-2.2.6-.6 1.6-.6 2.2 0 9.7 9.7 15.1 22.6 15.1 36.3 0 13.7-5.3 26.6-15.1 36.3C94 120 80.8 125 67.7 125z"/><path d="M36.8 104.5H7.1c-3.9 0-7.1-3.2-7.1-7.1V9.9C0 6 3.2 2.8 7.1 2.8h29.7c3.9 0 7.1 3.2 7.1 7.1v87.5c0 3.9-3.2 7.1-7.1 7.1zM7.1 5.8C4.9 5.8 3 7.7 3 9.9v87.5c0 2.3 1.8 4.1 4.1 4.1h29.7c2.3 0 4.1-1.8 4.1-4.1V9.9c0-2.3-1.8-4.1-4.1-4.1H7.1z"/><path d="M11.5 97.8c-.8 0-1.5-.7-1.5-1.5V11.5c0-.8.7-1.5 1.5-1.5s1.5.7 1.5 1.5v84.8c0 .9-.6 1.5-1.5 1.5zm10 0c-.8 0-1.5-.7-1.5-1.5V11.5c0-.8.7-1.5 1.5-1.5s1.5.7 1.5 1.5v84.8c0 .9-.6 1.5-1.5 1.5zm10 0c-.8 0-1.5-.7-1.5-1.5V11.5c0-.8.7-1.5 1.5-1.5s1.5.7 1.5 1.5v84.8c0 .9-.6 1.5-1.5 1.5zm44.4-64.1c-.8 0-1.5-.7-1.5-1.5v-1.3c0-7 0-16.7-3.3-20-.8-.8-1.7-1.2-2.9-1.2-3.4 0-6.8 5.2-9.8 9.9-3.1 4.8-5.8 8.9-9.2 8.9-4.9 0-8.4-3.7-8.4-7.1 0-.8.7-1.5 1.5-1.5s1.5.7 1.5 1.5c0 1.4 1.9 4.1 5.4 4.1 1.8 0 4.5-4.2 6.6-7.5 3.6-5.5 7.3-11.2 12.3-11.2 2 0 3.7.7 5 2 4.2 4.2 4.2 13.7 4.1 22.1v1.3c.2.8-.5 1.5-1.3 1.5z"/><path d="M78.8 48.3c-.8 0-1.5-.7-1.5-1.5V35.7c0-1.1-.9-2-2-2s-2 .9-2 2v11.1c0 .8-.7 1.5-1.5 1.5s-1.5-.7-1.5-1.5V35.7c0-2.8 2.2-5 5-5s5 2.2 5 5v11.1c0 .8-.6 1.5-1.5 1.5z"/><path d="M87.9 83.2c-.4 0-.9-.2-1.2-.6-.5-.6-.4-1.6.3-2.1 4.4-3.5 7-8.7 7-14.3 0-10-8.1-18.1-18.1-18.1s-18.1 8.1-18.1 18.1c0 5.5 2.5 10.7 6.8 14.1.6.5.7 1.5.2 2.1-.5.6-1.5.7-2.1.2-5-4-7.9-10-7.9-16.5 0-11.6 9.5-21.1 21.1-21.1S97 54.6 97 66.3c0 6.5-3 12.6-8.1 16.6-.3.2-.7.3-1 .3z"/><path d="M92.8 102.3H59.5c-3 0-5.5-2.5-5.5-5.5V86.1c0-3 2.5-5.5 5.5-5.5H64c.8 0 1.5.7 1.5 1.5s-.7 1.5-1.5 1.5h-4.5c-1.4 0-2.5 1.1-2.5 2.5v10.6c0 1.4 1.1 2.5 2.5 2.5h33.4c1.4 0 2.5-1.1 2.5-2.5V86.1c0-1.4-1.1-2.5-2.5-2.5H88c-.8 0-1.5-.7-1.5-1.5s.7-1.5 1.5-1.5h4.8c3 0 5.5 2.5 5.5 5.5v10.6c0 3.1-2.4 5.6-5.5 5.6z"/><path d="M67.9 107.4h-4.1c-1.7 0-3.2-1.4-3.2-3.2v-3.5c0-.8.7-1.5 1.5-1.5s1.5.7 1.5 1.5v3.5c0 .1.1.2.2.2h4.1c.1 0 .2-.1.2-.2v-3.5c0-.8.7-1.5 1.5-1.5s1.5.7 1.5 1.5v3.5c0 1.8-1.4 3.2-3.2 3.2zm21.1 0h-4c-1.7 0-3.2-1.4-3.2-3.2v-3.5c0-.8.7-1.5 1.5-1.5s1.5.7 1.5 1.5v3.5c0 .1.1.2.2.2h4c.1 0 .2-.1.2-.2v-3.5c0-.8.7-1.5 1.5-1.5s1.5.7 1.5 1.5v3.5c0 1.8-1.4 3.2-3.2 3.2zM75.5 80c-7.6 0-13.7-6.1-13.7-13.7s6.1-13.7 13.7-13.7 13.7 6.1 13.7 13.7S83.1 80 75.5 80zm0-24.4c-5.9 0-10.7 4.8-10.7 10.7 0 5.9 4.8 10.7 10.7 10.7 5.9 0 10.7-4.8 10.7-10.7 0-5.9-4.8-10.7-10.7-10.7z"/><path d="M86.4 73.1H64.5c-.8 0-1.5-.7-1.5-1.5s.7-1.5 1.5-1.5h21.9c.8 0 1.5.7 1.5 1.5s-.7 1.5-1.5 1.5z"/><path d="M74.9 73.1c-.2 0-.4 0-.6-.1-.8-.3-1.1-1.2-.8-2l4.7-11.2c.3-.8 1.2-1.1 2-.8.8.3 1.1 1.2.8 2l-4.7 11.1c-.2.6-.8 1-1.4 1z"/></symbol><symbol viewBox="0 0 125 125" id="eqt3"><circle cx="60.8" cy="73.5" r="50.5" fill="#ffeb7b"/><path d="M60.7 125c-13.2 0-26.3-5-36.3-15-.6-.6-.6-1.6 0-2.2.6-.6 1.6-.6 2.2 0 18.9 18.9 49.5 18.9 68.4 0 9-9.1 14-21.3 14-34.2s-5-25.1-14.2-34.2c-.6-.6-.6-1.6 0-2.2.6-.6 1.6-.6 2.2 0 9.7 9.7 15.1 22.6 15.1 36.3 0 13.7-5.3 26.6-15.1 36.3C87 120 73.8 125 60.7 125z"/><path d="M43.4 107.8c-6.9 0-18.1-8.5-26.3-16.5S0 72.2 0 65.1V19.6C0 15.9 2.9 12 8.2 12h1.5c5.8.1 21.2.4 32.9-7.9.5-.3 1.1-.4 1.7 0 14.2 8.9 28.3 8.2 33.7 8h1.5c4.1 0 7.5 3.5 7.5 7.7v45.5c-.1 12.2-31 42.5-43.6 42.5zM8.2 15C4.4 15 3 17.8 3 19.6v45.5c0 10.8 29.5 39.7 40.4 39.7s40.4-28.9 40.4-39.7V19.6c0-2.5-2.1-4.7-4.5-4.7H78c-5 .2-19.8.9-34.6-7.9-12.4 8.3-28 8-33.9 7.9-.5.1-.9.1-1.3.1z"/><path d="M43.4 94.4c-9.5 0-32.9-23-32.9-32.3V34.5c0-.6.5-1.1 1.1-1.1s1.1.5 1.1 1.1V62c0 8.1 22.3 30 30.6 30s30.6-21.9 30.6-30V27.6c0-1.9-1.6-3.5-3.4-3.5h-1c-3.8.2-15 .7-26.2-6-4.9 3.3-11.1 5.2-18.4 5.8-.6 0-1.2-.4-1.2-1-.1-.6.4-1.2 1-1.2 7.2-.6 13.3-2.5 17.9-5.8.4-.3.9-.3 1.3 0 10.7 6.7 21.5 6.2 25.5 6.1h1.1c3.1 0 5.7 2.7 5.7 5.8V62c.1 9.4-23.2 32.4-32.8 32.4z"/><path d="M50.8 75.1h-15c-4.2 0-7.6-3.4-7.6-7.6V57.2c0-4.2 3.4-7.6 7.6-7.6h15c4.2 0 7.6 3.4 7.6 7.6v10.4c0 4.1-3.4 7.5-7.6 7.5zm-15-23.3c-2.9 0-5.3 2.4-5.3 5.3v10.4c0 2.9 2.4 5.3 5.3 5.3h15c2.9 0 5.3-2.4 5.3-5.3V57.2c0-2.9-2.4-5.3-5.3-5.3h-15z"/><path d="M53.3 51.8c-.6 0-1.1-.5-1.1-1.1V38.5c0-4.9-4-8.8-8.8-8.8s-8.8 4-8.8 8.8c0 .6-.5 1.1-1.1 1.1s-1.1-.5-1.1-1.1c0-6.1 5-11.1 11.1-11.1s11.1 5 11.1 11.1v12.2c-.2.6-.7 1.1-1.3 1.1zM43.9 64c-2.7 0-4.8-2.2-4.8-4.8s2.2-4.8 4.8-4.8 4.8 2.2 4.8 4.8-2.2 4.8-4.8 4.8zm0-7.4c-1.4 0-2.6 1.2-2.6 2.6s1.2 2.6 2.6 2.6 2.6-1.2 2.6-2.6-1.2-2.6-2.6-2.6z"/><path d="M43.9 68.6c-.6 0-1.1-.5-1.1-1.1v-4.6c0-.6.5-1.1 1.1-1.1s1.1.5 1.1 1.1v4.6c0 .6-.5 1.1-1.1 1.1z"/></symbol><symbol viewBox="0 0 125 125" id="eqt4"><circle cx="70.4" cy="73.5" r="50.5" fill="#ffeb7b"/><path d="M70.3 125c-13.2 0-26.3-5-36.3-15-.6-.6-.6-1.6 0-2.2.6-.6 1.6-.6 2.2 0 18.9 18.9 49.5 18.9 68.4 0 9.1-9.1 14.2-21.3 14.2-34.2s-5-25.1-14.2-34.2c-.6-.6-.6-1.6 0-2.2.6-.6 1.6-.6 2.2 0 9.7 9.7 15.1 22.6 15.1 36.3 0 13.7-5.3 26.6-15.1 36.3C96.6 120 83.4 125 70.3 125zM6 99.5H5c-2.7 0-5-2.2-5-5v-22c0-2.7 2.2-5 5-5h2v3H5c-1.1 0-2 .9-2 2v22c0 1.1.9 2 2 2h1v3z"/><path d="M17 96.5h65.4v3H17zm77.8 3h-2.5v-3h2.5c1.1 0 2-.9 2-2v-22c0-1.1-.9-2-2-2h-2.5v-3h2.5c2.7 0 5 2.2 5 5v22c0 2.8-2.3 5-5 5zM16.9 67.6h65.7v3H16.9z"/><path d="M13.9 104.9h-4c-2.7 0-4.9-2.2-4.9-4.9V67.9C5 65.2 7.2 63 9.9 63h4c2.7 0 4.9 2.2 4.9 4.9v32.2c0 2.6-2.2 4.8-4.9 4.8zM9.9 66c-1 0-1.9.8-1.9 1.9v32.2c0 1 .8 1.9 1.9 1.9h4c1 0 1.9-.8 1.9-1.9V67.9c0-1-.8-1.9-1.9-1.9h-4zm79.5 38.9h-4c-2.7 0-4.9-2.2-4.9-4.9V67.9c0-2.7 2.2-4.9 4.9-4.9h4c2.7 0 4.9 2.2 4.9 4.9v32.2c0 2.6-2.2 4.8-4.9 4.8zm-4-38.9c-1 0-1.9.8-1.9 1.9v32.2c0 1 .8 1.9 1.9 1.9h4c1 0 1.9-.8 1.9-1.9V67.9c0-1-.8-1.9-1.9-1.9h-4zm-7.8 3.1h-3v-5.9c0-1-.8-1.9-1.9-1.9H25.5c-1 0-1.9.8-1.9 1.9v5.9h-3v-5.9c0-2.7 2.2-4.9 4.9-4.9h47.3c2.7 0 4.9 2.2 4.9 4.9v5.9z"/><path d="M72.3 59.8h-3v-2.7c0-.9-.7-1.6-1.6-1.6H31.3c-.9 0-1.6.7-1.6 1.6v2.7h-3v-2.7c0-2.5 2.1-4.6 4.6-4.6h36.4c2.5 0 4.6 2.1 4.6 4.6v2.7z"/><path d="M60.4 54h-3v-9.2c0-1.2-.9-2.1-2.1-2.1H43.9c-1.2 0-2.1.9-2.1 2.1V54h-3v-9.2c0-2.8 2.3-5.1 5.1-5.1h11.4c2.8 0 5.1 2.3 5.1 5.1V54z"/><path d="M51.6 25.1h3v16.1h-3zm3-11.9h-3V6.9c0-.4-.3-.8-.8-.8h-3.5c-.4 0-.8.3-.8.8V13h-3V6.9c0-2.1 1.7-3.8 3.8-3.8h3.5c2.1 0 3.8 1.7 3.8 3.8v6.3zm-11 11.9h3v16.1h-3z"/><path d="M58.9 34c-1.8 0-2.1-1.8-2.3-2.9-.4-2.3-1-5.2-7.5-5.2-7.2 0-7.8 3.8-8.1 5.8-.1.7-.3 2.3-1.8 2.3h-11c-5.2 0-9.5-4.3-9.5-9.5V14.3c0-5.2 4.3-9.5 9.5-9.5h10.9v3H28.2c-3.6 0-6.5 2.9-6.5 6.5v10.2c0 3.6 2.9 6.5 6.5 6.5h9.9c.4-2.3 1.6-8.1 11-8.1 8.9 0 9.9 5.2 10.4 7.6.1.3.1.8.2.9-.1-.2-.4-.5-.8-.5V34z"/><path d="M71.4 34H58.9v-3h12.5c3.6 0 6.5-2.9 6.5-6.5V14.3c0-3.6-2.9-6.5-6.5-6.5H58.9v-3h12.5c5.2 0 9.5 4.3 9.5 9.5v10.2c0 5.2-4.3 9.5-9.5 9.5z"/><path d="M49.6 15.1c-8.3 0-10.5-5.3-11.3-7.3-.1-.2-.2-.4-.2-.5.1.2.5.6 1.1.6v-3c1.2 0 1.6 1 1.9 1.8.8 1.9 2.2 5.5 8.5 5.5 6.2 0 7.1-3.5 7.6-5.3.2-.7.5-2 1.8-2v3c.7 0 1.1-.4 1.2-.8 0 .1-.1.3-.1.4-.5 1.9-2 7.6-10.5 7.6z"/></symbol><symbol viewBox="0 0 125 125" id="eqt5"><circle cx="50.8" cy="73.6" r="50.5" fill="#ffeb7b"/><path d="M54.3 6c9.4 0 17 7.6 17 17v45.6c0 9.4-7.6 17-17 17h-34c-9.4 0-17-7.6-17-17V23c0-9.4 7.6-17 17-17h34m0-3h-34c-11 0-20 9-20 20v45.6c0 11 9 20 20 20h34c11 0 20-9 20-20V23c0-11-9-20-20-20z"/><path d="M37.6 24c7 0 12.8 5.7 12.8 12.8s-5.7 12.8-12.8 12.8-12.8-5.7-12.8-12.8S30.6 24 37.6 24m0-3c-8.7 0-15.8 7.1-15.8 15.8s7.1 15.8 15.8 15.8 15.8-7.1 15.8-15.8S46.3 21 37.6 21z"/><path d="M36 38.3c-.4 0-.9-.2-1.1-.5-.5-.6-.5-1.6.2-2.1l7.3-6.1c.6-.5 1.6-.5 2.1.2.5.6.5 1.6-.2 2.1l-7.3 6c-.3.2-.7.4-1 .4zm-25.5-8.7H1.9c-.8 0-1.5-.7-1.5-1.5s.7-1.5 1.5-1.5h8.6c.8 0 1.5.7 1.5 1.5s-.7 1.5-1.5 1.5zm0 8H1.9c-.8 0-1.5-.7-1.5-1.5s.7-1.5 1.5-1.5h8.6c.8 0 1.5.7 1.5 1.5s-.7 1.5-1.5 1.5zm0 8H1.9c-.8 0-1.5-.7-1.5-1.5s.7-1.5 1.5-1.5h8.6c.8 0 1.5.7 1.5 1.5s-.7 1.5-1.5 1.5zm62-16h-8.6c-.8 0-1.5-.7-1.5-1.5s.7-1.5 1.5-1.5h8.6c.8 0 1.5.7 1.5 1.5s-.7 1.5-1.5 1.5zm0 8h-8.6c-.8 0-1.5-.7-1.5-1.5s.7-1.5 1.5-1.5h8.6c.8 0 1.5.7 1.5 1.5s-.7 1.5-1.5 1.5zm0 8h-8.6c-.8 0-1.5-.7-1.5-1.5s.7-1.5 1.5-1.5h8.6c.8 0 1.5.7 1.5 1.5s-.7 1.5-1.5 1.5zM51.8 77.4H24.3c-.8 0-1.5-.7-1.5-1.5s.7-1.5 1.5-1.5h27.5c.8 0 1.5.7 1.5 1.5s-.7 1.5-1.5 1.5zm10.3-7c-3.4 0-5.4-2.5-7.2-4.7-1.4-1.8-2.7-3.3-4.4-3.3-2 0-3.7 1.8-5.5 3.7-2 2.1-4.1 4.3-7 4.3-3.1 0-5.3-2.4-7.3-4.5-1.7-1.8-3.4-3.5-5.2-3.5-1.8 0-3.3 1.6-5 3.4-2.1 2.2-4.4 4.6-7.9 4.6-3.4 0-5.7-2.6-7.6-4.7-1.1-1.2-2.3-2.6-3.1-2.6-.8 0-1.5-.7-1.5-1.5s.7-1.5 1.5-1.5c2.1 0 3.7 1.7 5.4 3.6 1.6 1.8 3.4 3.7 5.4 3.7 2.2 0 3.9-1.8 5.7-3.7 2-2.1 4.1-4.3 7.2-4.3s5.3 2.4 7.3 4.5c1.7 1.8 3.4 3.5 5.2 3.5 1.6 0 3.2-1.6 4.8-3.4 2-2.2 4.4-4.6 7.7-4.6 3.2 0 5.1 2.4 6.8 4.5 1.5 1.9 2.9 3.5 4.8 3.5 2.2 0 4-2.3 5.5-4.3 1.5-1.9 2.9-3.7 4.8-3.7.8 0 1.5.7 1.5 1.5s-.7 1.5-1.5 1.5c-.5 0-1.7 1.6-2.5 2.6-1.9 2.4-4.2 5.4-7.9 5.4zm-35.7 33.9h-5.1c-1.9 0-3.5-1.6-3.5-3.5v-3.3c0-.1-.1-.3-.1-.4l-3.6-3.6c-.7-.7-1-1.5-1-2.5v-5h3v5c0 .1.1.3.1.4l3.6 3.6c.7.7 1 1.5 1 2.5v3.3c0 .3.2.5.5.5h5.1c.3 0 .5-.2.5-.5v-3.4c0-.9.4-1.8 1-2.5l3.5-3.5c.1-.1.1-.2.1-.4v-4h3v4c0 .9-.4 1.8-1 2.5L30.1 97c-.1.1-.1.2-.1.4v3.4c-.1 1.9-1.6 3.5-3.6 3.5zm26.6 0h-5.1c-1.9 0-3.5-1.6-3.5-3.5v-3.4c0-.1-.1-.3-.1-.4l-3.5-3.5c-.7-.7-1-1.5-1-2.5v-4h3v4c0 .1.1.3.1.4l3.5 3.5c.7.7 1 1.5 1 2.5v3.4c0 .3.2.5.5.5H53c.3 0 .5-.2.5-.5v-3.3c0-.9.4-1.8 1-2.5l3.6-3.6c.1-.1.1-.2.1-.4v-5h3v5c0 .9-.4 1.8-1 2.5l-3.6 3.6c-.1.1-.1.2-.1.4v3.3c0 1.9-1.6 3.5-3.5 3.5z"/><path d="M50.7 125.1c-13.2 0-26.3-5-36.3-15-.6-.6-.6-1.6 0-2.2.6-.6 1.6-.6 2.2 0 18.9 18.9 49.5 18.9 68.4 0 9-9.1 14-21.2 14-34.1s-5-25.1-14.2-34.2c-.6-.6-.6-1.6 0-2.2.6-.6 1.6-.6 2.2 0 9.7 9.7 15.1 22.6 15.1 36.3 0 13.7-5.3 26.6-15.1 36.3-10 10.1-23.1 15.1-36.3 15.1z"/></symbol><symbol viewBox="0 0 125 125" id="eqt6"><circle cx="60.2" cy="73.5" r="50.5" fill="#ffeb7b"/><path d="M60.1 125c-13.2 0-26.3-5-36.3-15-.6-.6-.6-1.6 0-2.2.6-.6 1.6-.6 2.2 0 18.9 18.9 49.5 18.9 68.4 0 9.1-9.1 14.2-21.3 14.2-34.2s-5-25.1-14.2-34.2c-.6-.6-.6-1.6 0-2.2.6-.6 1.6-.6 2.2 0 9.7 9.7 15.1 22.6 15.1 36.3 0 13.7-5.3 26.6-15.1 36.3C86.5 120 73.3 125 60.1 125z"/><path d="M80.1 6.2c1.1 0 2 .9 2 2V84c0 1.1-.9 2-2 2H11c-1.1 0-2-.9-2-2V8.2c0-1.1.9-2 2-2h69.1m0-3H11c-2.8 0-5 2.3-5 5V84c0 2.8 2.3 5 5 5h69.2c2.8 0 5-2.3 5-5V8.2c-.1-2.7-2.3-5-5.1-5z"/><path d="M80.1 89.1h-3V14.6c0-1.6-1.3-2.9-2.9-2.9H16.9c-1.6 0-2.9 1.3-2.9 2.9V89h-3V14.6c0-3.3 2.7-5.9 5.9-5.9h57.3c3.3 0 5.9 2.7 5.9 5.9v74.5z"/><path d="M44.2 10.2h2.6V89h-2.6z"/><path d="M12.5 48.3h67v2.6h-67zM19.7 28c-.4 0-.8-.1-1.1-.4-.6-.6-.6-1.5 0-2.1l9.6-9.6c.6-.6 1.5-.6 2.1 0 .6.6.6 1.5 0 2.1l-9.6 9.6c-.2.2-.6.4-1 .4zm.2 9.4c-.4 0-.8-.1-1.1-.4-.6-.6-.6-1.5 0-2.1l9.4-9.4c.6-.6 1.5-.6 2.1 0 .6.6.6 1.5 0 2.1L21 36.9c-.3.3-.7.5-1.1.5zm13.5-12.9c-.4 0-.8-.1-1.1-.4-.6-.6-.6-1.5 0-2.1l5.1-5.1c.6-.6 1.5-.6 2.1 0 .6.6.6 1.5 0 2.1l-5 5c-.3.3-.7.5-1.1.5zm28.5 58.9c-.4 0-.8-.1-1.1-.4-.6-.6-.6-1.5 0-2.1l9.6-9.6c.6-.6 1.5-.6 2.1 0s.6 1.5 0 2.1L62.9 83c-.3.2-.6.4-1 .4zm0-9.6c-.4 0-.8-.1-1.1-.4-.6-.6-.6-1.5 0-2.1l9.4-9.4c.6-.6 1.5-.6 2.1 0 .6.6.6 1.5 0 2.1l-9.4 9.4c-.3.2-.6.4-1 .4zm-9.2 8.6c-.4 0-.8-.1-1.1-.4-.6-.6-.6-1.5 0-2.1l5.1-5.1c.6-.6 1.5-.6 2.1 0s.6 1.5 0 2.1L53.7 82c-.2.2-.6.4-1 .4zM84.5 98h-79c-3 0-5.5-2.5-5.5-5.5V85c0-.8.7-1.5 1.5-1.5S3 84.1 3 85v7.5C3 93.9 4.1 95 5.5 95h79c1.4 0 2.5-1.1 2.5-2.5V85c0-.8.7-1.5 1.5-1.5s1.5.6 1.5 1.5v7.5c0 3-2.5 5.5-5.5 5.5z"/><path d="M16.9 105.2H11c-1.9 0-3.5-1.6-3.5-3.5v-5.3c0-.8.7-1.4 1.5-1.4s1.5.7 1.5 1.5v5.3c0 .3.2.5.5.5h5.8c.3 0 .5-.2.5-.5v-5.3c0-.8.7-1.5 1.5-1.5s1.5.7 1.5 1.5v5.3c.1 1.9-1.5 3.4-3.4 3.4zm62 0H73c-1.9 0-3.5-1.6-3.5-3.5v-5.3c0-.8.7-1.5 1.5-1.5s1.5.7 1.5 1.5v5.3c0 .3.2.5.5.5h5.8c.3 0 .5-.2.5-.5v-5.3c0-.8.7-1.5 1.5-1.5s1.5.7 1.5 1.5v5.3c.1 2-1.5 3.5-3.4 3.5z"/></symbol><symbol viewBox="0 0 125 125" id="eqt7"><circle cx="66.6" cy="73.5" r="50.5" fill="#ffeb7b"/><path d="M66.5 125c-13.2 0-26.3-5-36.3-15-.6-.6-.6-1.6 0-2.2.6-.6 1.6-.6 2.2 0 18.9 18.9 49.5 18.9 68.4 0 9.1-9.1 14.2-21.3 14.2-34.2s-5-25.1-14.2-34.2c-.6-.6-.6-1.6 0-2.2.6-.6 1.6-.6 2.2 0 9.7 9.7 15.1 22.6 15.1 36.3 0 13.7-5.3 26.6-15.1 36.3C92.8 120 79.6 125 66.5 125z"/><path d="M106.9 59.5H-.2l33.3-19.3h41.7l32.1 19.3zm-96-3h85.2L73.9 43.2h-40l-23 13.3z"/><path d="M72 41.7h-3v-4.5c0-.3-.2-.5-.5-.5H38.8c-.3 0-.5.2-.5.5v4.5h-3v-4.5c0-1.9 1.6-3.5 3.5-3.5h29.7c1.9 0 3.5 1.6 3.5 3.5v4.5z"/><path d="M65 36.7H41.3v-9.8H65v9.8zm-20.7-3H62v-3.8H44.3v3.8z"/><path d="M65.3 29.8H41.2c-1.9 0-3.5-1.6-3.5-3.5v-3.2c0-1.9 1.6-3.5 3.5-3.5h24.2c1.9 0 3.5 1.6 3.5 3.5v3.2c-.1 2-1.6 3.5-3.6 3.5zm-24.1-7.1c-.3 0-.5.2-.5.5v3.2c0 .3.2.5.5.5h24.2c.3 0 .5-.2.5-.5v-3.2c0-.3-.2-.5-.5-.5H41.2z"/><path d="M60.2 21.2h-3V16c0-.3-.2-.5-.5-.5h-6.3c-.3 0-.5.2-.5.5v5.2h-3V16c0-1.9 1.6-3.5 3.5-3.5h6.3c1.9 0 3.5 1.6 3.5 3.5v5.2zm-7 69.1c-.8 0-1.5-.7-1.5-1.5V58c0-.8.7-1.5 1.5-1.5s1.5.7 1.5 1.5v30.8c0 .9-.7 1.5-1.5 1.5z"/><path d="M57.1 91.2h-.4c-.8 0-1.5-.7-1.4-1.6 0-.8.7-1.5 1.6-1.4 1.1 0 1.9-.2 2.3-.6.1-.1.4-.4.4-1.1 0-.6 0-2-6.4-2-6.2 0-9.4-1.7-9.4-5.2 0-5.1 5.4-5.7 9.5-5.7 6.3 0 6.3-2.4 6.3-3.2 0-2.3-4-2.7-6.3-2.7-3.5 0-5.6-.6-6.9-1.8-1.6-1.6-1.6-4-1.6-7.3v-.7c0-.8.7-1.5 1.5-1.5s1.5.7 1.5 1.5v.7c0 2.6 0 4.4.8 5.2.6.6 2.2 1 4.7 1 8.1 0 9.3 3.6 9.3 5.7 0 2.3-1.2 6.2-9.3 6.2-6.5 0-6.5 1.9-6.5 2.7 0 1.9 4 2.2 6.4 2.2 3.1 0 9.4 0 9.4 5 0 1.7-.7 2.7-1.3 3.3-1.1.8-2.5 1.3-4.2 1.3zm-3.9-75.7c-.8 0-1.5-.7-1.5-1.5V2c0-.8.7-1.5 1.5-1.5s1.5.7 1.5 1.5v12c0 .8-.7 1.5-1.5 1.5z"/><path d="M67.4 59.7l4.3 22.2c-.2 10.1-8.4 18.2-18.5 18.2S34.9 92 34.7 81.9l4.6-22.2h28.1m2.5-3.1h-33l-5.2 25c0 11.9 9.7 21.6 21.6 21.6 11.9 0 21.6-9.7 21.6-21.6l-5-25z"/></symbol><symbol viewBox="0 0 125 125" id="eqt8"><circle cx="61.5" cy="73.5" r="50.5" fill="#ffeb7b"/><path d="M61.4 125c-13.2 0-26.3-5-36.3-15-.6-.6-.6-1.6 0-2.2.6-.6 1.6-.6 2.2 0 18.9 18.9 49.5 18.9 68.4 0 9.1-9.1 14.2-21.3 14.2-34.2s-5-25.1-14.2-34.2c-.6-.6-.6-1.6 0-2.2.6-.6 1.6-.6 2.2 0 9.7 9.7 15.1 22.6 15.1 36.3 0 13.7-5.3 26.6-15.1 36.3C87.8 120 74.6 125 61.4 125z"/><path d="M69.7 79.2H37.6c-8.4 0-15.2-8.3-15.2-15.2V26.3h61.1v37.2c.1 8.9-8.4 15.7-13.8 15.7zM25.4 29.3V64c0 4.8 5.2 12.2 12.2 12.2h32.1c3.7 0 10.9-5.4 10.9-12.7V29.3H25.4z"/><path d="M58.9 89.1h-10c-2.5 0-4.5-2-4.5-4.5v-8.4h19v8.4c0 2.5-2 4.5-4.5 4.5zm-11.5-9.9v5.4c0 .8.7 1.5 1.5 1.5h10c.8 0 1.5-.7 1.5-1.5v-5.4h-13zM23.9 39.3H82v3H23.9zM49.5 53h-3.6v3.7h3.6V53zm6.3 0h-3.6v3.7h3.6V53zm6.1 0h-3.6v3.7h3.6V53zM41.4 29.3h-11V6.5c0-3 2.5-5.5 5.5-5.5h.1c3 0 5.5 2.5 5.5 5.5v22.8zm-8-3h5.1V6.5C38.5 5.1 37.4 4 36 4h-.1c-1.4 0-2.5 1.1-2.5 2.5v19.8zm41 1.5h-3V6.5c0-1.4-1.1-2.5-2.5-2.5s-2.6 1.1-2.6 2.5v21.3h-3V6.5c0-3 2.5-5.5 5.5-5.5 3.1 0 5.6 2.5 5.6 5.5v21.3z"/><path d="M37.5 105.5c-12.9 0-16.9-12.4-16.9-16.9 0-3.3-2.9-4.4-4.4-4.4H1.5c-.8 0-1.5-.7-1.5-1.5s.7-1.5 1.5-1.5h14.8c3.1 0 7.4 2.3 7.4 7.4 0 3.7 3.3 13.9 13.9 13.9 11.7 0 14.9-3.2 14.9-14.9 0-.8.7-1.5 1.5-1.5s1.5.7 1.5 1.5c-.1 13.4-4.6 17.9-18 17.9z"/></symbol><symbol viewBox="0 0 434 511" id="lp-aegospotami-arrow-left"><path d="M0 259l162.5-.1L208.9 380 0 259zm166.7-.1l47 122.9 140-123-187 .1zm192.9 0L216.7 384.5l216.9 125.7-71.8-251.3h-2.2zM8.4 246.3L433.5 0l-32.8 114.6L8.4 246.3zm-2.3 4.9l328.8.1L212.2 182 6.1 251.2zm211-70.9l125.7 71h18.8l37.8-132.2-182.3 61.2z"/></symbol><symbol viewBox="125 -125.2 510.2 510.2" id="lp-aegospotami-arrow-right"><path d="M599.9 126l-162.5.1L391 5l208.9 121zm-166.7.1l-47-122.9-140 123 187-.1zm-192.9 0L383.2.5 166.3-125.2l71.8 251.3h2.2zm351.2 12.6L166.4 385l32.8-114.6 392.3-131.7zm2.3-4.9l-328.8-.1L387.7 203l206.1-69.2zm-211 70.9l-125.7-71h-18.8l-37.8 132.2 182.3-61.2z"/></symbol><symbol viewBox="0 0 480.3 480.3" id="lp-albina-navi-filter"><path d="M254.15 234.1V13.5c0-7.5-6-13.5-13.5-13.5s-13.5 6-13.5 13.5v220.6c-31.3 6.3-55 34-55 67.2s23.7 60.9 55 67.2v98.2c0 7.5 6 13.5 13.5 13.5s13.5-6 13.5-13.5v-98.2c31.3-6.3 55-34 55-67.2 0-33.1-23.6-60.9-55-67.2zm-13.5 108.7c-22.9 0-41.5-18.6-41.5-41.5s18.6-41.5 41.5-41.5 41.5 18.6 41.5 41.5-18.6 41.5-41.5 41.5zM88.85 120.9V13.5c0-7.5-6-13.5-13.5-13.5s-13.5 6-13.5 13.5v107.4c-31.3 6.3-55 34-55 67.2s23.7 60.9 55 67.2v211.4c0 7.5 6 13.5 13.5 13.5s13.5-6 13.5-13.5V255.2c31.3-6.3 55-34 55-67.2s-23.7-60.8-55-67.1zm-13.5 108.7c-22.9 0-41.5-18.6-41.5-41.5s18.6-41.5 41.5-41.5 41.5 18.6 41.5 41.5-18.7 41.5-41.5 41.5zm343.1-108.7V13.5c0-7.5-6-13.5-13.5-13.5s-13.5 6-13.5 13.5v107.4c-31.3 6.3-55 34-55 67.2s23.7 60.9 55 67.2v211.5c0 7.5 6 13.5 13.5 13.5s13.5-6 13.5-13.5V255.2c31.3-6.3 55-34 55-67.2s-23.6-60.8-55-67.1zm-13.5 108.7c-22.9 0-41.5-18.6-41.5-41.5s18.6-41.5 41.5-41.5 41.5 18.6 41.5 41.5-18.6 41.5-41.5 41.5z"/></symbol><symbol viewBox="0 0 463.552 463.552" id="lp-albina-navi-pricelist"><path d="M445.752 256.346l-179.9-180c-9.5-9.5-22.2-14.8-35.6-14.8-1.1 0-2.2 0-3.3.1l-130.1 8.6c-14.1.9-25.5 12.3-26.4 26.4l-3.1 46.2c-6.6-3.8-12.9-8.6-18.6-14.3-13.9-13.9-22.5-31.2-24.3-48.8-1.7-16.7 3.1-31.6 13.5-42 22.1-22.1 62.8-17.2 90.9 10.8 4.7 4.7 12.3 4.7 17 0s4.7-12.3 0-17c-37.6-37.3-93.6-42.1-125-10.7-15.6 15.6-22.8 37.3-20.4 61.4 2.3 23.1 13.4 45.6 31.2 63.4 10 10 21.6 17.9 33.9 23.3l-3.8 57.9c-1 14.5 4.4 28.7 14.7 39l180 180c11.4 11.4 26.5 17.6 42.6 17.6s31.2-6.3 42.6-17.6l104.3-104.3c11.4-11.4 17.6-26.5 17.6-42.6-.1-16.2-6.4-31.3-17.8-42.6zm-16.9 68.1l-104.4 104.4c-6.8 6.8-15.9 10.6-25.6 10.6-9.7 0-18.8-3.8-25.6-10.6l-180-180c-5.4-5.4-8.2-12.8-7.7-20.4l3.5-52.4c2 .3 4 .6 6 .8 3 .3 6 .5 8.9.5 20.5 0 38.8-7.2 52.4-20.8 4.7-4.7 4.7-12.3 0-17s-12.3-4.7-17 0c-10.4 10.4-25.3 15.2-42 13.5-2.3-.2-4.5-.6-6.7-1l3.6-53.6c.1-2.2 1.9-3.9 4.1-4.1l130.1-8.6c.6 0 1.2-.1 1.8-.1 7 0 13.8 2.8 18.7 7.7l179.9 179.9c6.8 6.8 10.6 15.9 10.6 25.6 0 9.7-3.8 18.8-10.6 25.6z"/></symbol><symbol viewBox="0 0 477.6 477.6" id="lp-albina-navi-reviews"><path d="M407.583 70c-45.1-45.1-105-70-168.8-70s-123.7 24.9-168.8 70c-87 87-93.3 226-15.8 320.2-10.7 21.9-23.3 36.5-37.6 43.5-8.7 4.3-13.6 13.7-12.2 23.3 1.5 9.7 8.9 17.2 18.6 18.7 5.3.8 11 1.3 16.9 1.3 29.3 0 60.1-10.1 85.8-27.8 34.6 18.6 73.5 28.4 113.1 28.4 63.8 0 123.7-24.8 168.8-69.9s69.9-105.1 69.9-168.8-24.8-123.8-69.9-168.9zm-19.1 318.5c-40 40-93.2 62-149.7 62-37.8 0-74.9-10.1-107.2-29.1-2.1-1.2-4.5-1.9-6.8-1.9-2.9 0-5.9 1-8.3 2.8-30.6 23.7-61.4 27.2-74.9 27.5 16.1-12 29.6-30.6 40.9-56.5 2.1-4.8 1.2-10.4-2.3-14.4-74-83.6-70.1-211 8.9-290 40-40 93.2-62 149.7-62s109.7 22 149.7 62c82.6 82.7 82.6 217.1 0 299.6z"/><path d="M338.783 160h-200c-7.5 0-13.5 6-13.5 13.5s6 13.5 13.5 13.5h200c7.5 0 13.5-6 13.5-13.5s-6.1-13.5-13.5-13.5zm0 65.3h-200c-7.5 0-13.5 6-13.5 13.5s6 13.5 13.5 13.5h200c7.5 0 13.5-6 13.5-13.5s-6.1-13.5-13.5-13.5zm0 65.3h-200c-7.5 0-13.5 6-13.5 13.5s6 13.5 13.5 13.5h200c7.5 0 13.5-6 13.5-13.5s-6.1-13.5-13.5-13.5z"/></symbol><symbol viewBox="-90 362 413.5 117.9" id="lp-dixion-logotip"><path d="M-90 453.9v-63.5h45.6c15.8 0 33.3 9.6 33.3 31.9 0 22.4-15.9 31.6-34.5 31.6H-90zm22-48v31.9h19.2c8.4 0 13.4-7.2 13.4-16.3 0-7.6-5-15.5-13.4-15.5H-68zm98.2-15.1h26.3L68.2 406l36.3-42.2h7.2L17.7 480H8.5L56 421.9zm89.8-27h8l-46 58.1 25.7 31.6H81l-12.3-16-34 42.5h-9.2zm127 90v-63.1h26.8l25.4 36.6v-36.6h24.3v63.1h-27.3l-25.5-36.7v36.7z"/><path d="M116.9 390.7h24.4v63.2h-24.4zm-119.7 0h24v63.2h-24zm227.6 9.3c7.7 6.2 12.8 13.8 12.8 23.6s-5.3 17.1-13 23.3c-7.7 6.1-17.2 9.7-30 9.7-12.9 0-22.8-3.8-30.4-9.9-7.7-6.2-12.9-13.4-12.9-23.1 0-9.6 5.3-17.4 13-23.8 8.7-6.2 17.4-9.2 30.2-9.2 12.8.2 22.8 3.1 30.3 9.4zm-48.2 23.8c0 11.3 8.8 18.4 17.8 18.4 8.7 0 18.4-6.4 18.4-18.7 0-11.3-9.2-18-17.8-18-8.6-.1-18.4 6-18.4 18.3z"/></symbol><symbol viewBox="-943 160.5 31.5 31.5" id="lp-enerfit-arrow-left"><path d="M-942.7 175.5c-.4.4-.4 1.1 0 1.6l10 10c.4.4 1.1.4 1.6 0 .4-.4.4-1.1 0-1.6l-8-8h26.6c.6 0 1.1-.5 1.1-1.1s-.5-1.1-1.1-1.1h-26.6l8-8c.4-.4.4-1.1 0-1.6-.4-.4-1.2-.4-1.6 0l-10 9.8z"/></symbol><symbol viewBox="0 0 31.49 31.49" id="lp-enerfit-arrow-right"><path d="M21.205 5.007a1.112 1.112 0 0 0-1.587 0 1.12 1.12 0 0 0 0 1.571l8.047 8.047H1.111A1.106 1.106 0 0 0 0 15.737c0 .619.492 1.127 1.111 1.127h26.554l-8.047 8.032c-.429.444-.429 1.159 0 1.587a1.112 1.112 0 0 0 1.587 0l9.952-9.952a1.093 1.093 0 0 0 0-1.571l-9.952-9.953z"/></symbol><symbol viewBox="0 0 210.7 43.1" id="lp-hlebzavod-arrow"><path d="M210 20.9s-3.3.3-9 .7c-5.7.4-13.9.9-23.8 1.3-4.9.2-10.3.5-15.9.6-5.6.2-11.6.4-17.7.5-6.2.1-12.5.2-19 .3-6.5 0-13 .1-19.6.1-6.6 0-13.1-.1-19.6-.1-6.5-.1-12.8-.2-19-.3-6.2-.1-12.1-.3-17.7-.5s-11-.4-15.9-.6c-9.8-.4-18-.9-23.8-1.3-5.7-.4-9-.7-9-.7s3.3-.3 9-.7c5.7-.4 13.9-.9 23.8-1.3 4.9-.2 10.3-.5 15.9-.6 5.6-.2 11.6-.4 17.7-.5 6.2-.1 12.5-.2 19-.3 6.5 0 13-.1 19.6-.1 6.6 0 13.1.1 19.6.1 6.5.1 12.8.2 19 .3 6.2.1 12.1.3 17.7.5s11 .4 15.9.6c9.8.4 18 .9 23.8 1.3 5.7.4 9 .7 9 .7z"/><path d="M166.2 0c1.8.9 3.5 1.9 5.2 2.7.9.4 1.7.9 2.6 1.3l2.6 1.3c1.8.8 3.5 1.7 5.3 2.4 1.8.8 3.5 1.6 5.3 2.3 3.6 1.5 7.1 2.9 10.7 4.3 1.8.7 3.6 1.4 5.4 2 1.8.7 3.6 1.3 5.4 1.9 1.5.5 2.3 2.1 1.8 3.6-.3.9-.9 1.5-1.7 1.8-1.8.6-3.7 1.3-5.5 2-1.8.7-3.7 1.4-5.5 2.2-1.8.7-3.7 1.5-5.5 2.3l-2.7 1.2-2.7 1.2-2.7 1.2-2.7 1.3c-.9.4-1.8.8-2.7 1.3l-2.7 1.3-2.7 1.3c-.9.4-1.7 1-2.6 1.4-1.8.9-3.5 2-5.3 2.9l2.1-2.1c.7-.7 1.5-1.4 2.3-2 .8-.7 1.5-1.3 2.3-1.9l2.4-1.9c.8-.6 1.7-1.2 2.5-1.7.8-.6 1.7-1.2 2.5-1.7 1.7-1.1 3.4-2.1 5.2-3.2 1.8-1 3.5-2 5.3-2.9 1.8-.9 3.6-1.8 5.5-2.7 1.8-.8 3.7-1.6 5.6-2.4 1.9-.8 3.8-1.5 5.7-2.2v5.3c-1.9-.7-3.8-1.3-5.6-2.1-1.8-.7-3.7-1.5-5.5-2.3-1.8-.8-3.6-1.6-5.4-2.5-1.8-.9-3.5-1.8-5.3-2.8-1.7-1-3.5-1.9-5.1-3-.8-.5-1.7-1.1-2.5-1.6-.8-.6-1.7-1.1-2.5-1.7L172.6 6c-.8-.6-1.6-1.2-2.3-1.9-.8-.6-1.5-1.3-2.2-2-.4-.7-1.2-1.4-1.9-2.1z"/></symbol><symbol viewBox="0 0 51.997 51.997" id="lp-hlebzavod-like"><path d="M51.911 16.242c-.759-8.354-6.672-14.415-14.072-14.415-4.93 0-9.444 2.653-11.984 6.905-2.517-4.307-6.846-6.906-11.697-6.906C6.759 1.826.845 7.887.087 16.241c-.06.369-.306 2.311.442 5.478 1.078 4.568 3.568 8.723 7.199 12.013l18.115 16.439 18.426-16.438c3.631-3.291 6.121-7.445 7.199-12.014.748-3.166.502-5.108.443-5.477zm-2.39 5.019c-.984 4.172-3.265 7.973-6.59 10.985L25.855 47.481 9.072 32.25c-3.331-3.018-5.611-6.818-6.596-10.99-.708-2.997-.417-4.69-.416-4.701l.015-.101c.65-7.319 5.731-12.632 12.083-12.632 4.687 0 8.813 2.88 10.771 7.515l.921 2.183.921-2.183c1.927-4.564 6.271-7.514 11.069-7.514 6.351 0 11.433 5.313 12.096 12.727.002.016.293 1.71-.415 4.707z"/></symbol><symbol viewBox="0 0 459.325 459.325" id="lp-hlebzavod-plus"><path d="M459.319 229.668c0 22.201-17.992 40.193-40.205 40.193H269.85v149.271c0 22.207-17.998 40.199-40.196 40.193-11.101 0-21.149-4.492-28.416-11.763-7.276-7.281-11.774-17.324-11.769-28.419l-.006-149.288H40.181c-11.094 0-21.134-4.492-28.416-11.774C4.501 250.817.006 240.769.006 229.668 0 207.471 17.992 189.475 40.202 189.475h149.267V40.202C189.469 17.998 207.471 0 229.671 0c22.192.006 40.178 17.986 40.19 40.187v149.288h149.282c22.196.012 40.165 17.996 40.176 40.193z"/></symbol><symbol viewBox="0 0 512.001 512.001" id="lp-hlebzavod-sun"><path d="M508.802 313.945l-43.619-43.62a20.124 20.124 0 0 1-5.933-14.324 20.124 20.124 0 0 1 5.933-14.324l43.619-43.619a10.956 10.956 0 0 0 2.828-10.553 10.955 10.955 0 0 0-7.725-7.725l-59.584-15.965a20.129 20.129 0 0 1-12.301-9.439 20.12 20.12 0 0 1-2.023-15.372l15.966-59.585a10.957 10.957 0 0 0-2.828-10.553 10.964 10.964 0 0 0-10.553-2.828l-59.585 15.966a20.119 20.119 0 0 1-15.371-2.024 20.124 20.124 0 0 1-9.438-12.301L332.221 8.096a10.954 10.954 0 0 0-7.725-7.725 10.948 10.948 0 0 0-10.553 2.828l-43.619 43.619A20.124 20.124 0 0 1 256 52.751a20.124 20.124 0 0 1-14.324-5.933l-43.619-43.62A10.957 10.957 0 0 0 187.504.37a10.955 10.955 0 0 0-7.725 7.725L163.814 67.68a20.132 20.132 0 0 1-9.439 12.301 20.116 20.116 0 0 1-15.372 2.023L79.419 66.039a10.96 10.96 0 0 0-10.553 2.828 10.959 10.959 0 0 0-2.828 10.553l15.966 59.585a20.125 20.125 0 0 1-2.023 15.372 20.124 20.124 0 0 1-12.301 9.438L8.096 179.779a10.954 10.954 0 0 0-7.725 7.725 10.954 10.954 0 0 0 2.828 10.553l43.619 43.619c3.826 3.826 5.933 8.913 5.933 14.324s-2.107 10.498-5.933 14.324l-43.62 43.619C.447 316.694-.637 320.738.37 324.496s3.967 6.718 7.725 7.725l59.584 15.965a20.132 20.132 0 0 1 12.301 9.439 20.12 20.12 0 0 1 2.023 15.372l-15.966 59.585a10.957 10.957 0 0 0 2.828 10.553 10.96 10.96 0 0 0 10.553 2.828l59.585-15.966a20.123 20.123 0 0 1 15.371 2.024 20.125 20.125 0 0 1 9.438 12.3l15.966 59.585a10.954 10.954 0 0 0 7.725 7.725 10.955 10.955 0 0 0 10.553-2.828l43.619-43.619a20.124 20.124 0 0 1 14.324-5.933 20.124 20.124 0 0 1 14.324 5.933l43.619 43.619a10.959 10.959 0 0 0 10.553 2.828 10.955 10.955 0 0 0 7.725-7.725l15.965-59.584a20.129 20.129 0 0 1 9.439-12.301 20.116 20.116 0 0 1 15.372-2.023l59.585 15.966a10.96 10.96 0 0 0 10.553-2.828 10.959 10.959 0 0 0 2.828-10.553l-15.966-59.585a20.123 20.123 0 0 1 2.024-15.371 20.125 20.125 0 0 1 12.3-9.438l59.585-15.966a10.954 10.954 0 0 0 7.725-7.725 10.954 10.954 0 0 0-2.828-10.553zm-68.363 19.761c-9.094 2.437-16.695 8.27-21.403 16.423-4.708 8.154-5.958 17.654-3.522 26.747l14.143 52.781-52.781-14.143c-9.094-2.437-18.593-1.186-26.749 3.521-8.153 4.708-13.986 12.309-16.423 21.404l-14.142 52.78-38.638-38.638c-6.658-6.658-15.51-10.325-24.925-10.325-9.415 0-18.268 3.667-24.925 10.325l-38.638 38.638-14.143-52.781c-2.437-9.094-8.269-16.695-16.423-21.403-5.432-3.136-11.46-4.738-17.567-4.738-3.062 0-6.144.403-9.18 1.216l-52.781 14.143 14.142-52.781c2.437-9.094 1.187-18.594-3.521-26.748-4.708-8.153-12.309-13.986-21.404-16.423l-52.781-14.142 38.638-38.638c6.658-6.658 10.325-15.51 10.325-24.925s-3.666-18.268-10.325-24.925l-38.638-38.638 52.781-14.142c9.094-2.437 16.696-8.27 21.404-16.424 4.708-8.154 5.958-17.654 3.522-26.748L82.342 82.343l52.781 14.142c9.094 2.438 18.593 1.187 26.748-3.521 8.153-4.708 13.986-12.309 16.423-21.404l14.142-52.781 38.638 38.638c6.658 6.658 15.51 10.325 24.925 10.325 9.415 0 18.268-3.666 24.925-10.325l38.638-38.638 14.142 52.781c2.437 9.094 8.27 16.696 16.424 21.404 8.154 4.709 17.654 5.958 26.747 3.522l52.781-14.143-14.142 52.781c-2.437 9.094-1.187 18.594 3.521 26.748 4.708 8.153 12.309 13.986 21.404 16.423l52.78 14.142-38.638 38.638c-6.658 6.658-10.325 15.51-10.325 24.925 0 9.415 3.666 18.268 10.325 24.925l38.638 38.638-52.78 14.143z"/><path d="M314.899 137.408a7.496 7.496 0 0 0 6.657-13.432c-56.553-28.027-124.553-16.853-169.211 27.806-55.085 55.084-57.624 143.706-5.783 201.755a7.477 7.477 0 0 0 5.593 2.503 7.495 7.495 0 0 0 5.588-12.489c-46.549-52.124-44.264-131.703 5.202-181.169 40.107-40.105 101.172-50.141 151.954-24.974zm39.932 19.306a7.496 7.496 0 0 0-.535 10.587c47.135 52.159 45.081 131.995-4.677 181.753-25.428 25.428-59.117 38.76-93.308 38.758-20.302-.001-40.786-4.704-59.807-14.367a7.496 7.496 0 0 0-6.79 13.366c21.189 10.765 43.991 16.002 66.606 16.001 38.067-.002 75.591-14.847 103.9-43.157 55.41-55.41 57.694-144.316 5.199-202.406a7.498 7.498 0 0 0-10.588-.535z"/></symbol><symbol viewBox="0 0 218.1 218.1" id="lp-hlebzavod-wheat"><path d="M102.649 47.18a3.375 3.375 0 0 0 1.637-4.483c-1.693-3.642-2.552-7.649-2.552-11.91 0-10.474 4.458-18.257 7.315-22.17 2.857 3.913 7.315 11.696 7.315 22.17 0 4.26-.858 8.267-2.552 11.91a3.374 3.374 0 1 0 6.12 2.846c2.111-4.54 3.181-9.505 3.181-14.756 0-18.291-11.227-29.384-11.705-29.847a3.362 3.362 0 0 0-2.36-.94 3.362 3.362 0 0 0-2.36.94c-.478.463-11.705 11.556-11.705 29.847 0 5.251 1.07 10.215 3.181 14.756a3.379 3.379 0 0 0 4.485 1.637z"/><path d="M117.626 118.59a3.378 3.378 0 0 0-2.681 3.95 3.378 3.378 0 0 0 3.951 2.679c7.688-1.472 14.511-5.101 19.73-10.494 12.684-13.104 9.006-30.987 8.844-31.742a3.376 3.376 0 0 0-3.299-2.664h-.003c-.665 0-16.446.164-29.165 13.305a39.824 39.824 0 0 0-2.886 3.316V74.81l.008-.038c.481-3.868 1.808-9.718 7.728-15.834 7.653-7.907 16.779-10.258 21.375-10.956.341 4.923-.041 15.011-7.452 22.667-4.308 4.452-9.742 7.332-16.149 8.559a3.378 3.378 0 0 0-2.681 3.95 3.378 3.378 0 0 0 3.951 2.68c7.688-1.472 14.511-5.101 19.73-10.494 12.684-13.104 9.006-30.987 8.844-31.742a3.376 3.376 0 0 0-3.299-2.664h-.003c-.665 0-16.446.164-29.165 13.305-2.474 2.555-4.438 5.211-5.953 8.042-1.515-2.83-3.479-5.487-5.952-8.042-12.719-13.142-28.5-13.305-29.165-13.305h-.004a3.374 3.374 0 0 0-3.299 2.664c-.163.755-3.84 18.637 8.843 31.742 5.219 5.393 12.042 9.022 19.73 10.494a3.378 3.378 0 0 0 3.95-2.68 3.375 3.375 0 0 0-2.68-3.95c-6.408-1.227-11.841-4.107-16.15-8.559-7.41-7.656-7.793-17.744-7.452-22.667 4.596.698 13.722 3.049 21.375 10.956 5.921 6.116 7.246 11.966 7.728 15.834l.007.038v22.131a40.158 40.158 0 0 0-2.885-3.316C90.377 80.483 74.596 80.32 73.931 80.32h-.002a3.374 3.374 0 0 0-3.299 2.664c-.163.755-3.84 18.637 8.843 31.742 5.219 5.394 12.042 9.022 19.73 10.494a3.378 3.378 0 0 0 3.95-2.679 3.375 3.375 0 0 0-2.68-3.95c-6.408-1.227-11.841-4.107-16.15-8.559-7.41-7.656-7.793-17.746-7.452-22.667 4.596.698 13.722 3.049 21.375 10.956 5.921 6.116 7.246 11.965 7.728 15.834l.007.037v23.059a40.158 40.158 0 0 0-2.885-3.316c-12.719-13.142-28.5-13.305-29.165-13.305h-.002a3.374 3.374 0 0 0-3.299 2.664c-.163.755-3.84 18.637 8.843 31.74 5.219 5.394 12.042 9.022 19.73 10.494a3.378 3.378 0 0 0 3.95-2.679 3.373 3.373 0 0 0-2.68-3.949c-6.408-1.228-11.841-4.107-16.15-8.56-7.41-7.656-7.793-17.744-7.452-22.667 4.596.697 13.722 3.049 21.375 10.956 5.921 6.116 7.246 11.966 7.728 15.834l.007.038v60.24a3.371 3.371 0 0 0 3.067 3.359 3.374 3.374 0 0 0 3.067-3.359V154.5l.007-.038c.482-3.868 1.809-9.718 7.729-15.834 7.653-7.907 16.779-10.259 21.375-10.956.341 4.923-.041 15.011-7.452 22.667-4.308 4.452-9.742 7.332-16.149 8.56a3.377 3.377 0 0 0-2.681 3.949 3.378 3.378 0 0 0 3.951 2.679c7.688-1.472 14.511-5.101 19.73-10.494 12.684-13.104 9.006-30.986 8.844-31.74a3.375 3.375 0 0 0-3.299-2.664h-.003c-.665 0-16.446.164-29.165 13.305a39.986 39.986 0 0 0-2.886 3.316v-23.059l.008-.037c.481-3.867 1.808-9.718 7.728-15.833 7.653-7.907 16.779-10.258 21.375-10.956.341 4.923-.041 15.011-7.452 22.667-4.308 4.45-9.743 7.331-16.149 8.558z"/></symbol><symbol viewBox="0 0 258 452" id="lp-orionprint-slider-left"><path d="M9.267 203.555L203.555 9.274c12.359-12.365 32.397-12.365 44.75 0 12.354 12.354 12.354 32.39 0 44.744L76.391 225.927l171.908 171.902c12.354 12.36 12.354 32.394 0 44.748-12.354 12.359-32.391 12.359-44.75 0L9.262 248.294C3.085 242.114 0 234.023 0 225.928c0-8.099 3.091-16.196 9.267-22.373z"/></symbol><symbol viewBox="0 0 258 452" id="lp-orionprint-slider-right"><path d="M248.303 248.292L54.016 442.573c-12.36 12.365-32.398 12.365-44.75 0-12.354-12.354-12.354-32.391 0-44.744L181.179 225.92 9.27 54.017C-3.084 41.658-3.084 21.623 9.27 9.27c12.356-12.36 32.393-12.36 44.75 0l194.288 194.284c6.177 6.18 9.262 14.271 9.262 22.366 0 8.099-3.091 16.196-9.267 22.373z"/></symbol><symbol viewBox="0 0 500 319" id="lp-pizza-slider-left"><path d="M8.717 120.034l1.503-1.502 1.403-1.403 2.705-2.706 5.41-5.21c3.608-3.406 7.315-6.813 10.922-10.22 3.707-3.306 7.414-6.613 11.222-9.819 3.807-3.206 7.615-6.412 11.522-9.518 3.908-3.107 7.715-6.213 11.723-9.218l6.012-4.51 6.012-4.408c4.008-2.906 8.216-5.811 12.324-8.617 4.208-2.805 8.416-5.51 12.624-8.216 4.309-2.705 8.617-5.31 13.026-7.815l3.306-1.904 3.307-1.803 6.713-3.607c2.204-1.203 4.509-2.305 6.813-3.507l6.914-3.307c4.609-2.104 9.318-4.308 14.027-6.111 4.809-1.904 9.519-3.808 14.428-5.31 2.405-.802 4.91-1.604 7.415-2.406 2.505-.701 5.01-1.402 7.514-2.003 2.505-.602 5.01-1.303 7.615-1.704 1.303-.3 2.505-.5 3.808-.701 1.302-.2 2.505-.501 3.807-.601 5.11-.702 10.32-1.303 15.53-1.203h.702c1.102 0 1.904.902 1.904 1.904a1.98 1.98 0 0 1-1.203 1.804c-8.917 3.406-17.434 7.614-25.75 12.324-4.208 2.304-8.216 4.809-12.324 7.414-4.008 2.505-8.016 5.21-12.024 7.915-3.907 2.706-7.915 5.411-11.722 8.217-3.908 2.805-7.716 5.71-11.523 8.616-7.615 5.812-15.13 11.823-22.544 17.935-7.415 6.112-14.629 12.425-21.843 18.837-7.214 6.313-14.328 12.825-21.341 19.338a979.736 979.736 0 0 0-20.841 19.939c-3.407 3.407-6.813 6.713-10.22 10.12-2.505 2.505-5.01 5.009-7.415 7.615l8.116 8.416 10.721 11.022c7.214 7.314 14.428 14.628 21.743 21.942 7.314 7.214 14.628 14.429 22.043 21.643l10.921 10.62 11.122 10.621a1115.852 1115.852 0 0 0 22.544 21.041c3.807 3.507 7.615 6.914 11.422 10.32 3.808 3.407 7.715 6.814 11.523 10.22 3.807 3.407 7.715 6.713 11.622 10.12 3.908 3.307 7.816 6.613 11.823 9.92l6.012 4.809 6.012 4.809c2.004 1.603 4.008 3.106 6.112 4.709l6.212 4.609c.902.602 1.002 1.804.401 2.706-.501.601-1.303.902-2.004.701l-.701-.2-4.008-1.102-3.908-1.203c-2.605-.801-5.21-1.703-7.815-2.605-2.605-.902-5.11-1.904-7.615-2.906-2.505-1.001-5.01-2.104-7.515-3.106-5.01-2.104-9.819-4.508-14.729-6.813l-7.113-3.707c-2.405-1.202-4.81-2.405-7.114-3.808-4.71-2.605-9.319-5.21-13.928-8.015l-13.526-8.417c-4.409-2.905-8.817-5.811-13.226-8.817-4.408-3.006-8.617-6.112-12.925-9.218-4.208-3.106-8.416-6.312-12.625-9.518-4.208-3.207-8.216-6.513-12.324-9.82-2.004-1.603-4.008-3.306-6.011-5.009-2.004-1.704-4.008-3.307-6.012-5.11-3.908-3.407-7.916-6.814-11.823-10.321l-5.812-5.31-5.71-5.31c-3.808-3.607-7.616-7.214-11.323-10.821-3.807-3.607-7.414-7.415-11.122-11.122l-5.41-5.711-5.511-5.812-.1-.1C4.208 164.421 1.403 158.91 0 153.099c1.303 11.823 6.312 23.346 14.93 32.764l.6.701 5.611 6.112c1.804 2.004 3.607 4.008 5.511 5.812l5.611 5.711 2.806 2.805 2.905 2.806c3.808 3.707 7.615 7.414 11.623 11.021l5.911 5.411 6.012 5.21c4.008 3.507 8.216 6.813 12.324 10.22 2.004 1.703 4.208 3.306 6.313 5.01 2.104 1.603 4.208 3.306 6.412 4.909 4.308 3.207 8.617 6.413 13.126 9.419 4.408 3.106 8.917 6.012 13.526 9.017 2.305 1.503 4.609 2.906 6.914 4.309l3.506 2.104 3.507 2.104c4.71 2.806 9.519 5.411 14.429 8.016l7.414 3.807 7.515 3.607a357.823 357.823 0 0 0 15.43 6.813c5.21 2.205 10.52 4.108 15.931 6.112 2.705.902 5.41 1.804 8.216 2.706 2.705.901 5.511 1.703 8.316 2.404 2.806.802 5.611 1.503 8.517 2.205 2.906.601 5.711 1.302 8.717 1.903 1.503.301 3.006.501 4.408.802 1.503.2 2.906.501 4.409.701l4.509.501c1.503.101 3.006.301 4.609.301l1.904.1c.901 0 1.903-.401 2.505-1.102 1.001-1.303.801-3.206-.501-4.208l-6.112-4.81c-2.004-1.603-4.008-3.206-6.012-4.909-2.004-1.603-4.008-3.307-6.012-4.91a140.617 140.617 0 0 1-5.911-5.01c-3.908-3.306-7.816-6.713-11.723-10.119l-11.523-10.321c-3.907-3.406-7.715-6.913-11.522-10.42-3.808-3.507-7.615-7.014-11.322-10.52-7.515-7.114-15.03-14.228-22.344-21.442l-22.143-21.743-21.943-21.943-21.643-22.243-17.133-18.035 5.711-6.012c3.407-3.507 6.713-6.914 10.12-10.32 6.813-6.814 13.727-13.527 20.741-20.24 7.013-6.613 14.127-13.226 21.241-19.638l10.821-9.619c3.607-3.206 7.214-6.412 10.921-9.519 7.315-6.312 14.729-12.424 22.344-18.335a433.853 433.853 0 0 1 11.422-8.717c3.808-2.906 7.715-5.611 11.623-8.417 3.908-2.805 7.916-5.51 11.923-8.116 4.008-2.605 8.116-5.21 12.224-7.514a217.362 217.362 0 0 1 12.525-6.814c4.208-2.204 8.516-4.208 12.925-5.911.902-.4 1.603-1.202 1.904-2.204.3-1.704-.802-3.307-2.405-3.607l-1.703-.301C234.759.4 229.047.1 223.336 0c-1.403 0-2.805 0-4.208.1-1.403 0-2.805.1-4.208.2-2.806.1-5.611.401-8.417.702-5.611.601-11.021 1.603-16.432 2.705-5.41 1.102-10.721 2.405-16.031 4.008-5.21 1.503-10.42 3.206-15.53 5.01-2.505.902-5.11 1.803-7.615 2.805a567.96 567.96 0 0 0-7.415 3.006c-2.505 1.002-4.909 2.104-7.314 3.206l-3.607 1.604-3.607 1.703c-2.405 1.202-4.81 2.304-7.114 3.507l-7.014 3.607c-2.304 1.202-4.609 2.505-6.913 3.807-2.305 1.303-4.609 2.505-6.814 3.908-4.408 2.705-8.917 5.31-13.225 8.216-2.205 1.403-4.309 2.805-6.513 4.208l-6.312 4.409c-4.209 2.905-8.317 6.011-12.425 9.118-4.108 3.106-8.015 6.312-12.023 9.518-3.908 3.206-7.815 6.613-11.723 9.92-3.807 3.406-7.615 6.813-11.422 10.32l-5.611 5.41-2.806 2.806-1.403 1.402-.7.702-.803.902c-6.813 7.214-11.522 15.73-13.927 24.748 1.002-4.509 3.407-8.216 6.513-11.523z"/><path d="M128.452 130.655c9.518-1.202 19.939-2.204 30.86-2.905 10.921-.702 22.444-1.203 34.367-.902a577.8 577.8 0 0 1 18.135.902c6.112.5 12.325 1.102 18.537 1.703s12.524 1.303 18.836 1.804a585.484 585.484 0 0 0 19.038 1.503c12.724.801 25.449 1.603 37.874 2.504 12.524.802 24.848 1.804 36.671 2.706 11.924 1.002 23.446 1.903 34.367 2.905a4143.033 4143.033 0 0 0 30.76 2.706c9.519.801 18.236 1.703 25.951 2.404 7.715.702 14.528 1.403 20.039 2.004 11.222 1.102 17.534 1.804 17.534 1.804 1.103.1 1.904 1.102 1.804 2.204-.1 1.002-.902 1.703-1.804 1.804 0 0-6.412.5-17.534 1.302-5.611.401-12.324.902-20.039 1.403-7.715.5-16.532 1.102-26.051 1.603-9.518.501-19.839 1.102-30.86 1.804a7500.326 7500.326 0 0 1-34.367 1.803c-11.923.601-24.248 1.202-36.772 1.703-12.524.501-25.249.902-37.974 1.403-6.312.3-12.725.501-19.037.902-6.313.4-12.625.801-18.937 1.302-6.313.401-12.525.902-18.637 1.103-6.112.3-12.224.4-18.135.4-11.923-.1-23.446-.801-34.367-1.903-10.922-1.002-21.242-2.405-30.76-3.808-1.203-.2-2.405-.4-3.507-.6 1.202.4 2.304.7 3.507 1.101a370.27 370.27 0 0 0 25.95 6.713 434.072 434.072 0 0 0 14.83 2.906c5.11.902 10.42 1.703 15.93 2.405 10.922 1.503 22.444 2.505 34.368 2.505 5.911 0 12.023-.301 18.135-.702a648.43 648.43 0 0 0 18.636-1.803c12.525-1.403 25.25-2.706 37.975-3.407 12.724-.802 25.449-1.403 37.974-2.304 12.524-.802 24.848-1.804 36.772-2.706 11.923-1.002 23.445-1.903 34.367-2.905 5.51-.501 10.821-.902 15.931-1.403 5.11-.501 10.12-.902 14.929-1.403 9.519-.902 18.336-1.803 26.051-2.505 7.715-.801 14.528-1.503 20.139-2.104 5.611-.601 9.92-1.102 12.925-1.403 3.006-.4 4.609-.5 4.609-.5 1.303-.201 2.305-1.103 2.505-2.505.201-1.604-.902-3.106-2.505-3.307 0 0-1.603-.2-4.609-.701-3.005-.401-7.314-1.002-12.925-1.804-5.511-.801-12.324-1.703-20.039-2.705a7786.906 7786.906 0 0 0-25.951-3.307c-4.809-.6-9.719-1.202-14.829-1.803-5.11-.601-10.42-1.202-15.931-1.904-10.921-1.302-22.444-2.505-34.267-3.907-11.923-1.203-24.247-2.605-36.671-3.708-12.525-1.202-25.149-2.304-37.874-3.406-12.725-1.102-25.35-2.806-37.874-4.61-6.212-.901-12.425-1.703-18.536-2.304-6.112-.601-12.224-1.102-18.136-1.202-11.923-.401-23.446.4-34.367 1.503-5.51.6-10.821 1.202-15.931 2.004-5.11.801-10.12 1.603-14.93 2.505-9.518 1.803-18.335 3.807-26.15 5.911a319.43 319.43 0 0 0-8.517 2.405 116.06 116.06 0 0 1 8.517-1.202z"/></symbol><symbol viewBox="0 0 500 319" id="lp-pizza-slider-right"><path d="M491.283 198.488l-1.503 1.503-4.108 4.108-5.41 5.21c-3.607 3.407-7.314 6.813-10.922 10.22-3.707 3.306-7.414 6.613-11.221 9.819-3.808 3.206-7.615 6.413-11.523 9.519-3.908 3.106-7.715 6.212-11.723 9.218l-6.012 4.509-6.011 4.408c-4.008 2.906-8.216 5.812-12.324 8.617-4.209 2.805-8.417 5.511-12.625 8.216-4.309 2.705-8.617 5.31-13.026 7.815l-3.306 1.904-3.306 1.804-6.714 3.607c-2.204 1.202-4.508 2.304-6.813 3.506l-6.913 3.307c-4.61 2.104-9.319 4.308-14.028 6.112-4.81 1.904-9.519 3.807-14.428 5.31-2.405.802-4.91 1.603-7.415 2.405-2.504.701-5.01 1.403-7.514 2.004-2.505.601-5.01 1.302-7.615 1.703-1.303.301-2.505.501-3.807.702-1.303.2-2.505.501-3.808.601-5.11.701-10.32 1.302-15.53 1.202h-.702a1.903 1.903 0 0 1-1.903-1.904c0-.801.5-1.503 1.202-1.803 8.917-3.407 17.434-7.615 25.75-12.324 4.208-2.305 8.216-4.81 12.324-7.415 4.008-2.505 8.016-5.21 12.024-7.915 3.907-2.705 7.915-5.411 11.723-8.216 3.907-2.806 7.715-5.711 11.522-8.617 7.615-5.811 15.13-11.823 22.544-17.935 7.415-6.112 14.629-12.424 21.843-18.837 7.214-6.312 14.328-12.825 21.342-19.338a978.16 978.16 0 0 0 20.84-19.939c3.407-3.406 6.814-6.713 10.22-10.119 2.505-2.505 5.01-5.01 7.415-7.615l-8.116-8.417-10.721-11.021c-7.214-7.315-14.428-14.629-21.742-21.943-7.315-7.214-14.629-14.428-22.044-21.642l-10.921-10.621-11.122-10.621a1118.637 1118.637 0 0 0-22.544-21.041c-3.807-3.507-7.615-6.914-11.422-10.32-3.807-3.407-7.715-6.814-11.522-10.22-3.808-3.407-7.716-6.713-11.623-10.12-3.908-3.306-7.816-6.613-11.823-9.92l-6.012-4.809-6.012-4.81c-2.004-1.602-4.008-3.105-6.112-4.708l-6.212-4.61c-.902-.6-1.002-1.803-.4-2.705.5-.6 1.302-.901 2.003-.701l.702.2 4.007 1.103 3.908 1.202c2.605.801 5.21 1.703 7.815 2.605 2.605.902 5.11 1.904 7.615 2.906 2.505 1.002 5.01 2.104 7.515 3.106 5.01 2.104 9.82 4.508 14.729 6.813l7.114 3.707c2.404 1.203 4.809 2.405 7.113 3.808 4.71 2.605 9.319 5.21 13.928 8.015l13.526 8.417c4.409 2.905 8.817 5.811 13.226 8.817 4.409 3.006 8.617 6.112 12.925 9.218 4.208 3.106 8.417 6.312 12.625 9.519 4.208 3.206 8.216 6.512 12.324 9.819 2.004 1.603 4.008 3.306 6.012 5.01 2.004 1.703 4.008 3.306 6.012 5.11 3.907 3.406 7.915 6.813 11.823 10.32l5.811 5.31 5.711 5.311c3.808 3.607 7.615 7.214 11.322 10.821 3.808 3.607 7.415 7.414 11.122 11.121l5.411 5.712 5.51 5.811.101.1c4.408 4.609 7.214 10.12 8.616 15.931-1.302-11.823-6.312-23.345-14.929-32.764l-.601-.701-5.611-6.112c-1.803-2.004-3.607-4.008-5.511-5.811l-5.611-5.712-2.805-2.805-2.906-2.806c-3.807-3.707-7.615-7.414-11.623-11.021l-5.911-5.41-6.012-5.21c-4.008-3.508-8.216-6.814-12.324-10.22-2.004-1.704-4.208-3.307-6.312-5.01-2.104-1.604-4.208-3.307-6.413-4.91-4.308-3.206-8.617-6.413-13.125-9.419-4.409-3.106-8.918-6.011-13.527-9.017-2.304-1.503-4.609-2.906-6.913-4.309l-7.014-4.208c-4.709-2.805-9.519-5.41-14.428-8.016l-7.415-3.807-7.514-3.607a358.905 358.905 0 0 0-15.43-6.813c-5.21-2.205-10.521-4.108-15.932-6.112a795.113 795.113 0 0 0-8.216-2.706 113.414 113.414 0 0 0-8.316-2.404c-2.806-.802-5.611-1.503-8.517-2.205-2.905-.6-5.71-1.302-8.717-1.903-1.503-.3-3.006-.501-4.408-.802-1.503-.2-2.906-.5-4.409-.701L265.041.4c-1.503-.1-3.006-.3-4.609-.3L258.53 0c-.902 0-1.904.4-2.505 1.102-1.002 1.303-.802 3.206.5 4.208l6.113 4.81c2.003 1.603 4.007 3.206 6.011 4.91 2.004 1.603 4.008 3.306 6.012 4.909a141.747 141.747 0 0 1 5.912 5.01c3.907 3.306 7.815 6.713 11.722 10.12l11.523 10.32c3.908 3.406 7.715 6.913 11.522 10.42 3.808 3.507 7.615 7.014 11.323 10.52 7.514 7.115 15.029 14.228 22.343 21.443l22.144 21.742 21.942 21.943 21.643 22.243 17.133 18.036-5.711 6.011c-3.407 3.507-6.713 6.914-10.12 10.32-6.813 6.814-13.727 13.527-20.74 20.24-7.014 6.613-14.128 13.226-21.242 19.638l-10.821 9.619c-3.607 3.206-7.214 6.413-10.921 9.519-7.315 6.312-14.729 12.424-22.344 18.336a434.867 434.867 0 0 1-11.422 8.717c-3.808 2.905-7.715 5.611-11.623 8.416-3.908 2.806-7.915 5.511-11.923 8.116-4.008 2.605-8.116 5.21-12.224 7.515a217.612 217.612 0 0 1-12.525 6.813c-4.208 2.204-8.516 4.208-12.925 5.911-.902.401-1.603 1.203-1.904 2.205-.3 1.703.802 3.306 2.405 3.607l1.704.3c5.71 1.103 11.422 1.403 17.133 1.503 1.403 0 2.805 0 4.208-.1 1.403 0 2.806-.1 4.208-.2 2.806-.1 5.611-.401 8.417-.702 5.61-.601 11.021-1.603 16.432-2.705 5.41-1.102 10.72-2.405 16.031-4.008 5.21-1.503 10.42-3.206 15.53-5.009 2.505-.902 5.11-1.804 7.615-2.806s5.01-2.004 7.415-3.006c2.505-1.002 4.91-2.104 7.314-3.206l3.607-1.603 3.607-1.704c2.405-1.202 4.81-2.304 7.114-3.506l7.014-3.607c2.305-1.203 4.609-2.505 6.914-3.808 2.304-1.302 4.609-2.505 6.813-3.908 4.408-2.705 8.917-5.31 13.226-8.216 2.204-1.402 4.308-2.805 6.512-4.208l6.313-4.408c4.208-2.906 8.316-6.012 12.424-9.118 4.108-3.106 8.016-6.313 12.024-9.519 3.907-3.206 7.815-6.613 11.722-9.919 3.808-3.407 7.615-6.814 11.423-10.32l5.611-5.411 4.909-4.91.802-.901c6.813-7.214 11.522-15.731 13.927-24.749-1.002 4.509-3.407 8.216-6.513 11.523z"/><path d="M371.549 187.867c-9.519 1.203-19.939 2.205-30.86 2.906-10.922.701-22.444 1.202-34.367.902-5.912-.2-12.024-.501-18.136-.902-6.112-.501-12.324-1.102-18.536-1.703-6.212-.602-12.525-1.303-18.837-1.804a585.704 585.704 0 0 0-19.037-1.503c-12.725-.801-25.45-1.603-37.874-2.505-12.525-.801-24.849-1.803-36.672-2.705-11.923-1.002-23.446-1.904-34.367-2.906a4130.563 4130.563 0 0 0-30.76-2.705c-9.518-.802-18.235-1.703-25.95-2.405a1122.412 1122.412 0 0 1-20.04-2.004c-11.221-1.102-17.534-1.803-17.534-1.803-1.102-.1-1.903-1.102-1.803-2.204.1-1.002.902-1.704 1.803-1.804 0 0 6.413-.501 17.535-1.302 5.61-.401 12.324-.902 20.039-1.403 7.715-.501 16.532-1.102 26.05-1.603 9.519-.501 19.839-1.103 30.86-1.804a7514.831 7514.831 0 0 1 34.368-1.803c11.923-.602 24.247-1.203 36.771-1.704 12.525-.5 25.25-.902 37.975-1.402 6.312-.301 12.725-.501 19.037-.902 6.312-.401 12.625-.802 18.937-1.303 6.312-.4 12.524-.902 18.636-1.102 6.112-.3 12.224-.4 18.136-.4 11.923.1 23.446.8 34.367 1.903 10.921 1.002 21.241 2.405 30.76 3.807 1.202.2 2.405.401 3.507.602-1.203-.401-2.305-.702-3.507-1.103a370.155 370.155 0 0 0-25.951-6.713 433.76 433.76 0 0 0-14.829-2.905 335.33 335.33 0 0 0-15.931-2.405c-10.921-1.503-22.444-2.505-34.367-2.505-5.912 0-12.023.3-18.135.701a648.515 648.515 0 0 0-18.637 1.804c-12.524 1.403-25.249 2.705-37.974 3.407-12.725.801-25.45 1.402-37.974 2.304-12.525.802-24.849 1.804-36.772 2.705-11.923 1.002-23.446 1.904-34.367 2.906-5.51.501-10.82.902-15.93 1.403-5.11.5-10.12.902-14.93 1.403-9.519.901-18.336 1.803-26.05 2.504-7.716.802-14.53 1.503-20.14 2.105-5.611.6-9.92 1.102-12.926 1.402-3.005.401-4.609.501-4.609.501-1.302.2-2.304 1.102-2.504 2.505-.2 1.603.901 3.106 2.504 3.307 0 0 1.604.2 4.61.701 3.005.4 7.314 1.002 12.925 1.804 5.51.801 12.324 1.703 20.039 2.705a7801.365 7801.365 0 0 0 25.95 3.306c4.81.601 9.72 1.203 14.83 1.804 5.11.6 10.42 1.202 15.93 1.903 10.922 1.303 22.444 2.505 34.267 3.908 11.923 1.202 24.248 2.605 36.672 3.707 12.524 1.203 25.149 2.305 37.874 3.407 12.725 1.102 25.349 2.806 37.874 4.609 6.212.902 12.424 1.703 18.536 2.305 6.112.6 12.224 1.102 18.135 1.202 11.924.4 23.446-.4 34.368-1.503 5.51-.601 10.821-1.202 15.931-2.004 5.11-.801 10.119-1.603 14.929-2.505 9.518-1.803 18.336-3.807 26.151-5.911a320.475 320.475 0 0 0 8.517-2.405c-2.806.5-5.611.902-8.517 1.202z"/></symbol><symbol viewBox="-120.8 125.1 12.2 11.8" id="lp-zenit-arrow-bottom"><path d="M-108.7 129.4v-1.6l-6.1 5.4-6-5.4v1.6l6 5.4z"/></symbol><symbol viewBox="-123.2 125 12.6 12.1" id="lp-zenit-arrow-left"><path d="M-115 137.1h1.6l-5.4-6.1 5.4-6h-1.6l-5.4 6z"/></symbol><symbol viewBox="-123.2 125 12.6 12.1" id="lp-zenit-arrow-right"><path d="M-118.8 125h-1.6l5.4 6.1-5.4 6h1.6l5.4-6z"/></symbol><symbol viewBox="0 0 68.1 68.1" id="mouse"><path d="M34.5 67.9h-1c-10.1 0-18.3-8.2-18.3-18.3v-31C15.2 8.5 23.4.3 33.5.3h1c10.1 0 18.3 8.2 18.3 18.3v31c.1 10.1-8.2 18.3-18.3 18.3zm-.9-65.6c-9 0-16.3 7.3-16.3 16.3v31c0 9 7.3 16.3 16.3 16.3h1c9 0 16.3-7.3 16.3-16.3v-31c0-9-7.3-16.3-16.3-16.3h-1z"/><path d="M34.1 25.4c-1.2 0-2.3-1-2.3-2.2v-6.5c0-1.2 1-2.2 2.2-2.2 1.2 0 2.2 1 2.2 2.2v6.5c.1 1.2-.9 2.2-2.1 2.2z"/></symbol><symbol viewBox="0 0 309.143 309.143" id="msk76-arrow-right"><path d="M240.481 149.268L93.41 2.197a7.5 7.5 0 0 0-10.606 0L68.661 16.34a7.497 7.497 0 0 0 0 10.606l127.626 127.625L68.661 282.197a7.497 7.497 0 0 0 0 10.606l14.143 14.143a7.478 7.478 0 0 0 5.303 2.197 7.474 7.474 0 0 0 5.303-2.197l147.071-147.071a7.499 7.499 0 0 0 0-10.607z"/></symbol><symbol viewBox="0 0 512.13 512.13" id="news-view"><path d="M256.065 0C114.43 0 0 114.298 0 256.065S114.298 512.13 256.065 512.13 512.13 397.832 512.13 256.065 397.702 0 256.065 0zm0 477.892c-122.891 0-221.828-98.937-221.828-221.828S133.175 34.236 256.065 34.236s221.828 98.937 221.828 221.828-98.937 221.828-221.828 221.828z"/><path d="M368.672 239.011h-95.553v-93.86c0-10.285-6.769-17.053-17.054-17.053-10.284 0-17.054 6.769-17.054 17.053v93.86H145.15c-10.284 0-17.054 6.769-17.054 17.053 0 10.285 6.769 17.053 17.054 17.053h93.861v95.553c0 10.285 6.769 17.053 17.054 17.053 10.284 0 17.054-8.591 17.054-17.053v-95.553h95.553c8.592 0 17.054-6.769 17.054-17.053s-6.77-17.053-17.054-17.053z"/></symbol><symbol viewBox="0 0 512.001 512.001" id="orelstroy-adv-item1"><path d="M503.324 441.029H394.101v-51.792c23.851-3.208 44.99-18.104 57.282-40.687 16.331-3.733 31.167-13.188 42.142-26.947 11.914-14.937 18.476-34.027 18.476-53.754 0-30.009-15.366-57.784-39.543-72.211-2.519-50.043-41.096-89.945-88.079-89.945-14.789 0-29.422 4.025-42.316 11.64a8.434 8.434 0 0 0-2.975 11.552 8.435 8.435 0 0 0 11.553 2.975c10.298-6.082 21.964-9.296 33.738-9.296 39.263 0 71.265 35.053 71.339 78.139a8.437 8.437 0 0 0 4.626 7.512c21.132 10.695 34.785 34.102 34.785 59.633 0 32.222-21.821 60.12-50.759 64.893a8.436 8.436 0 0 0-6.225 4.66c-9.05 18.768-25.402 31.455-44.044 34.758v-74.645l41.516-38.177a8.435 8.435 0 0 0 .499-11.919 8.434 8.434 0 0 0-11.919-.499l-30.096 27.675v-56.312a8.436 8.436 0 0 0-16.872 0v102.1l-30.096-27.675a8.434 8.434 0 0 0-11.919.499 8.435 8.435 0 0 0 .499 11.919l41.517 38.177v29.252c-19.892-2.563-37.435-15.725-46.848-35.641a8.431 8.431 0 0 0-5.873-4.646c-27.992-5.947-48.308-33.038-48.308-64.419 0-24.744 12.478-47.139 32.564-58.442a8.436 8.436 0 0 0 4.298-7.455c-.002-.234-.01-.466-.018-.697-.005-.134-.01-.267-.01-.4 0-17.573 5.186-34.177 14.997-48.015a8.435 8.435 0 0 0-2.002-11.76 8.435 8.435 0 0 0-11.76 2.002c-11.177 15.764-17.381 34.439-18.045 54.212-22.878 14.919-36.894 41.492-36.894 70.556 0 37.804 24 70.734 57.638 79.942 12.661 23.845 35.055 39.276 60.263 41.746v51.492h-5.343c-1.243-22.077-16.334-41.283-37.349-47.768-6.594-14.029-19.402-24.201-34.463-27.499-4.938-22.445-25.143-39.182-48.688-39.182-18.156 0-34.619 9.758-43.395 25.29a51.51 51.51 0 0 0-41.748 24.194c-5.563-15.304-19.813-26.447-36.497-27.645V326.24c22.773-3.166 42.938-17.41 54.72-38.958 15.651-3.616 29.865-12.696 40.388-25.888 11.458-14.363 17.768-32.72 17.768-51.688 0-28.788-14.709-55.441-37.868-69.344-2.513-48.011-39.564-86.261-84.678-86.261-17.305 0-33.95 5.581-48.137 16.142a8.438 8.438 0 0 0-1.73 11.804 8.438 8.438 0 0 0 11.804 1.73c11.252-8.378 24.414-12.805 38.063-12.805 37.391 0 67.869 33.398 67.94 74.45a8.437 8.437 0 0 0 4.626 7.512c20.112 10.179 33.106 32.464 33.106 56.772 0 30.675-20.762 57.232-48.295 61.773a8.437 8.437 0 0 0-6.225 4.66c-8.545 17.72-23.924 29.748-41.484 33.008v-70.88l39.632-36.443a8.436 8.436 0 0 0-11.42-12.418l-28.212 25.942v-53.094a8.436 8.436 0 0 0-16.872 0v96.931l-28.211-25.942a8.434 8.434 0 0 0-11.919.499 8.435 8.435 0 0 0 .499 11.919l39.63 36.443v27.438c-18.756-2.566-35.272-15.047-44.167-33.865a8.431 8.431 0 0 0-5.873-4.646c-26.633-5.661-45.964-31.45-45.964-61.325 0-23.561 11.875-44.881 30.992-55.639a8.433 8.433 0 0 0 4.298-7.448 25.834 25.834 0 0 0-.017-.683c-.003-.123-.009-.245-.009-.37 0-10.434 1.923-20.524 5.715-29.989a77.696 77.696 0 0 1 3.864-8.212 8.434 8.434 0 0 0-3.374-11.442 8.432 8.432 0 0 0-11.442 3.373 94.541 94.541 0 0 0-4.707 10.006c-4.156 10.371-6.459 21.339-6.862 32.655C13.417 156.324 0 181.824 0 209.706c0 36.297 23.018 67.926 55.296 76.84 12.138 22.755 33.507 37.519 57.579 39.99v24.129a41.879 41.879 0 0 0-22.216 18.171c-20.486 1.165-37.039 16.295-40.247 36.249-15.109 6.71-26.342 20.018-30.478 35.942H8.436a8.436 8.436 0 0 0 0 16.872h494.888a8.436 8.436 0 0 0 0-16.87zm-465.697 0c4.024-10.255 12.489-18.424 23.273-21.917a8.435 8.435 0 0 0 5.833-7.776c.425-14.411 12.054-25.7 26.475-25.7.578 0 1.21.027 1.987.084a8.441 8.441 0 0 0 8.398-5.145 25.083 25.083 0 0 1 23.171-15.399c13.026 0 24.022 10.162 25.034 23.135a8.439 8.439 0 0 0 7.755 7.755c2.3.179 4.524.684 6.63 1.454l.026.011c.391.144.776.299 1.158.461l.247.106c.357.155.71.318 1.057.489.118.059.234.12.351.18.481.246.952.508 1.414.783.252.151.506.297.752.457.187.12.367.249.549.372a22.47 22.47 0 0 1 1.275.926c.326.254.648.516.961.787.087.074.174.145.26.22a25.213 25.213 0 0 1 3.432 3.723c.055.073.112.145.166.219a25.021 25.021 0 0 1 1.788 2.813c.071.13.138.263.208.395.19.363.371.733.544 1.108a25.409 25.409 0 0 1 .802 1.925l.02.052a8.437 8.437 0 0 0 6.155 5.375c.754.162 1.493.36 2.22.583.237.073.467.162.702.241.484.162.966.327 1.437.515.272.109.537.232.804.349.421.184.84.371 1.25.575.276.137.544.285.814.431a26.292 26.292 0 0 1 3.013 1.888c.251.181.499.362.743.551.349.27.687.551 1.022.836.227.193.457.385.678.585.343.312.671.637.998.964.193.193.393.382.58.582.368.391.716.799 1.061 1.209.128.153.264.297.389.452.46.574.899 1.164 1.313 1.773.087.127.162.263.246.391.319.486.63.977.919 1.482.13.229.247.467.371.7.224.418.444.837.647 1.266.126.267.238.54.355.81.178.411.35.822.508 1.242.108.288.207.579.306.871a28.282 28.282 0 0 1 .638 2.164c.107.43.201.863.288 1.299.061.304.12.608.171.916.024.143.036.288.057.432H37.627zm188.261.001v-.001c-.007-.08-.024-.159-.03-.238a43.656 43.656 0 0 0-.387-2.997l-.033-.174a44.042 44.042 0 0 0-.617-2.996c-.01-.043-.018-.086-.029-.127a44.882 44.882 0 0 0-.824-2.898c-.033-.102-.063-.207-.097-.309-.3-.918-.634-1.822-.993-2.716-.052-.129-.102-.259-.155-.387a44.024 44.024 0 0 0-1.36-2.982 45.539 45.539 0 0 0-1.34-2.482l-.217-.367a44.319 44.319 0 0 0-1.532-2.408c-.065-.096-.133-.189-.199-.283a45.52 45.52 0 0 0-1.751-2.364c-.038-.048-.079-.094-.117-.143a44.89 44.89 0 0 0-1.991-2.323l-.022-.025a45.562 45.562 0 0 0-2.13-2.155c-.064-.061-.126-.124-.19-.184a45.174 45.174 0 0 0-2.183-1.913l-.3-.249a44.743 44.743 0 0 0-2.267-1.715l-.36-.254a44.08 44.08 0 0 0-2.759-1.768 44.842 44.842 0 0 0-2.51-1.379c-.117-.06-.236-.115-.354-.173a44.367 44.367 0 0 0-2.687-1.226c-.081-.034-.163-.063-.244-.096a43.966 43.966 0 0 0-2.918-1.075l-.011-.005c-.043-.087-.092-.168-.135-.254a41.646 41.646 0 0 0-1.074-2.014c-.192-.337-.397-.666-.597-.998a38.232 38.232 0 0 0-2.184-3.249 40.587 40.587 0 0 0-.891-1.172c-.18-.225-.369-.441-.553-.661a41.842 41.842 0 0 0-2.231-2.476c-.134-.137-.262-.279-.397-.414-.386-.384-.785-.752-1.185-1.121a41.84 41.84 0 0 0-.697-.633c-.382-.336-.77-.666-1.166-.99-.288-.236-.581-.463-.875-.692-.367-.283-.731-.569-1.108-.841-.53-.384-1.072-.75-1.62-1.109-.146-.096-.285-.202-.433-.296a34.652 34.652 0 0 1 29.836-16.989c.761 0 1.587.035 2.599.109a8.434 8.434 0 0 0 8.397-5.145 32.929 32.929 0 0 1 30.422-20.218c17.103 0 31.54 13.344 32.868 30.378a8.436 8.436 0 0 0 7.755 7.754c12.867 1.003 24.021 9.498 28.417 21.643a8.437 8.437 0 0 0 6.155 5.375c15.564 3.354 27.11 16.738 28.407 32.428H225.888z"/></symbol><symbol viewBox="-41 164.9 512 512" id="orelstroy-adv-item2"><path d="M69.9 496.2c-14.1 0-25.6 11.5-25.6 25.6s11.5 25.6 25.6 25.6 25.6-11.5 25.6-25.6-11.5-25.6-25.6-25.6zm0 34.1c-4.7 0-8.5-3.8-8.5-8.5s3.8-8.5 8.5-8.5 8.5 3.8 8.5 8.5c.1 4.7-3.8 8.5-8.5 8.5z"/><path d="M411.3 240.2H-15.4c-14.1 0-25.6 11.5-25.6 25.6v238.9c0 14.1 11.5 25.6 25.6 25.6 4.7 0 8.5-3.8 8.5-8.5s-3.8-8.5-8.5-8.5-8.5-3.8-8.5-8.5v-25.6h8.5c4.7 0 8.5-3.8 8.5-8.5s-3.8-8.5-8.5-8.5h-8.5V265.8c0-4.7 3.8-8.5 8.5-8.5h366.9v17.1H1.7c-4.7 0-8.5 3.8-8.5 8.5s3.8 8.5 8.5 8.5h8.5v102.4H1.7c-4.7 0-8.5 3.8-8.5 8.5s3.8 8.5 8.5 8.5h349.9V445c0 4.7 3.8 8.5 8.5 8.5s8.5-3.8 8.5-8.5v-34.1h85.3V462h-8.5c-4.7 0-8.5 3.8-8.5 8.5s3.8 8.5 8.5 8.5h8.5v25.6c0 4.7-3.8 8.5-8.5 8.5h-26.3c-4.2-28.9-29-51.2-59.1-51.2-32.9 0-59.7 26.8-59.7 59.7 0 32.9 26.8 59.7 59.7 59.7 30 0 54.9-22.3 59.1-51.2h26.3c14.1 0 25.6-11.5 25.6-25.6V299.9c0-33.5-26.2-59.7-59.7-59.7zM95.5 393.8H27.3V291.4h68.3l-.1 102.4zm85.4 0h-68.3V291.4h68.3v102.4zm85.3 0h-68.3V291.4h68.3v102.4zm85.3 0h-68.3V291.4h68.3v102.4zm8.6 170.6c-23.5 0-42.7-19.1-42.7-42.7 0-23.5 19.1-42.7 42.7-42.7 23.5 0 42.7 19.1 42.7 42.7-.1 23.6-19.2 42.7-42.7 42.7zm93.8-170.6H425l11-21.8c2.1-4.2.4-9.3-3.8-11.4-4.2-2.1-9.3-.4-11.5 3.8L406 393.8h-37.4V257.2h42.7c24.3 0 42.7 18.3 42.7 42.7l-.1 93.9z"/><path d="M283.3 521.8c0-4.7-3.8-8.5-8.5-8.5H129c-4.2-28.9-29-51.2-59.1-51.2-32.9 0-59.7 26.8-59.7 59.7 0 32.9 26.8 59.7 59.7 59.7 30 0 54.9-22.3 59.1-51.2h145.7c4.7 0 8.6-3.8 8.6-8.5zM69.9 564.4c-23.5 0-42.7-19.1-42.7-42.7 0-23.5 19.1-42.7 42.7-42.7 23.5 0 42.7 19.1 42.7 42.7s-19.1 42.7-42.7 42.7zm290.2-68.2c-14.1 0-25.6 11.5-25.6 25.6s11.5 25.6 25.6 25.6 25.6-11.5 25.6-25.6-11.5-25.6-25.6-25.6zm0 34.1c-4.7 0-8.5-3.8-8.5-8.5s3.8-8.5 8.5-8.5 8.5 3.8 8.5 8.5-3.8 8.5-8.5 8.5zM87 598.6H-32.5c-4.7 0-8.5 3.8-8.5 8.5s3.8 8.5 8.5 8.5H87c4.7 0 8.5-3.8 8.5-8.5s-3.8-8.5-8.5-8.5zm204.8 0h-17.1c-4.7 0-8.5 3.8-8.5 8.5s3.8 8.5 8.5 8.5h17.1c4.7 0 8.5-3.8 8.5-8.5s-3.8-8.5-8.5-8.5zm170.7 0H325.9c-4.7 0-8.5 3.8-8.5 8.5s3.8 8.5 8.5 8.5h136.5c4.7 0 8.5-3.8 8.5-8.5.1-4.7-3.7-8.5-8.4-8.5zm-239 0h-85.3c-4.7 0-8.5 3.8-8.5 8.5s3.8 8.5 8.5 8.5h85.3c4.7 0 8.5-3.8 8.5-8.5.1-4.7-3.8-8.5-8.5-8.5z"/><path d="M291.8 479.1c4.7 0 8.5-3.8 8.5-8.5s-3.8-8.5-8.5-8.5H138.2c-4.7 0-8.5 3.8-8.5 8.5s3.8 8.5 8.5 8.5h153.6z"/></symbol><symbol viewBox="-41 164.9 512 512" id="orelstroy-adv-item3"><path d="M-11.4 285.9h43.1c16.3 0 29.6-10.9 29.6-24.3 0-4.3-1.4-8.5-4-12.2-2.2-3.2-7.2-4.3-11-2.4-3.9 1.8-5.2 5.9-2.9 9.1 1.2 1.7 1.8 3.6 1.8 5.5 0 6.1-6 11.1-13.5 11.1h-43.1c-7.4 0-13.5-5-13.5-11.1s6-11.1 13.5-11.1H2.3c2.9 0 5.6-1.3 7-3.3 1.4-2.1 1.4-4.6 0-6.6-1.2-1.7-1.8-3.6-1.8-5.5 0-6.1 6-11.1 13.5-11.1h107.8c7.4 0 13.5 5 13.5 11.1s-6 11.1-13.5 11.1H85.7c-4.5 0-8.1 3-8.1 6.6s3.6 6.6 8.1 6.6h43.1c16.3 0 29.6-10.9 29.6-24.3s-13.3-24.3-29.6-24.3H21c-16.3 0-29.6 10.9-29.6 24.3 0 .7 0 1.5.1 2.2h-2.8c-16.3 0-29.6 10.9-29.6 24.3-.1 13.4 13.2 24.3 29.5 24.3zm294 59.8c0 3.7 3 6.6 6.7 6.6s6.7-3 6.7-6.6c0-37.8 31.1-68.6 69.3-68.6s69.3 30.8 69.3 68.6c0 33.3-24 61.7-57.1 67.5-3.6.6-6.1 4.1-5.4 7.7.6 3.2 3.4 5.5 6.6 5.5.4 0 .8 0 1.2-.1 39.5-7 68.1-40.8 68.1-80.6 0-45.1-37.1-81.9-82.7-81.9s-82.7 36.7-82.7 81.9z"/><path d="M365.3 378.9c-6.7 0-13.1-1.9-18.6-5.6-3.1-2-7.2-1.2-9.3 1.8-2.1 3-1.2 7.2 1.8 9.2 7.7 5.1 16.7 7.8 26.1 7.8 25.9 0 46.9-20.8 46.9-46.5s-21.1-46.5-46.9-46.5c-25.9 0-46.9 20.8-46.9 46.5 0 3.7 3 6.6 6.7 6.6s6.7-3 6.7-6.6c0-18.3 15-33.2 33.5-33.2s33.5 14.9 33.5 33.2-15 33.3-33.5 33.3zm-85.6-84.1c4.5 0 8.1-3 8.1-6.6 0-3.7-3.6-6.6-8.1-6.6-7.4 0-13.5-5-13.5-11.1s6-11.1 13.5-11.1h43.1c2.4 0 4.7.5 6.7 1.5 3.9 1.8 8.8.8 11-2.4 2.2-3.2.9-7.2-2.9-9.1-4.5-2.1-9.6-3.3-14.8-3.3h-43.1c-16.3 0-29.6 10.9-29.6 24.3-.1 13.5 13.2 24.4 29.6 24.4zm118.5 172.6h-10.8c-4.5 0-8.1 3-8.1 6.6 0 3.7 3.6 6.6 8.1 6.6h10.8c4.5 0 8.1-3 8.1-6.6 0-3.7-3.6-6.6-8.1-6.6zm-194-97.4c-4.5 0-8.1 3-8.1 6.6v115.1c0 3.7 3.6 6.6 8.1 6.6s8.1-3 8.1-6.6V376.6c0-3.6-3.6-6.6-8.1-6.6zm194 123.9h-10.8c-4.5 0-8.1 3-8.1 6.6 0 3.7 3.6 6.6 8.1 6.6h10.8c4.5 0 8.1-3 8.1-6.6 0-3.6-3.6-6.6-8.1-6.6zM88.3 544.8V403.2c0-3.7-3.6-6.6-8.1-6.6s-8.1 3-8.1 6.6v141.6c0 3.7 3.6 6.6 8.1 6.6s8.1-2.9 8.1-6.6z"/><path d="M462.9 617.8h-2.7V456.3c0-8.5-8.5-15.5-18.9-15.5h-78.1V412c0-8.5-8.5-15.5-18.9-15.5H320v-19.9c0-8.5-8.5-15.5-18.9-15.5h-45.8v-19.9c0-8.5-8.5-15.5-18.9-15.5h-13.5v-46.5c0-3.7-3.6-6.6-8.1-6.6s-8.1 3-8.1 6.6v46.5H169v-11.1c0-8.5-8.5-15.5-18.9-15.5h-10.8c-10.4 0-18.9 6.9-18.9 15.5V370H53.3c-10.4 0-18.9 6.9-18.9 15.5v159.3c0 3.7 3.6 6.6 8.1 6.6s8.1-3 8.1-6.6V385.5c0-1.2 1.2-2.2 2.7-2.2h67.4v234.5H83v-37.6c0-8.5-8.5-15.5-18.9-15.5h-75.5c-10.4 0-18.9 6.9-18.9 15.5v37.6H-33c-4.5 0-8.1 3-8.1 6.6 0 3.7 3.6 6.6 8.1 6.6h334.1c4.5 0 8.1-3 8.1-6.6 0-3.7-3.6-6.6-8.1-6.6H190.7v-7.3c0-17.4 11.4-33.7 29.9-42.4 2.5-1.2 4.1-3.4 4-5.8v-.4c0-15.5 15.4-28.1 34.3-28.1 16.2 0 30.4 9.5 33.6 22.5.8 3.1 4.1 5.3 7.9 5.3h.8c32.9 0 59.7 22 59.7 49v7.3h-27.3c-4.5 0-8.1 3-8.1 6.6 0 3.7 3.6 6.6 8.1 6.6h129.3c4.5 0 8.1-3 8.1-6.6 0-3.7-3.6-6.7-8.1-6.7zm-396.1 0H-14v-37.6c0-1.2 1.2-2.2 2.7-2.2h75.5c1.5 0 2.7 1 2.7 2.2l-.1 37.6zm188.6-243.4h45.8c1.5 0 2.7 1 2.7 2.2v19.9h-48.5v-22.1zm-118.5-59.7c0-1.2 1.2-2.2 2.7-2.2h10.8c1.5 0 2.7 1 2.7 2.2v11.1h-16.2v-11.1zm307.2 303.1h-67v-7.3c0-32.9-31.2-59.8-70.5-62.1-6.9-16.5-26-28-47.7-28-26.5 0-48.2 16.8-50.3 38.1-21.1 11.5-34 31-34 51.9v7.3h-37.7V339h99.7c1.5 0 2.7 1 2.7 2.2v159.3c0 3.7 3.6 6.6 8.1 6.6s8.1-3 8.1-6.6v-90.7h88.9c1.5 0 2.7 1 2.7 2.2v132.8c0 3.7 3.6 6.6 8.1 6.6s8.1-3 8.1-6.6v-90.7h78.1c1.5 0 2.7 1 2.7 2.2v161.5z"/><path d="M398.2 520.5h-10.8c-4.5 0-8.1 3-8.1 6.6 0 3.7 3.6 6.6 8.1 6.6h10.8c4.5 0 8.1-3 8.1-6.6s-3.6-6.6-8.1-6.6zM312 423.1c-4.5 0-8.1 3-8.1 6.6v62c0 3.7 3.6 6.6 8.1 6.6s8.1-3 8.1-6.6v-62c0-3.6-3.6-6.6-8.1-6.6z"/></symbol><symbol viewBox="-271 394.9 512 512" id="orelstroy-adv-item4"><style>.st0{fill:#030104}</style><path d="M20.8 474.8c1.6-2.4 2.4-5.7 2.4-8.9v-10.6c0-8.9-7.3-17.1-17.1-17.1h-48.8c-8.9 0-17.1 7.3-17.1 17.1v10.6c0 4.1 1.6 7.3 3.3 9.8-87.8 19.5-153.7 97.6-153.7 190.3 0 107.3 87.8 195.2 195.2 195.2S180.2 773.4 180.2 666c.8-95.2-68.3-174.9-159.4-191.2zm-63.5-19.5l49.7.8v10.6s0 .8-.8.8l-49.6-.8.7-11.4zm28.5 390.4c-98.4 0-178.9-80.5-178.9-178.9s80.5-178.9 178.9-178.9 178.9 80.5 178.9 178.9S84.2 845.7-14.2 845.7z"/><path d="M-14.2 509.8c-87 0-157 70.8-157 157 0 87 70.8 157 157 157s157-70.8 157-157c0-87.1-70-157-157-157zm0 297.6c-78.1 0-140.7-63.4-140.7-140.7 0-78.1 63.4-140.7 140.7-140.7s140.7 63.4 140.7 140.7c0 78.1-62.6 140.7-140.7 140.7z"/><path d="M-88.2 665.1c0 18.7-7.3 29.3-18.7 29.3-10.6 0-17.9-9.8-17.9-28.5s8.1-28.5 18.7-28.5c11.4.1 17.9 9.8 17.9 27.7zm-30.1.8c0 14.6 4.1 22.8 11.4 22.8s11.4-8.9 11.4-22.8c0-13.8-3.3-22.8-11.4-22.8-6.5.1-11.4 7.4-11.4 22.8zm70-21.9h-21.1l-2.4 13.8h4.9c4.1 0 8.1.8 12.2 3.3s8.1 7.3 8.1 13.8c0 10.6-8.1 18.7-20.3 18.7-5.7 0-11.4-1.6-13.8-3.3l1.6-5.7c2.4 1.6 6.5 3.3 11.4 3.3 7.3 0 13-4.9 13-12.2 0-7.3-4.9-12.2-15.5-12.2-3.3 0-5.7 0-7.3.8l3.3-26h26v5.7zm28.4 14.6c0-3.3 2.4-5.7 4.9-5.7 3.3 0 4.9 2.4 4.9 5.7 0 3.3-1.6 4.9-4.9 4.9-2.4.8-4.9-1.6-4.9-4.9zm0 30.1c0-3.3 2.4-5.7 4.9-5.7 3.3 0 4.9 2.4 4.9 5.7 0 3.3-1.6 4.9-4.9 4.9-2.4 0-4.9-1.6-4.9-4.9zm71.6-23.6c0 18.7-7.3 29.3-18.7 29.3-10.6 0-17.9-9.8-17.9-28.5s8.1-28.5 18.7-28.5c11.4.1 17.9 9.8 17.9 27.7zm-30.1.8c0 14.6 4.1 22.8 11.4 22.8s11.4-8.9 11.4-22.8c0-13.8-3.3-22.8-11.4-22.8-6.5.1-11.4 7.4-11.4 22.8zm73.2-.8c0 18.7-7.3 29.3-18.7 29.3-10.6 0-17.9-9.8-17.9-28.5s8.1-28.5 18.7-28.5c11.4.1 17.9 9.8 17.9 27.7zm-29.3.8c0 14.6 4.1 22.8 11.4 22.8 7.3 0 11.4-8.9 11.4-22.8 0-13.8-3.3-22.8-11.4-22.8-6.5.1-11.4 7.4-11.4 22.8z"/></symbol><symbol viewBox="-151 275.9 512 512" id="orelstroy-adv-item5"><path d="M-37.5 348h-27.3v54.5h13.6v-13.6h13.6c11.3 0 20.4-9.2 20.4-20.4.1-11.3-9.1-20.5-20.3-20.5zm0 27.2h-13.6v-13.6h13.6c3.8 0 6.8 3.1 6.8 6.8 0 3.8-3.1 6.8-6.8 6.8z"/><path d="M207.8 675c0-37.6-30.6-68.1-68.1-68.1S71.5 637.5 71.5 675c0 22.3 10.8 42.1 27.4 54.5H-3.5v-27.3h-20.4V552.4h-13.6V429.8h31.7l23.4-54.5-23.4-54.5h-77.1l-23.4 54.5 23.4 54.5h31.7v122.6h-13.6v149.9h-20.4v27.3h-20.4v13.6h422.4v-13.6H180.3c16.6-12.5 27.5-32.3 27.5-54.6zM-73.9 416.1l-17.5-40.9 17.5-40.9h59.2l17.5 40.9-17.5 40.9h-59.2zM-51.1 566h13.6v136.3h-13.6V566zm34 163.5h-54.5v-13.6h54.5v13.6zm156.7 0c-30.1 0-54.5-24.5-54.5-54.5 0-30.1 24.5-54.5 54.5-54.5s54.5 24.5 54.5 54.5c0 30.1-24.4 54.5-54.5 54.5z"/><path d="M270.2 375.2c-27.8 0-52.2 18.8-59.3 45.7l-22 83.7h-35.6c-45.9 0-88.4 24.5-111.6 64.1l-17.8 5.9v45.8H-3.5V675h61.3v-13.6H37.4v-76.9l18.7-6.2c24.5-8.2 50.1-12.3 75.9-12.3h4.9c30 0 57.9 13.4 76.6 36.8 13.3 16.6 20.8 37.3 21.4 58.6h-13.5V675h95.3v-13.6h-68.2c-.6-24.3-9.2-48-24.5-67.1-21.3-26.7-53.1-41.9-87.3-41.9H132c-23.5 0-46.8 3.3-69.3 9.7 21.8-27.3 55.1-43.7 90.6-43.7h46.1l24.7-93.9c5.5-20.9 24.5-35.6 46.1-35.6h46.6v-13.6l-46.6-.1zM23.8 661.4H10.2v-27.3h13.6v27.3z"/><path d="M139.6 641c-18.8 0-34.1 15.3-34.1 34.1s15.3 34.1 34.1 34.1 34.1-15.3 34.1-34.1-15.3-34.1-34.1-34.1zm0 54.5c-11.3 0-20.4-9.2-20.4-20.4s9.2-20.4 20.4-20.4c11.3 0 20.4 9.2 20.4 20.4.1 11.2-9.1 20.4-20.4 20.4zm99.8-271l-20 74.9c-1.6 6.2-.4 12.6 3.5 17.7s9.8 8 16.2 8h77.7v-13.6h-77.7c-2.1 0-4.1-1-5.4-2.7-1.3-1.7-1.7-3.8-1.2-5.9l20-74.9c.8-3 3.5-5.1 6.6-5.1h57.7v-13.6h-57.7c-9.2 0-17.4 6.3-19.7 15.2z"/></symbol><symbol viewBox="442.5 242.5 75 75" id="play"><path d="M480.001 317.636c-20.678 0-37.5-16.885-37.5-37.637s16.822-37.636 37.5-37.636c20.677 0 37.5 16.883 37.5 37.636-.001 20.753-16.823 37.637-37.5 37.637zm0-73.272c-19.575 0-35.501 15.986-35.501 35.636 0 19.651 15.926 35.637 35.501 35.637 19.574 0 35.5-15.986 35.5-35.637-.001-19.65-15.927-35.636-35.5-35.636zm-8.498 51.136l23.243-13.875-23.243-14.454V295.5z"/></symbol><symbol viewBox="0 0 413.12 413.12" id="search"><path d="M289.537 49.617c-66.143-66.156-173.774-66.156-239.926 0-66.148 66.146-66.148 173.774 0 239.916 63.881 63.884 166.438 66.059 232.972 6.562l13.45 13.45c-3.351 8.578-1.596 18.678 5.325 25.604l70.973 70.973c9.334 9.334 24.465 9.329 33.789 0 9.334-9.329 9.334-24.46 0-33.794l-70.967-70.959c-6.927-6.926-17.035-8.681-25.604-5.33l-13.45-13.455c59.505-66.539 57.321-169.094-6.562-232.967zM69.888 269.269c-54.969-54.969-54.969-144.409 0-199.378 54.969-54.974 144.411-54.969 199.38 0s54.969 144.413 0 199.382-144.412 54.964-199.38-.004z"/><path d="M103.381 102.149c24.01-24.007 51.914-41.439 81.259-52.304-33.244-1.899-68.849 11.038-96.17 38.354-27.699 27.699-40.599 63.92-38.247 97.57 10.786-30.209 28.502-58.963 53.158-83.62z"/></symbol><symbol viewBox="0 0 375.795 375.795" id="zenit-filter-all"><path d="M364.053 324.635V61.498H257.919V35.136H117.877v26.361H11.743v263.138H0v16.023h375.795v-16.023h-11.742zm-218.954 0H27.767V77.521h117.332v247.114zm69.575 0h-53.552v-27.787h53.552v27.787zm0-258.141h-18.415v25.492h18.415v15.622h-18.415V133.1h18.415v15.625h-18.415v25.491h18.415v15.623h-18.415v25.492h18.415v15.624h-18.415v25.489h18.415v25.382h-53.552v-25.382h18.414v-25.489h-18.414v-15.624h18.414v-25.492h-18.414v-15.623h18.414v-25.491h-18.414V133.1h18.414v-25.492h-18.414V91.986h18.414V66.494h-18.414v-4.996h-28.224v-11.34h109.999v11.34h-28.224v4.996zm133.355 258.141H230.697V77.521h117.332v247.114z"/><path d="M246.238 94.947h34.207v27.19h-34.207zm52.044 0h34.207v27.19h-34.207zm-52.044 43.855h34.207v27.189h-34.207zm52.044 0h34.207v27.189h-34.207zm-52.044 43.856h34.207v27.191h-34.207zm52.044 0h34.207v27.191h-34.207zm-52.044 43.857h34.207v27.191h-34.207zm52.044 0h34.207v27.191h-34.207zm-52.044 43.856h34.207v27.191h-34.207zm52.044 0h34.207v27.191h-34.207zM43.308 94.947h34.207v27.19H43.308zm52.043 0h34.207v27.19H95.351zm-52.043 43.855h34.207v27.189H43.308zm52.043 0h34.207v27.189H95.351zm-52.043 43.856h34.207v27.191H43.308zm52.043 0h34.207v27.191H95.351zm-52.043 43.857h34.207v27.191H43.308zm52.043 0h34.207v27.191H95.351zm-52.043 43.856h34.207v27.191H43.308zm52.043 0h34.207v27.191H95.351z"/></symbol><symbol viewBox="0 0 40 40" id="zenit-filter-build"><path d="M13.4 4.1l5 5.1v24.6h-5V4.1M13 2.3l-.7.4v32h7v-26L13 2.3zm18.4 7.5v7h-2v-7h2m1-1h-4v9h4v-9z"/><path d="M30.605 16.635l.707.707-3.819 3.818-.707-.707zm1.45.703l.707.707-4.596 4.596-.707-.707zm1 1l.707.707-4.596 4.596-.707-.707zm.495 1.469l.707.708-3.606 3.606-.707-.707z"/><path d="M30.6 24.4c-2.2 0-3.9-1.8-3.9-3.9 0-2.2 1.8-3.9 3.9-3.9 2.2 0 3.9 1.8 3.9 3.9 0 2.2-1.8 3.9-3.9 3.9zm0-6.8c-1.6 0-2.9 1.3-2.9 2.9 0 1.6 1.3 2.9 2.9 2.9s2.9-1.3 2.9-2.9c-.1-1.6-1.4-2.9-2.9-2.9z"/><path d="M4.4 8.6h31v2.3h-31zm20 22.2h11.9v4H24.4zm4.5-6.9h3v2.9h-3zm-19 10.4h12v1.5h-12z"/><path d="M7.9 35.3h16v3h-16zM30.4 26.2l3.5 3.5h-7.1l3.6-3.5m0-1.4l-6 6h11.9l-5.9-6zM12.6 2.9l15.9 4.7H7.1l5.5-4.7m-.2-1.1l-8 6.8h31l-23-6.8z"/><path d="M13.4 4.1l5 5.1v26h-5V4.1m-1-1.8v33.9h7V8.7l-5.8-5.9-1.2-.5z"/><path d="M15.8 36.6l-.7-.7 2.5-2.6H13l-.4-.9 5-5h-4.7l-.4-.8 5.1-5.1h-4.8l-.4-.9 5.2-5.2h-4.8l-.4-.9 4.7-4.6h-4.2v-1h5.4l.3.9-4.6 4.6h4.8l.4.8-5.2 5.3h4.8l.4.8-5.1 5.1h4.7l.4.9-5 5h4.6l.4.8z"/></symbol><symbol viewBox="0 0 106.9 105.6" id="zenit-filter-buy"><path d="M68.7 61h-31V0h31v61zm-29-2h27V2h-27v57z"/><path d="M61 98.1H44.8V59H61v39.1zm-14.2-2H59V61H46.8v35.1z"/><path d="M70.6 105.3H35.7v-9.2h34.9v9.2zm-32.9-2h30.9v-5.1H37.7v5.1zM76 18.7h-9.3v-6.1h2v4.1H76z"/><path d="M90.9 105.3H66.8V11.7h25.1v47.7h-2V13.7H68.8v89.6h22.1zM45.6 11.1h4.3V15h-4.3z"/><path d="M50.9 16h-6.3v-5.9h6.3V16zm-4.3-2h2.3v-1.9h-2.3V14zm9.8-2.9h4.3V15h-4.3z"/><path d="M61.7 16h-6.3v-5.9h6.3V16zm-4.3-2h2.3v-1.9h-2.3V14zm-11.8 5.9h4.3v3.9h-4.3z"/><path d="M50.9 24.8h-6.3v-5.9h6.3v5.9zm-4.3-2h2.3v-1.9h-2.3v1.9zm9.8-2.9h4.3v3.9h-4.3z"/><path d="M61.7 24.8h-6.3v-5.9h6.3v5.9zm-4.3-2h2.3v-1.9h-2.3v1.9zm-11.8 6.1h4.3v3.9h-4.3z"/><path d="M50.9 33.8h-6.3v-5.9h6.3v5.9zm-4.3-2h2.3v-1.9h-2.3v1.9zm9.8-2.9h4.3v3.9h-4.3z"/><path d="M61.7 33.8h-6.3v-5.9h6.3v5.9zm-4.3-2h2.3v-1.9h-2.3v1.9zm-11.8 6h4.3v3.9h-4.3z"/><path d="M50.9 42.7h-6.3v-5.9h6.3v5.9zm-4.3-2h2.3v-1.9h-2.3v1.9zm9.8-2.9h4.3v3.9h-4.3z"/><path d="M61.7 42.7h-6.3v-5.9h6.3v5.9zm-4.3-2h2.3v-1.9h-2.3v1.9zm-11.8 6.1h4.3v3.9h-4.3z"/><path d="M50.9 51.7h-6.3v-5.9h6.3v5.9zm-4.3-2h2.3v-1.9h-2.3v1.9zm9.8-2.9h4.3v3.9h-4.3z"/><path d="M61.7 51.7h-6.3v-5.9h6.3v5.9zm-4.3-2h2.3v-1.9h-2.3v1.9zm20.2-27.9h4.3v3.9h-4.3z"/><path d="M82.9 26.6h-6.3v-5.9h6.3v5.9zm-4.3-2h2.3v-1.9h-2.3v1.9zm-1 6h4.3v3.9h-4.3z"/><path d="M82.9 35.4h-6.3v-5.9h6.3v5.9zm-4.3-2h2.3v-1.9h-2.3v1.9zm-1 6.2h4.3v3.9h-4.3z"/><path d="M82.9 44.4h-6.3v-5.9h6.3v5.9zm-4.3-2h2.3v-1.9h-2.3v1.9zm-1 6h4.3v3.9h-4.3z"/><path d="M82.9 53.3h-6.3v-5.9h6.3v5.9zm-4.3-2h2.3v-1.9h-2.3v1.9zm-39-32.6h-9.3v-2h7.3v-4.1h2z"/><path d="M39.6 105.3H14.4V11.7h25.1v93.6zm-23.2-2h21.1V13.7H16.4v89.6z"/><path d="M24.4 21.8h4.3v3.9h-4.3z"/><path d="M29.8 26.7h-6.3v-5.9h6.3v5.9zm-4.4-2h2.3v-1.9h-2.3v1.9zM24.4 30.6h4.3v3.9h-4.3z"/><path d="M29.8 35.5h-6.3v-5.9h6.3v5.9zm-4.4-2h2.3v-1.9h-2.3v1.9zM24.4 39.6h4.3v3.9h-4.3z"/><path d="M29.8 44.5h-6.3v-5.9h6.3v5.9zm-4.4-2h2.3v-1.9h-2.3v1.9zM24.4 48.5h4.3v3.9h-4.3z"/><path d="M29.8 53.3h-6.3v-5.9h6.3v5.9zm-4.4-2h2.3v-1.9h-2.3v1.9zM24.4 57.5h4.3v3.9h-4.3z"/><path d="M29.8 62.3h-6.3v-5.9h6.3v5.9zm-4.4-2h2.3v-1.9h-2.3v1.9zM24.4 66.2h4.3v3.9h-4.3z"/><path d="M29.8 71.1h-6.3v-5.9h6.3v5.9zm-4.4-2h2.3v-1.9h-2.3v1.9z"/><g><path d="M24.4 75.2h4.3v3.9h-4.3z"/><path d="M29.8 80.1h-6.3v-5.9h6.3v5.9zm-4.4-2h2.3v-1.9h-2.3v1.9z"/></g><g><path d="M24.4 84.1h4.3V88h-4.3z"/><path d="M29.8 88.9h-6.3V83h6.3v5.9zm-4.4-2h2.3V85h-2.3v1.9z"/></g><g><path d="M24.4 93.1h4.3V97h-4.3z"/><path d="M29.8 97.9h-6.3V92h6.3v5.9zm-4.4-2h2.3V94h-2.3v1.9z"/></g><g><path d="M-1.8 104.6h108.7m-108.7-1H107v2H-1.8z"/></g><path d="M92.6 82.3c5.4 0 9.8-4.4 9.8-9.8s-4.4-9.8-9.8-9.8h-8.1c-1 0-1.7.8-1.7 1.7v21.3h-1.7c-1 0-1.7.8-1.7 1.7s.8 1.7 1.7 1.7h1.7V99c0 1 .8 1.7 1.7 1.7 1 0 1.7-.8 1.7-1.7v-9.8h6.3c1 0 1.7-.8 1.7-1.7s-.8-1.7-1.7-1.7h-6.3v-3.5h6.4zm0-16.2c3.5 0 6.3 2.9 6.3 6.3 0 3.5-2.8 6.3-6.3 6.3h-6.3V66.1h6.3z"/></symbol><symbol viewBox="0 0 41.3 41.4" id="zenit-filter-ready"><path d="M26.1 9.8V41h4.3V7.7zM6.2 9.4v-3l10-5.8V4zm0 2.6l10-4.9v3.4l-10 4.4zm0 8.8v-3.3l10-4v3.9zm0 5.9v-3.3l10-2.9v3.9zm0 5.9v-3.3l10-1.9v3.9zm0 8.1v-5.5l10-.9v6.5zm11.3.3v-6.5l7.3.7v5.6zm0-9.6v-3.9l7.3 1.6v3.4zm0-6.9v-3.9l7.3 2.5v3.4zm0-7v-3.9l7.3 3.5v3.4zm0-6.9V7.1l7.3 4.4v3zm0-6.5V.6l7.3 5.2v3zm13.8 6.4V7.7l6.1 4.3v2.5zm0 5.4V13l6.1 3.6v2.5zm0 5.7v-3.2l6.1 2.9v2.8l-6-2.4zm0 5.8v-3.3l6.1 2.1V29zm0 5.7v-3.2l6.1 1.3V34zm0 7.9v-5.4l6.1.6v4.6z"/></symbol></svg>