<?xml version="1.0" encoding="utf-8"?><svg xmlns="http://www.w3.org/2000/svg" xmlns:xlink="http://www.w3.org/1999/xlink"><symbol viewBox="0 0 64 64" id="close"><path d="M28.941 31.786L.613 60.114a2.014 2.014 0 1 0 2.848 2.849l28.541-28.541 28.541 28.541c.394.394.909.59 1.424.59a2.014 2.014 0 0 0 1.424-3.439L35.064 31.786 63.41 3.438A2.014 2.014 0 1 0 60.562.589L32.003 29.15 3.441.59A2.015 2.015 0 0 0 .593 3.439l28.348 28.347z"/></symbol><symbol viewBox="0 0 125 125" id="eqt1"><circle cx="52.8" cy="73.5" r="50.5" fill="#ffeb7b"/><path d="M52.7 125c-13.2 0-26.3-5-36.3-15-.6-.6-.6-1.6 0-2.2.6-.6 1.6-.6 2.2 0 18.9 18.9 49.5 18.9 68.4 0 9-9.1 14-21.3 14-34.2s-5-25.1-14.2-34.2c-.6-.6-.6-1.6 0-2.2.6-.6 1.6-.6 2.2 0 9.7 9.7 15.1 22.6 15.1 36.3 0 13.7-5.3 26.6-15.1 36.3C79 120 65.9 125 52.7 125z"/><path d="M73.5 98.5H6.4c-3.6 0-6.5-2.9-6.5-6.5V18c0-1.1.1-4.4 24-9.2.4-.1.8-.5.8-.9V5.6c0-1.9 1.6-3.5 3.5-3.5h22.6c1.9 0 3.5 1.6 3.5 3.5v2.3c0 .4.4.8.7.9h.2l21.9 7h.1c1.6.6 2.8 2.4 2.8 4.1v72c0 3.7-2.9 6.6-6.5 6.6zM2.9 18.3V92c0 1.9 1.6 3.5 3.5 3.5h67.2c1.9 0 3.5-1.6 3.5-3.5V20c0-.5-.4-1.1-.9-1.3l-21.8-7c-1.7-.4-3.1-2.1-3.1-3.8V5.6c0-.3-.2-.5-.5-.5H28.1c-.3 0-.5.2-.5.5v2.3c0 1.8-1.4 3.5-3.2 3.9-9.3 1.9-20 4.8-21.5 6.5zM78.5 105H1.4c-.8 0-1.5-.7-1.5-1.5s.7-1.5 1.5-1.5h77.2c.8 0 1.5.7 1.5 1.5s-.7 1.5-1.6 1.5z"/><path d="M46.8 18.1H32.6c-.8 0-1.5-.7-1.5-1.5s.7-1.5 1.5-1.5h14.2c.8 0 1.5.7 1.5 1.5s-.7 1.5-1.5 1.5zm24.1 80.4H9.8v-68c0-3.6 2.9-6.5 6.5-6.5h48.1c3.6 0 6.5 2.9 6.5 6.5v68zm-58.1-3h55.1v-65c0-1.9-1.6-3.5-3.5-3.5H16.3c-1.9 0-3.5 1.6-3.5 3.5v65z"/><path d="M40.3 98.5c-.8 0-1.5-.7-1.5-1.5V25.5c0-.8.7-1.5 1.5-1.5s1.5.7 1.5 1.5V97c0 .8-.7 1.5-1.5 1.5zm-9-38.1c-.4 0-.8-.1-1.1-.4l-14-14c-.6-.6-.6-1.5 0-2.1s1.5-.6 2.1 0l14 14c.6.6.6 1.5 0 2.1-.2.3-.6.4-1 .4zm30 16c-.4 0-.8-.1-1.1-.4l-14-14c-.6-.6-.6-1.5 0-2.1s1.5-.6 2.1 0l14 14c.6.6.6 1.5 0 2.1-.2.3-.6.4-1 .4zm-1-16c-.4 0-.8-.1-1.1-.4l-14-14c-.6-.6-.6-1.5 0-2.1s1.5-.6 2.1 0l14 14c.6.6.6 1.5 0 2.1-.2.3-.6.4-1 .4zm-29 15c-.4 0-.8-.1-1.1-.4l-14-14c-.6-.6-.6-1.5 0-2.1s1.5-.6 2.1 0l14 14c.6.6.6 1.5 0 2.1-.2.3-.6.4-1 .4z"/></symbol><symbol viewBox="0 0 125 125" id="eqt2"><circle cx="67.8" cy="73.5" r="50.5" fill="#ffeb7b"/><path d="M67.7 125c-13.2 0-26.3-5-36.3-15-.6-.6-.6-1.6 0-2.2.6-.6 1.6-.6 2.2 0 18.9 18.9 49.5 18.9 68.4 0 9-9.1 14-21.3 14-34.2s-5-25.1-14.2-34.2c-.6-.6-.6-1.6 0-2.2.6-.6 1.6-.6 2.2 0 9.7 9.7 15.1 22.6 15.1 36.3 0 13.7-5.3 26.6-15.1 36.3C94 120 80.8 125 67.7 125z"/><path d="M36.8 104.5H7.1c-3.9 0-7.1-3.2-7.1-7.1V9.9C0 6 3.2 2.8 7.1 2.8h29.7c3.9 0 7.1 3.2 7.1 7.1v87.5c0 3.9-3.2 7.1-7.1 7.1zM7.1 5.8C4.9 5.8 3 7.7 3 9.9v87.5c0 2.3 1.8 4.1 4.1 4.1h29.7c2.3 0 4.1-1.8 4.1-4.1V9.9c0-2.3-1.8-4.1-4.1-4.1H7.1z"/><path d="M11.5 97.8c-.8 0-1.5-.7-1.5-1.5V11.5c0-.8.7-1.5 1.5-1.5s1.5.7 1.5 1.5v84.8c0 .9-.6 1.5-1.5 1.5zm10 0c-.8 0-1.5-.7-1.5-1.5V11.5c0-.8.7-1.5 1.5-1.5s1.5.7 1.5 1.5v84.8c0 .9-.6 1.5-1.5 1.5zm10 0c-.8 0-1.5-.7-1.5-1.5V11.5c0-.8.7-1.5 1.5-1.5s1.5.7 1.5 1.5v84.8c0 .9-.6 1.5-1.5 1.5zm44.4-64.1c-.8 0-1.5-.7-1.5-1.5v-1.3c0-7 0-16.7-3.3-20-.8-.8-1.7-1.2-2.9-1.2-3.4 0-6.8 5.2-9.8 9.9-3.1 4.8-5.8 8.9-9.2 8.9-4.9 0-8.4-3.7-8.4-7.1 0-.8.7-1.5 1.5-1.5s1.5.7 1.5 1.5c0 1.4 1.9 4.1 5.4 4.1 1.8 0 4.5-4.2 6.6-7.5 3.6-5.5 7.3-11.2 12.3-11.2 2 0 3.7.7 5 2 4.2 4.2 4.2 13.7 4.1 22.1v1.3c.2.8-.5 1.5-1.3 1.5z"/><path d="M78.8 48.3c-.8 0-1.5-.7-1.5-1.5V35.7c0-1.1-.9-2-2-2s-2 .9-2 2v11.1c0 .8-.7 1.5-1.5 1.5s-1.5-.7-1.5-1.5V35.7c0-2.8 2.2-5 5-5s5 2.2 5 5v11.1c0 .8-.6 1.5-1.5 1.5z"/><path d="M87.9 83.2c-.4 0-.9-.2-1.2-.6-.5-.6-.4-1.6.3-2.1 4.4-3.5 7-8.7 7-14.3 0-10-8.1-18.1-18.1-18.1s-18.1 8.1-18.1 18.1c0 5.5 2.5 10.7 6.8 14.1.6.5.7 1.5.2 2.1-.5.6-1.5.7-2.1.2-5-4-7.9-10-7.9-16.5 0-11.6 9.5-21.1 21.1-21.1S97 54.6 97 66.3c0 6.5-3 12.6-8.1 16.6-.3.2-.7.3-1 .3z"/><path d="M92.8 102.3H59.5c-3 0-5.5-2.5-5.5-5.5V86.1c0-3 2.5-5.5 5.5-5.5H64c.8 0 1.5.7 1.5 1.5s-.7 1.5-1.5 1.5h-4.5c-1.4 0-2.5 1.1-2.5 2.5v10.6c0 1.4 1.1 2.5 2.5 2.5h33.4c1.4 0 2.5-1.1 2.5-2.5V86.1c0-1.4-1.1-2.5-2.5-2.5H88c-.8 0-1.5-.7-1.5-1.5s.7-1.5 1.5-1.5h4.8c3 0 5.5 2.5 5.5 5.5v10.6c0 3.1-2.4 5.6-5.5 5.6z"/><path d="M67.9 107.4h-4.1c-1.7 0-3.2-1.4-3.2-3.2v-3.5c0-.8.7-1.5 1.5-1.5s1.5.7 1.5 1.5v3.5c0 .1.1.2.2.2h4.1c.1 0 .2-.1.2-.2v-3.5c0-.8.7-1.5 1.5-1.5s1.5.7 1.5 1.5v3.5c0 1.8-1.4 3.2-3.2 3.2zm21.1 0h-4c-1.7 0-3.2-1.4-3.2-3.2v-3.5c0-.8.7-1.5 1.5-1.5s1.5.7 1.5 1.5v3.5c0 .1.1.2.2.2h4c.1 0 .2-.1.2-.2v-3.5c0-.8.7-1.5 1.5-1.5s1.5.7 1.5 1.5v3.5c0 1.8-1.4 3.2-3.2 3.2zM75.5 80c-7.6 0-13.7-6.1-13.7-13.7s6.1-13.7 13.7-13.7 13.7 6.1 13.7 13.7S83.1 80 75.5 80zm0-24.4c-5.9 0-10.7 4.8-10.7 10.7 0 5.9 4.8 10.7 10.7 10.7 5.9 0 10.7-4.8 10.7-10.7 0-5.9-4.8-10.7-10.7-10.7z"/><path d="M86.4 73.1H64.5c-.8 0-1.5-.7-1.5-1.5s.7-1.5 1.5-1.5h21.9c.8 0 1.5.7 1.5 1.5s-.7 1.5-1.5 1.5z"/><path d="M74.9 73.1c-.2 0-.4 0-.6-.1-.8-.3-1.1-1.2-.8-2l4.7-11.2c.3-.8 1.2-1.1 2-.8.8.3 1.1 1.2.8 2l-4.7 11.1c-.2.6-.8 1-1.4 1z"/></symbol><symbol viewBox="0 0 125 125" id="eqt3"><circle cx="60.8" cy="73.5" r="50.5" fill="#ffeb7b"/><path d="M60.7 125c-13.2 0-26.3-5-36.3-15-.6-.6-.6-1.6 0-2.2.6-.6 1.6-.6 2.2 0 18.9 18.9 49.5 18.9 68.4 0 9-9.1 14-21.3 14-34.2s-5-25.1-14.2-34.2c-.6-.6-.6-1.6 0-2.2.6-.6 1.6-.6 2.2 0 9.7 9.7 15.1 22.6 15.1 36.3 0 13.7-5.3 26.6-15.1 36.3C87 120 73.8 125 60.7 125z"/><path d="M43.4 107.8c-6.9 0-18.1-8.5-26.3-16.5S0 72.2 0 65.1V19.6C0 15.9 2.9 12 8.2 12h1.5c5.8.1 21.2.4 32.9-7.9.5-.3 1.1-.4 1.7 0 14.2 8.9 28.3 8.2 33.7 8h1.5c4.1 0 7.5 3.5 7.5 7.7v45.5c-.1 12.2-31 42.5-43.6 42.5zM8.2 15C4.4 15 3 17.8 3 19.6v45.5c0 10.8 29.5 39.7 40.4 39.7s40.4-28.9 40.4-39.7V19.6c0-2.5-2.1-4.7-4.5-4.7H78c-5 .2-19.8.9-34.6-7.9-12.4 8.3-28 8-33.9 7.9-.5.1-.9.1-1.3.1z"/><path d="M43.4 94.4c-9.5 0-32.9-23-32.9-32.3V34.5c0-.6.5-1.1 1.1-1.1s1.1.5 1.1 1.1V62c0 8.1 22.3 30 30.6 30s30.6-21.9 30.6-30V27.6c0-1.9-1.6-3.5-3.4-3.5h-1c-3.8.2-15 .7-26.2-6-4.9 3.3-11.1 5.2-18.4 5.8-.6 0-1.2-.4-1.2-1-.1-.6.4-1.2 1-1.2 7.2-.6 13.3-2.5 17.9-5.8.4-.3.9-.3 1.3 0 10.7 6.7 21.5 6.2 25.5 6.1h1.1c3.1 0 5.7 2.7 5.7 5.8V62c.1 9.4-23.2 32.4-32.8 32.4z"/><path d="M50.8 75.1h-15c-4.2 0-7.6-3.4-7.6-7.6V57.2c0-4.2 3.4-7.6 7.6-7.6h15c4.2 0 7.6 3.4 7.6 7.6v10.4c0 4.1-3.4 7.5-7.6 7.5zm-15-23.3c-2.9 0-5.3 2.4-5.3 5.3v10.4c0 2.9 2.4 5.3 5.3 5.3h15c2.9 0 5.3-2.4 5.3-5.3V57.2c0-2.9-2.4-5.3-5.3-5.3h-15z"/><path d="M53.3 51.8c-.6 0-1.1-.5-1.1-1.1V38.5c0-4.9-4-8.8-8.8-8.8s-8.8 4-8.8 8.8c0 .6-.5 1.1-1.1 1.1s-1.1-.5-1.1-1.1c0-6.1 5-11.1 11.1-11.1s11.1 5 11.1 11.1v12.2c-.2.6-.7 1.1-1.3 1.1zM43.9 64c-2.7 0-4.8-2.2-4.8-4.8s2.2-4.8 4.8-4.8 4.8 2.2 4.8 4.8-2.2 4.8-4.8 4.8zm0-7.4c-1.4 0-2.6 1.2-2.6 2.6s1.2 2.6 2.6 2.6 2.6-1.2 2.6-2.6-1.2-2.6-2.6-2.6z"/><path d="M43.9 68.6c-.6 0-1.1-.5-1.1-1.1v-4.6c0-.6.5-1.1 1.1-1.1s1.1.5 1.1 1.1v4.6c0 .6-.5 1.1-1.1 1.1z"/></symbol><symbol viewBox="0 0 125 125" id="eqt4"><circle cx="70.4" cy="73.5" r="50.5" fill="#ffeb7b"/><path d="M70.3 125c-13.2 0-26.3-5-36.3-15-.6-.6-.6-1.6 0-2.2.6-.6 1.6-.6 2.2 0 18.9 18.9 49.5 18.9 68.4 0 9.1-9.1 14.2-21.3 14.2-34.2s-5-25.1-14.2-34.2c-.6-.6-.6-1.6 0-2.2.6-.6 1.6-.6 2.2 0 9.7 9.7 15.1 22.6 15.1 36.3 0 13.7-5.3 26.6-15.1 36.3C96.6 120 83.4 125 70.3 125zM6 99.5H5c-2.7 0-5-2.2-5-5v-22c0-2.7 2.2-5 5-5h2v3H5c-1.1 0-2 .9-2 2v22c0 1.1.9 2 2 2h1v3z"/><path d="M17 96.5h65.4v3H17zm77.8 3h-2.5v-3h2.5c1.1 0 2-.9 2-2v-22c0-1.1-.9-2-2-2h-2.5v-3h2.5c2.7 0 5 2.2 5 5v22c0 2.8-2.3 5-5 5zM16.9 67.6h65.7v3H16.9z"/><path d="M13.9 104.9h-4c-2.7 0-4.9-2.2-4.9-4.9V67.9C5 65.2 7.2 63 9.9 63h4c2.7 0 4.9 2.2 4.9 4.9v32.2c0 2.6-2.2 4.8-4.9 4.8zM9.9 66c-1 0-1.9.8-1.9 1.9v32.2c0 1 .8 1.9 1.9 1.9h4c1 0 1.9-.8 1.9-1.9V67.9c0-1-.8-1.9-1.9-1.9h-4zm79.5 38.9h-4c-2.7 0-4.9-2.2-4.9-4.9V67.9c0-2.7 2.2-4.9 4.9-4.9h4c2.7 0 4.9 2.2 4.9 4.9v32.2c0 2.6-2.2 4.8-4.9 4.8zm-4-38.9c-1 0-1.9.8-1.9 1.9v32.2c0 1 .8 1.9 1.9 1.9h4c1 0 1.9-.8 1.9-1.9V67.9c0-1-.8-1.9-1.9-1.9h-4zm-7.8 3.1h-3v-5.9c0-1-.8-1.9-1.9-1.9H25.5c-1 0-1.9.8-1.9 1.9v5.9h-3v-5.9c0-2.7 2.2-4.9 4.9-4.9h47.3c2.7 0 4.9 2.2 4.9 4.9v5.9z"/><path d="M72.3 59.8h-3v-2.7c0-.9-.7-1.6-1.6-1.6H31.3c-.9 0-1.6.7-1.6 1.6v2.7h-3v-2.7c0-2.5 2.1-4.6 4.6-4.6h36.4c2.5 0 4.6 2.1 4.6 4.6v2.7z"/><path d="M60.4 54h-3v-9.2c0-1.2-.9-2.1-2.1-2.1H43.9c-1.2 0-2.1.9-2.1 2.1V54h-3v-9.2c0-2.8 2.3-5.1 5.1-5.1h11.4c2.8 0 5.1 2.3 5.1 5.1V54z"/><path d="M51.6 25.1h3v16.1h-3zm3-11.9h-3V6.9c0-.4-.3-.8-.8-.8h-3.5c-.4 0-.8.3-.8.8V13h-3V6.9c0-2.1 1.7-3.8 3.8-3.8h3.5c2.1 0 3.8 1.7 3.8 3.8v6.3zm-11 11.9h3v16.1h-3z"/><path d="M58.9 34c-1.8 0-2.1-1.8-2.3-2.9-.4-2.3-1-5.2-7.5-5.2-7.2 0-7.8 3.8-8.1 5.8-.1.7-.3 2.3-1.8 2.3h-11c-5.2 0-9.5-4.3-9.5-9.5V14.3c0-5.2 4.3-9.5 9.5-9.5h10.9v3H28.2c-3.6 0-6.5 2.9-6.5 6.5v10.2c0 3.6 2.9 6.5 6.5 6.5h9.9c.4-2.3 1.6-8.1 11-8.1 8.9 0 9.9 5.2 10.4 7.6.1.3.1.8.2.9-.1-.2-.4-.5-.8-.5V34z"/><path d="M71.4 34H58.9v-3h12.5c3.6 0 6.5-2.9 6.5-6.5V14.3c0-3.6-2.9-6.5-6.5-6.5H58.9v-3h12.5c5.2 0 9.5 4.3 9.5 9.5v10.2c0 5.2-4.3 9.5-9.5 9.5z"/><path d="M49.6 15.1c-8.3 0-10.5-5.3-11.3-7.3-.1-.2-.2-.4-.2-.5.1.2.5.6 1.1.6v-3c1.2 0 1.6 1 1.9 1.8.8 1.9 2.2 5.5 8.5 5.5 6.2 0 7.1-3.5 7.6-5.3.2-.7.5-2 1.8-2v3c.7 0 1.1-.4 1.2-.8 0 .1-.1.3-.1.4-.5 1.9-2 7.6-10.5 7.6z"/></symbol><symbol viewBox="0 0 125 125" id="eqt5"><circle cx="50.8" cy="73.6" r="50.5" fill="#ffeb7b"/><path d="M54.3 6c9.4 0 17 7.6 17 17v45.6c0 9.4-7.6 17-17 17h-34c-9.4 0-17-7.6-17-17V23c0-9.4 7.6-17 17-17h34m0-3h-34c-11 0-20 9-20 20v45.6c0 11 9 20 20 20h34c11 0 20-9 20-20V23c0-11-9-20-20-20z"/><path d="M37.6 24c7 0 12.8 5.7 12.8 12.8s-5.7 12.8-12.8 12.8-12.8-5.7-12.8-12.8S30.6 24 37.6 24m0-3c-8.7 0-15.8 7.1-15.8 15.8s7.1 15.8 15.8 15.8 15.8-7.1 15.8-15.8S46.3 21 37.6 21z"/><path d="M36 38.3c-.4 0-.9-.2-1.1-.5-.5-.6-.5-1.6.2-2.1l7.3-6.1c.6-.5 1.6-.5 2.1.2.5.6.5 1.6-.2 2.1l-7.3 6c-.3.2-.7.4-1 .4zm-25.5-8.7H1.9c-.8 0-1.5-.7-1.5-1.5s.7-1.5 1.5-1.5h8.6c.8 0 1.5.7 1.5 1.5s-.7 1.5-1.5 1.5zm0 8H1.9c-.8 0-1.5-.7-1.5-1.5s.7-1.5 1.5-1.5h8.6c.8 0 1.5.7 1.5 1.5s-.7 1.5-1.5 1.5zm0 8H1.9c-.8 0-1.5-.7-1.5-1.5s.7-1.5 1.5-1.5h8.6c.8 0 1.5.7 1.5 1.5s-.7 1.5-1.5 1.5zm62-16h-8.6c-.8 0-1.5-.7-1.5-1.5s.7-1.5 1.5-1.5h8.6c.8 0 1.5.7 1.5 1.5s-.7 1.5-1.5 1.5zm0 8h-8.6c-.8 0-1.5-.7-1.5-1.5s.7-1.5 1.5-1.5h8.6c.8 0 1.5.7 1.5 1.5s-.7 1.5-1.5 1.5zm0 8h-8.6c-.8 0-1.5-.7-1.5-1.5s.7-1.5 1.5-1.5h8.6c.8 0 1.5.7 1.5 1.5s-.7 1.5-1.5 1.5zM51.8 77.4H24.3c-.8 0-1.5-.7-1.5-1.5s.7-1.5 1.5-1.5h27.5c.8 0 1.5.7 1.5 1.5s-.7 1.5-1.5 1.5zm10.3-7c-3.4 0-5.4-2.5-7.2-4.7-1.4-1.8-2.7-3.3-4.4-3.3-2 0-3.7 1.8-5.5 3.7-2 2.1-4.1 4.3-7 4.3-3.1 0-5.3-2.4-7.3-4.5-1.7-1.8-3.4-3.5-5.2-3.5-1.8 0-3.3 1.6-5 3.4-2.1 2.2-4.4 4.6-7.9 4.6-3.4 0-5.7-2.6-7.6-4.7-1.1-1.2-2.3-2.6-3.1-2.6-.8 0-1.5-.7-1.5-1.5s.7-1.5 1.5-1.5c2.1 0 3.7 1.7 5.4 3.6 1.6 1.8 3.4 3.7 5.4 3.7 2.2 0 3.9-1.8 5.7-3.7 2-2.1 4.1-4.3 7.2-4.3s5.3 2.4 7.3 4.5c1.7 1.8 3.4 3.5 5.2 3.5 1.6 0 3.2-1.6 4.8-3.4 2-2.2 4.4-4.6 7.7-4.6 3.2 0 5.1 2.4 6.8 4.5 1.5 1.9 2.9 3.5 4.8 3.5 2.2 0 4-2.3 5.5-4.3 1.5-1.9 2.9-3.7 4.8-3.7.8 0 1.5.7 1.5 1.5s-.7 1.5-1.5 1.5c-.5 0-1.7 1.6-2.5 2.6-1.9 2.4-4.2 5.4-7.9 5.4zm-35.7 33.9h-5.1c-1.9 0-3.5-1.6-3.5-3.5v-3.3c0-.1-.1-.3-.1-.4l-3.6-3.6c-.7-.7-1-1.5-1-2.5v-5h3v5c0 .1.1.3.1.4l3.6 3.6c.7.7 1 1.5 1 2.5v3.3c0 .3.2.5.5.5h5.1c.3 0 .5-.2.5-.5v-3.4c0-.9.4-1.8 1-2.5l3.5-3.5c.1-.1.1-.2.1-.4v-4h3v4c0 .9-.4 1.8-1 2.5L30.1 97c-.1.1-.1.2-.1.4v3.4c-.1 1.9-1.6 3.5-3.6 3.5zm26.6 0h-5.1c-1.9 0-3.5-1.6-3.5-3.5v-3.4c0-.1-.1-.3-.1-.4l-3.5-3.5c-.7-.7-1-1.5-1-2.5v-4h3v4c0 .1.1.3.1.4l3.5 3.5c.7.7 1 1.5 1 2.5v3.4c0 .3.2.5.5.5H53c.3 0 .5-.2.5-.5v-3.3c0-.9.4-1.8 1-2.5l3.6-3.6c.1-.1.1-.2.1-.4v-5h3v5c0 .9-.4 1.8-1 2.5l-3.6 3.6c-.1.1-.1.2-.1.4v3.3c0 1.9-1.6 3.5-3.5 3.5z"/><path d="M50.7 125.1c-13.2 0-26.3-5-36.3-15-.6-.6-.6-1.6 0-2.2.6-.6 1.6-.6 2.2 0 18.9 18.9 49.5 18.9 68.4 0 9-9.1 14-21.2 14-34.1s-5-25.1-14.2-34.2c-.6-.6-.6-1.6 0-2.2.6-.6 1.6-.6 2.2 0 9.7 9.7 15.1 22.6 15.1 36.3 0 13.7-5.3 26.6-15.1 36.3-10 10.1-23.1 15.1-36.3 15.1z"/></symbol><symbol viewBox="0 0 125 125" id="eqt6"><circle cx="60.2" cy="73.5" r="50.5" fill="#ffeb7b"/><path d="M60.1 125c-13.2 0-26.3-5-36.3-15-.6-.6-.6-1.6 0-2.2.6-.6 1.6-.6 2.2 0 18.9 18.9 49.5 18.9 68.4 0 9.1-9.1 14.2-21.3 14.2-34.2s-5-25.1-14.2-34.2c-.6-.6-.6-1.6 0-2.2.6-.6 1.6-.6 2.2 0 9.7 9.7 15.1 22.6 15.1 36.3 0 13.7-5.3 26.6-15.1 36.3C86.5 120 73.3 125 60.1 125z"/><path d="M80.1 6.2c1.1 0 2 .9 2 2V84c0 1.1-.9 2-2 2H11c-1.1 0-2-.9-2-2V8.2c0-1.1.9-2 2-2h69.1m0-3H11c-2.8 0-5 2.3-5 5V84c0 2.8 2.3 5 5 5h69.2c2.8 0 5-2.3 5-5V8.2c-.1-2.7-2.3-5-5.1-5z"/><path d="M80.1 89.1h-3V14.6c0-1.6-1.3-2.9-2.9-2.9H16.9c-1.6 0-2.9 1.3-2.9 2.9V89h-3V14.6c0-3.3 2.7-5.9 5.9-5.9h57.3c3.3 0 5.9 2.7 5.9 5.9v74.5z"/><path d="M44.2 10.2h2.6V89h-2.6z"/><path d="M12.5 48.3h67v2.6h-67zM19.7 28c-.4 0-.8-.1-1.1-.4-.6-.6-.6-1.5 0-2.1l9.6-9.6c.6-.6 1.5-.6 2.1 0 .6.6.6 1.5 0 2.1l-9.6 9.6c-.2.2-.6.4-1 .4zm.2 9.4c-.4 0-.8-.1-1.1-.4-.6-.6-.6-1.5 0-2.1l9.4-9.4c.6-.6 1.5-.6 2.1 0 .6.6.6 1.5 0 2.1L21 36.9c-.3.3-.7.5-1.1.5zm13.5-12.9c-.4 0-.8-.1-1.1-.4-.6-.6-.6-1.5 0-2.1l5.1-5.1c.6-.6 1.5-.6 2.1 0 .6.6.6 1.5 0 2.1l-5 5c-.3.3-.7.5-1.1.5zm28.5 58.9c-.4 0-.8-.1-1.1-.4-.6-.6-.6-1.5 0-2.1l9.6-9.6c.6-.6 1.5-.6 2.1 0s.6 1.5 0 2.1L62.9 83c-.3.2-.6.4-1 .4zm0-9.6c-.4 0-.8-.1-1.1-.4-.6-.6-.6-1.5 0-2.1l9.4-9.4c.6-.6 1.5-.6 2.1 0 .6.6.6 1.5 0 2.1l-9.4 9.4c-.3.2-.6.4-1 .4zm-9.2 8.6c-.4 0-.8-.1-1.1-.4-.6-.6-.6-1.5 0-2.1l5.1-5.1c.6-.6 1.5-.6 2.1 0s.6 1.5 0 2.1L53.7 82c-.2.2-.6.4-1 .4zM84.5 98h-79c-3 0-5.5-2.5-5.5-5.5V85c0-.8.7-1.5 1.5-1.5S3 84.1 3 85v7.5C3 93.9 4.1 95 5.5 95h79c1.4 0 2.5-1.1 2.5-2.5V85c0-.8.7-1.5 1.5-1.5s1.5.6 1.5 1.5v7.5c0 3-2.5 5.5-5.5 5.5z"/><path d="M16.9 105.2H11c-1.9 0-3.5-1.6-3.5-3.5v-5.3c0-.8.7-1.4 1.5-1.4s1.5.7 1.5 1.5v5.3c0 .3.2.5.5.5h5.8c.3 0 .5-.2.5-.5v-5.3c0-.8.7-1.5 1.5-1.5s1.5.7 1.5 1.5v5.3c.1 1.9-1.5 3.4-3.4 3.4zm62 0H73c-1.9 0-3.5-1.6-3.5-3.5v-5.3c0-.8.7-1.5 1.5-1.5s1.5.7 1.5 1.5v5.3c0 .3.2.5.5.5h5.8c.3 0 .5-.2.5-.5v-5.3c0-.8.7-1.5 1.5-1.5s1.5.7 1.5 1.5v5.3c.1 2-1.5 3.5-3.4 3.5z"/></symbol><symbol viewBox="0 0 125 125" id="eqt7"><circle cx="66.6" cy="73.5" r="50.5" fill="#ffeb7b"/><path d="M66.5 125c-13.2 0-26.3-5-36.3-15-.6-.6-.6-1.6 0-2.2.6-.6 1.6-.6 2.2 0 18.9 18.9 49.5 18.9 68.4 0 9.1-9.1 14.2-21.3 14.2-34.2s-5-25.1-14.2-34.2c-.6-.6-.6-1.6 0-2.2.6-.6 1.6-.6 2.2 0 9.7 9.7 15.1 22.6 15.1 36.3 0 13.7-5.3 26.6-15.1 36.3C92.8 120 79.6 125 66.5 125z"/><path d="M106.9 59.5H-.2l33.3-19.3h41.7l32.1 19.3zm-96-3h85.2L73.9 43.2h-40l-23 13.3z"/><path d="M72 41.7h-3v-4.5c0-.3-.2-.5-.5-.5H38.8c-.3 0-.5.2-.5.5v4.5h-3v-4.5c0-1.9 1.6-3.5 3.5-3.5h29.7c1.9 0 3.5 1.6 3.5 3.5v4.5z"/><path d="M65 36.7H41.3v-9.8H65v9.8zm-20.7-3H62v-3.8H44.3v3.8z"/><path d="M65.3 29.8H41.2c-1.9 0-3.5-1.6-3.5-3.5v-3.2c0-1.9 1.6-3.5 3.5-3.5h24.2c1.9 0 3.5 1.6 3.5 3.5v3.2c-.1 2-1.6 3.5-3.6 3.5zm-24.1-7.1c-.3 0-.5.2-.5.5v3.2c0 .3.2.5.5.5h24.2c.3 0 .5-.2.5-.5v-3.2c0-.3-.2-.5-.5-.5H41.2z"/><path d="M60.2 21.2h-3V16c0-.3-.2-.5-.5-.5h-6.3c-.3 0-.5.2-.5.5v5.2h-3V16c0-1.9 1.6-3.5 3.5-3.5h6.3c1.9 0 3.5 1.6 3.5 3.5v5.2zm-7 69.1c-.8 0-1.5-.7-1.5-1.5V58c0-.8.7-1.5 1.5-1.5s1.5.7 1.5 1.5v30.8c0 .9-.7 1.5-1.5 1.5z"/><path d="M57.1 91.2h-.4c-.8 0-1.5-.7-1.4-1.6 0-.8.7-1.5 1.6-1.4 1.1 0 1.9-.2 2.3-.6.1-.1.4-.4.4-1.1 0-.6 0-2-6.4-2-6.2 0-9.4-1.7-9.4-5.2 0-5.1 5.4-5.7 9.5-5.7 6.3 0 6.3-2.4 6.3-3.2 0-2.3-4-2.7-6.3-2.7-3.5 0-5.6-.6-6.9-1.8-1.6-1.6-1.6-4-1.6-7.3v-.7c0-.8.7-1.5 1.5-1.5s1.5.7 1.5 1.5v.7c0 2.6 0 4.4.8 5.2.6.6 2.2 1 4.7 1 8.1 0 9.3 3.6 9.3 5.7 0 2.3-1.2 6.2-9.3 6.2-6.5 0-6.5 1.9-6.5 2.7 0 1.9 4 2.2 6.4 2.2 3.1 0 9.4 0 9.4 5 0 1.7-.7 2.7-1.3 3.3-1.1.8-2.5 1.3-4.2 1.3zm-3.9-75.7c-.8 0-1.5-.7-1.5-1.5V2c0-.8.7-1.5 1.5-1.5s1.5.7 1.5 1.5v12c0 .8-.7 1.5-1.5 1.5z"/><path d="M67.4 59.7l4.3 22.2c-.2 10.1-8.4 18.2-18.5 18.2S34.9 92 34.7 81.9l4.6-22.2h28.1m2.5-3.1h-33l-5.2 25c0 11.9 9.7 21.6 21.6 21.6 11.9 0 21.6-9.7 21.6-21.6l-5-25z"/></symbol><symbol viewBox="0 0 125 125" id="eqt8"><circle cx="61.5" cy="73.5" r="50.5" fill="#ffeb7b"/><path d="M61.4 125c-13.2 0-26.3-5-36.3-15-.6-.6-.6-1.6 0-2.2.6-.6 1.6-.6 2.2 0 18.9 18.9 49.5 18.9 68.4 0 9.1-9.1 14.2-21.3 14.2-34.2s-5-25.1-14.2-34.2c-.6-.6-.6-1.6 0-2.2.6-.6 1.6-.6 2.2 0 9.7 9.7 15.1 22.6 15.1 36.3 0 13.7-5.3 26.6-15.1 36.3C87.8 120 74.6 125 61.4 125z"/><path d="M69.7 79.2H37.6c-8.4 0-15.2-8.3-15.2-15.2V26.3h61.1v37.2c.1 8.9-8.4 15.7-13.8 15.7zM25.4 29.3V64c0 4.8 5.2 12.2 12.2 12.2h32.1c3.7 0 10.9-5.4 10.9-12.7V29.3H25.4z"/><path d="M58.9 89.1h-10c-2.5 0-4.5-2-4.5-4.5v-8.4h19v8.4c0 2.5-2 4.5-4.5 4.5zm-11.5-9.9v5.4c0 .8.7 1.5 1.5 1.5h10c.8 0 1.5-.7 1.5-1.5v-5.4h-13zM23.9 39.3H82v3H23.9zM49.5 53h-3.6v3.7h3.6V53zm6.3 0h-3.6v3.7h3.6V53zm6.1 0h-3.6v3.7h3.6V53zM41.4 29.3h-11V6.5c0-3 2.5-5.5 5.5-5.5h.1c3 0 5.5 2.5 5.5 5.5v22.8zm-8-3h5.1V6.5C38.5 5.1 37.4 4 36 4h-.1c-1.4 0-2.5 1.1-2.5 2.5v19.8zm41 1.5h-3V6.5c0-1.4-1.1-2.5-2.5-2.5s-2.6 1.1-2.6 2.5v21.3h-3V6.5c0-3 2.5-5.5 5.5-5.5 3.1 0 5.6 2.5 5.6 5.5v21.3z"/><path d="M37.5 105.5c-12.9 0-16.9-12.4-16.9-16.9 0-3.3-2.9-4.4-4.4-4.4H1.5c-.8 0-1.5-.7-1.5-1.5s.7-1.5 1.5-1.5h14.8c3.1 0 7.4 2.3 7.4 7.4 0 3.7 3.3 13.9 13.9 13.9 11.7 0 14.9-3.2 14.9-14.9 0-.8.7-1.5 1.5-1.5s1.5.7 1.5 1.5c-.1 13.4-4.6 17.9-18 17.9z"/></symbol><symbol viewBox="-943 160.5 31.5 31.5" id="lp-enerfit-arrow-left"><path d="M-942.7 175.5c-.4.4-.4 1.1 0 1.6l10 10c.4.4 1.1.4 1.6 0 .4-.4.4-1.1 0-1.6l-8-8h26.6c.6 0 1.1-.5 1.1-1.1s-.5-1.1-1.1-1.1h-26.6l8-8c.4-.4.4-1.1 0-1.6-.4-.4-1.2-.4-1.6 0l-10 9.8z"/></symbol><symbol viewBox="0 0 31.49 31.49" id="lp-enerfit-arrow-right"><path d="M21.205 5.007a1.112 1.112 0 0 0-1.587 0 1.12 1.12 0 0 0 0 1.571l8.047 8.047H1.111A1.106 1.106 0 0 0 0 15.737c0 .619.492 1.127 1.111 1.127h26.554l-8.047 8.032c-.429.444-.429 1.159 0 1.587a1.112 1.112 0 0 0 1.587 0l9.952-9.952a1.093 1.093 0 0 0 0-1.571l-9.952-9.953z"/></symbol><symbol viewBox="-120.8 125.1 12.2 11.8" id="lp-zenit-arrow-bottom"><path d="M-108.7 129.4v-1.6l-6.1 5.4-6-5.4v1.6l6 5.4z"/></symbol><symbol viewBox="-123.2 125 12.6 12.1" id="lp-zenit-arrow-left"><path d="M-115 137.1h1.6l-5.4-6.1 5.4-6h-1.6l-5.4 6z"/></symbol><symbol viewBox="-123.2 125 12.6 12.1" id="lp-zenit-arrow-right"><path d="M-118.8 125h-1.6l5.4 6.1-5.4 6h1.6l5.4-6z"/></symbol><symbol viewBox="0 0 68.1 68.1" id="mouse"><path d="M34.5 67.9h-1c-10.1 0-18.3-8.2-18.3-18.3v-31C15.2 8.5 23.4.3 33.5.3h1c10.1 0 18.3 8.2 18.3 18.3v31c.1 10.1-8.2 18.3-18.3 18.3zm-.9-65.6c-9 0-16.3 7.3-16.3 16.3v31c0 9 7.3 16.3 16.3 16.3h1c9 0 16.3-7.3 16.3-16.3v-31c0-9-7.3-16.3-16.3-16.3h-1z"/><path d="M34.1 25.4c-1.2 0-2.3-1-2.3-2.2v-6.5c0-1.2 1-2.2 2.2-2.2 1.2 0 2.2 1 2.2 2.2v6.5c.1 1.2-.9 2.2-2.1 2.2z"/></symbol><symbol viewBox="0 0 309.143 309.143" id="msk76-arrow-right"><path d="M240.481 149.268L93.41 2.197a7.5 7.5 0 0 0-10.606 0L68.661 16.34a7.497 7.497 0 0 0 0 10.606l127.626 127.625L68.661 282.197a7.497 7.497 0 0 0 0 10.606l14.143 14.143a7.478 7.478 0 0 0 5.303 2.197 7.474 7.474 0 0 0 5.303-2.197l147.071-147.071a7.499 7.499 0 0 0 0-10.607z"/></symbol><symbol viewBox="0 0 512.13 512.13" id="news-view"><path d="M256.065 0C114.43 0 0 114.298 0 256.065S114.298 512.13 256.065 512.13 512.13 397.832 512.13 256.065 397.702 0 256.065 0zm0 477.892c-122.891 0-221.828-98.937-221.828-221.828S133.175 34.236 256.065 34.236s221.828 98.937 221.828 221.828-98.937 221.828-221.828 221.828z"/><path d="M368.672 239.011h-95.553v-93.86c0-10.285-6.769-17.053-17.054-17.053-10.284 0-17.054 6.769-17.054 17.053v93.86H145.15c-10.284 0-17.054 6.769-17.054 17.053 0 10.285 6.769 17.053 17.054 17.053h93.861v95.553c0 10.285 6.769 17.053 17.054 17.053 10.284 0 17.054-8.591 17.054-17.053v-95.553h95.553c8.592 0 17.054-6.769 17.054-17.053s-6.77-17.053-17.054-17.053z"/></symbol><symbol viewBox="0 0 512.001 512.001" id="orelstroy-adv-item1"><path d="M503.324 441.029H394.101v-51.792c23.851-3.208 44.99-18.104 57.282-40.687 16.331-3.733 31.167-13.188 42.142-26.947 11.914-14.937 18.476-34.027 18.476-53.754 0-30.009-15.366-57.784-39.543-72.211-2.519-50.043-41.096-89.945-88.079-89.945-14.789 0-29.422 4.025-42.316 11.64a8.434 8.434 0 0 0-2.975 11.552 8.435 8.435 0 0 0 11.553 2.975c10.298-6.082 21.964-9.296 33.738-9.296 39.263 0 71.265 35.053 71.339 78.139a8.437 8.437 0 0 0 4.626 7.512c21.132 10.695 34.785 34.102 34.785 59.633 0 32.222-21.821 60.12-50.759 64.893a8.436 8.436 0 0 0-6.225 4.66c-9.05 18.768-25.402 31.455-44.044 34.758v-74.645l41.516-38.177a8.435 8.435 0 0 0 .499-11.919 8.434 8.434 0 0 0-11.919-.499l-30.096 27.675v-56.312a8.436 8.436 0 0 0-16.872 0v102.1l-30.096-27.675a8.434 8.434 0 0 0-11.919.499 8.435 8.435 0 0 0 .499 11.919l41.517 38.177v29.252c-19.892-2.563-37.435-15.725-46.848-35.641a8.431 8.431 0 0 0-5.873-4.646c-27.992-5.947-48.308-33.038-48.308-64.419 0-24.744 12.478-47.139 32.564-58.442a8.436 8.436 0 0 0 4.298-7.455c-.002-.234-.01-.466-.018-.697-.005-.134-.01-.267-.01-.4 0-17.573 5.186-34.177 14.997-48.015a8.435 8.435 0 0 0-2.002-11.76 8.435 8.435 0 0 0-11.76 2.002c-11.177 15.764-17.381 34.439-18.045 54.212-22.878 14.919-36.894 41.492-36.894 70.556 0 37.804 24 70.734 57.638 79.942 12.661 23.845 35.055 39.276 60.263 41.746v51.492h-5.343c-1.243-22.077-16.334-41.283-37.349-47.768-6.594-14.029-19.402-24.201-34.463-27.499-4.938-22.445-25.143-39.182-48.688-39.182-18.156 0-34.619 9.758-43.395 25.29a51.51 51.51 0 0 0-41.748 24.194c-5.563-15.304-19.813-26.447-36.497-27.645V326.24c22.773-3.166 42.938-17.41 54.72-38.958 15.651-3.616 29.865-12.696 40.388-25.888 11.458-14.363 17.768-32.72 17.768-51.688 0-28.788-14.709-55.441-37.868-69.344-2.513-48.011-39.564-86.261-84.678-86.261-17.305 0-33.95 5.581-48.137 16.142a8.438 8.438 0 0 0-1.73 11.804 8.438 8.438 0 0 0 11.804 1.73c11.252-8.378 24.414-12.805 38.063-12.805 37.391 0 67.869 33.398 67.94 74.45a8.437 8.437 0 0 0 4.626 7.512c20.112 10.179 33.106 32.464 33.106 56.772 0 30.675-20.762 57.232-48.295 61.773a8.437 8.437 0 0 0-6.225 4.66c-8.545 17.72-23.924 29.748-41.484 33.008v-70.88l39.632-36.443a8.436 8.436 0 0 0-11.42-12.418l-28.212 25.942v-53.094a8.436 8.436 0 0 0-16.872 0v96.931l-28.211-25.942a8.434 8.434 0 0 0-11.919.499 8.435 8.435 0 0 0 .499 11.919l39.63 36.443v27.438c-18.756-2.566-35.272-15.047-44.167-33.865a8.431 8.431 0 0 0-5.873-4.646c-26.633-5.661-45.964-31.45-45.964-61.325 0-23.561 11.875-44.881 30.992-55.639a8.433 8.433 0 0 0 4.298-7.448 25.834 25.834 0 0 0-.017-.683c-.003-.123-.009-.245-.009-.37 0-10.434 1.923-20.524 5.715-29.989a77.696 77.696 0 0 1 3.864-8.212 8.434 8.434 0 0 0-3.374-11.442 8.432 8.432 0 0 0-11.442 3.373 94.541 94.541 0 0 0-4.707 10.006c-4.156 10.371-6.459 21.339-6.862 32.655C13.417 156.324 0 181.824 0 209.706c0 36.297 23.018 67.926 55.296 76.84 12.138 22.755 33.507 37.519 57.579 39.99v24.129a41.879 41.879 0 0 0-22.216 18.171c-20.486 1.165-37.039 16.295-40.247 36.249-15.109 6.71-26.342 20.018-30.478 35.942H8.436a8.436 8.436 0 0 0 0 16.872h494.888a8.436 8.436 0 0 0 0-16.87zm-465.697 0c4.024-10.255 12.489-18.424 23.273-21.917a8.435 8.435 0 0 0 5.833-7.776c.425-14.411 12.054-25.7 26.475-25.7.578 0 1.21.027 1.987.084a8.441 8.441 0 0 0 8.398-5.145 25.083 25.083 0 0 1 23.171-15.399c13.026 0 24.022 10.162 25.034 23.135a8.439 8.439 0 0 0 7.755 7.755c2.3.179 4.524.684 6.63 1.454l.026.011c.391.144.776.299 1.158.461l.247.106c.357.155.71.318 1.057.489.118.059.234.12.351.18.481.246.952.508 1.414.783.252.151.506.297.752.457.187.12.367.249.549.372a22.47 22.47 0 0 1 1.275.926c.326.254.648.516.961.787.087.074.174.145.26.22a25.213 25.213 0 0 1 3.432 3.723c.055.073.112.145.166.219a25.021 25.021 0 0 1 1.788 2.813c.071.13.138.263.208.395.19.363.371.733.544 1.108a25.409 25.409 0 0 1 .802 1.925l.02.052a8.437 8.437 0 0 0 6.155 5.375c.754.162 1.493.36 2.22.583.237.073.467.162.702.241.484.162.966.327 1.437.515.272.109.537.232.804.349.421.184.84.371 1.25.575.276.137.544.285.814.431a26.292 26.292 0 0 1 3.013 1.888c.251.181.499.362.743.551.349.27.687.551 1.022.836.227.193.457.385.678.585.343.312.671.637.998.964.193.193.393.382.58.582.368.391.716.799 1.061 1.209.128.153.264.297.389.452.46.574.899 1.164 1.313 1.773.087.127.162.263.246.391.319.486.63.977.919 1.482.13.229.247.467.371.7.224.418.444.837.647 1.266.126.267.238.54.355.81.178.411.35.822.508 1.242.108.288.207.579.306.871a28.282 28.282 0 0 1 .638 2.164c.107.43.201.863.288 1.299.061.304.12.608.171.916.024.143.036.288.057.432H37.627zm188.261.001v-.001c-.007-.08-.024-.159-.03-.238a43.656 43.656 0 0 0-.387-2.997l-.033-.174a44.042 44.042 0 0 0-.617-2.996c-.01-.043-.018-.086-.029-.127a44.882 44.882 0 0 0-.824-2.898c-.033-.102-.063-.207-.097-.309-.3-.918-.634-1.822-.993-2.716-.052-.129-.102-.259-.155-.387a44.024 44.024 0 0 0-1.36-2.982 45.539 45.539 0 0 0-1.34-2.482l-.217-.367a44.319 44.319 0 0 0-1.532-2.408c-.065-.096-.133-.189-.199-.283a45.52 45.52 0 0 0-1.751-2.364c-.038-.048-.079-.094-.117-.143a44.89 44.89 0 0 0-1.991-2.323l-.022-.025a45.562 45.562 0 0 0-2.13-2.155c-.064-.061-.126-.124-.19-.184a45.174 45.174 0 0 0-2.183-1.913l-.3-.249a44.743 44.743 0 0 0-2.267-1.715l-.36-.254a44.08 44.08 0 0 0-2.759-1.768 44.842 44.842 0 0 0-2.51-1.379c-.117-.06-.236-.115-.354-.173a44.367 44.367 0 0 0-2.687-1.226c-.081-.034-.163-.063-.244-.096a43.966 43.966 0 0 0-2.918-1.075l-.011-.005c-.043-.087-.092-.168-.135-.254a41.646 41.646 0 0 0-1.074-2.014c-.192-.337-.397-.666-.597-.998a38.232 38.232 0 0 0-2.184-3.249 40.587 40.587 0 0 0-.891-1.172c-.18-.225-.369-.441-.553-.661a41.842 41.842 0 0 0-2.231-2.476c-.134-.137-.262-.279-.397-.414-.386-.384-.785-.752-1.185-1.121a41.84 41.84 0 0 0-.697-.633c-.382-.336-.77-.666-1.166-.99-.288-.236-.581-.463-.875-.692-.367-.283-.731-.569-1.108-.841-.53-.384-1.072-.75-1.62-1.109-.146-.096-.285-.202-.433-.296a34.652 34.652 0 0 1 29.836-16.989c.761 0 1.587.035 2.599.109a8.434 8.434 0 0 0 8.397-5.145 32.929 32.929 0 0 1 30.422-20.218c17.103 0 31.54 13.344 32.868 30.378a8.436 8.436 0 0 0 7.755 7.754c12.867 1.003 24.021 9.498 28.417 21.643a8.437 8.437 0 0 0 6.155 5.375c15.564 3.354 27.11 16.738 28.407 32.428H225.888z"/></symbol><symbol viewBox="-41 164.9 512 512" id="orelstroy-adv-item2"><path d="M69.9 496.2c-14.1 0-25.6 11.5-25.6 25.6s11.5 25.6 25.6 25.6 25.6-11.5 25.6-25.6-11.5-25.6-25.6-25.6zm0 34.1c-4.7 0-8.5-3.8-8.5-8.5s3.8-8.5 8.5-8.5 8.5 3.8 8.5 8.5c.1 4.7-3.8 8.5-8.5 8.5z"/><path d="M411.3 240.2H-15.4c-14.1 0-25.6 11.5-25.6 25.6v238.9c0 14.1 11.5 25.6 25.6 25.6 4.7 0 8.5-3.8 8.5-8.5s-3.8-8.5-8.5-8.5-8.5-3.8-8.5-8.5v-25.6h8.5c4.7 0 8.5-3.8 8.5-8.5s-3.8-8.5-8.5-8.5h-8.5V265.8c0-4.7 3.8-8.5 8.5-8.5h366.9v17.1H1.7c-4.7 0-8.5 3.8-8.5 8.5s3.8 8.5 8.5 8.5h8.5v102.4H1.7c-4.7 0-8.5 3.8-8.5 8.5s3.8 8.5 8.5 8.5h349.9V445c0 4.7 3.8 8.5 8.5 8.5s8.5-3.8 8.5-8.5v-34.1h85.3V462h-8.5c-4.7 0-8.5 3.8-8.5 8.5s3.8 8.5 8.5 8.5h8.5v25.6c0 4.7-3.8 8.5-8.5 8.5h-26.3c-4.2-28.9-29-51.2-59.1-51.2-32.9 0-59.7 26.8-59.7 59.7 0 32.9 26.8 59.7 59.7 59.7 30 0 54.9-22.3 59.1-51.2h26.3c14.1 0 25.6-11.5 25.6-25.6V299.9c0-33.5-26.2-59.7-59.7-59.7zM95.5 393.8H27.3V291.4h68.3l-.1 102.4zm85.4 0h-68.3V291.4h68.3v102.4zm85.3 0h-68.3V291.4h68.3v102.4zm85.3 0h-68.3V291.4h68.3v102.4zm8.6 170.6c-23.5 0-42.7-19.1-42.7-42.7 0-23.5 19.1-42.7 42.7-42.7 23.5 0 42.7 19.1 42.7 42.7-.1 23.6-19.2 42.7-42.7 42.7zm93.8-170.6H425l11-21.8c2.1-4.2.4-9.3-3.8-11.4-4.2-2.1-9.3-.4-11.5 3.8L406 393.8h-37.4V257.2h42.7c24.3 0 42.7 18.3 42.7 42.7l-.1 93.9z"/><path d="M283.3 521.8c0-4.7-3.8-8.5-8.5-8.5H129c-4.2-28.9-29-51.2-59.1-51.2-32.9 0-59.7 26.8-59.7 59.7 0 32.9 26.8 59.7 59.7 59.7 30 0 54.9-22.3 59.1-51.2h145.7c4.7 0 8.6-3.8 8.6-8.5zM69.9 564.4c-23.5 0-42.7-19.1-42.7-42.7 0-23.5 19.1-42.7 42.7-42.7 23.5 0 42.7 19.1 42.7 42.7s-19.1 42.7-42.7 42.7zm290.2-68.2c-14.1 0-25.6 11.5-25.6 25.6s11.5 25.6 25.6 25.6 25.6-11.5 25.6-25.6-11.5-25.6-25.6-25.6zm0 34.1c-4.7 0-8.5-3.8-8.5-8.5s3.8-8.5 8.5-8.5 8.5 3.8 8.5 8.5-3.8 8.5-8.5 8.5zM87 598.6H-32.5c-4.7 0-8.5 3.8-8.5 8.5s3.8 8.5 8.5 8.5H87c4.7 0 8.5-3.8 8.5-8.5s-3.8-8.5-8.5-8.5zm204.8 0h-17.1c-4.7 0-8.5 3.8-8.5 8.5s3.8 8.5 8.5 8.5h17.1c4.7 0 8.5-3.8 8.5-8.5s-3.8-8.5-8.5-8.5zm170.7 0H325.9c-4.7 0-8.5 3.8-8.5 8.5s3.8 8.5 8.5 8.5h136.5c4.7 0 8.5-3.8 8.5-8.5.1-4.7-3.7-8.5-8.4-8.5zm-239 0h-85.3c-4.7 0-8.5 3.8-8.5 8.5s3.8 8.5 8.5 8.5h85.3c4.7 0 8.5-3.8 8.5-8.5.1-4.7-3.8-8.5-8.5-8.5z"/><path d="M291.8 479.1c4.7 0 8.5-3.8 8.5-8.5s-3.8-8.5-8.5-8.5H138.2c-4.7 0-8.5 3.8-8.5 8.5s3.8 8.5 8.5 8.5h153.6z"/></symbol><symbol viewBox="-41 164.9 512 512" id="orelstroy-adv-item3"><path d="M-11.4 285.9h43.1c16.3 0 29.6-10.9 29.6-24.3 0-4.3-1.4-8.5-4-12.2-2.2-3.2-7.2-4.3-11-2.4-3.9 1.8-5.2 5.9-2.9 9.1 1.2 1.7 1.8 3.6 1.8 5.5 0 6.1-6 11.1-13.5 11.1h-43.1c-7.4 0-13.5-5-13.5-11.1s6-11.1 13.5-11.1H2.3c2.9 0 5.6-1.3 7-3.3 1.4-2.1 1.4-4.6 0-6.6-1.2-1.7-1.8-3.6-1.8-5.5 0-6.1 6-11.1 13.5-11.1h107.8c7.4 0 13.5 5 13.5 11.1s-6 11.1-13.5 11.1H85.7c-4.5 0-8.1 3-8.1 6.6s3.6 6.6 8.1 6.6h43.1c16.3 0 29.6-10.9 29.6-24.3s-13.3-24.3-29.6-24.3H21c-16.3 0-29.6 10.9-29.6 24.3 0 .7 0 1.5.1 2.2h-2.8c-16.3 0-29.6 10.9-29.6 24.3-.1 13.4 13.2 24.3 29.5 24.3zm294 59.8c0 3.7 3 6.6 6.7 6.6s6.7-3 6.7-6.6c0-37.8 31.1-68.6 69.3-68.6s69.3 30.8 69.3 68.6c0 33.3-24 61.7-57.1 67.5-3.6.6-6.1 4.1-5.4 7.7.6 3.2 3.4 5.5 6.6 5.5.4 0 .8 0 1.2-.1 39.5-7 68.1-40.8 68.1-80.6 0-45.1-37.1-81.9-82.7-81.9s-82.7 36.7-82.7 81.9z"/><path d="M365.3 378.9c-6.7 0-13.1-1.9-18.6-5.6-3.1-2-7.2-1.2-9.3 1.8-2.1 3-1.2 7.2 1.8 9.2 7.7 5.1 16.7 7.8 26.1 7.8 25.9 0 46.9-20.8 46.9-46.5s-21.1-46.5-46.9-46.5c-25.9 0-46.9 20.8-46.9 46.5 0 3.7 3 6.6 6.7 6.6s6.7-3 6.7-6.6c0-18.3 15-33.2 33.5-33.2s33.5 14.9 33.5 33.2-15 33.3-33.5 33.3zm-85.6-84.1c4.5 0 8.1-3 8.1-6.6 0-3.7-3.6-6.6-8.1-6.6-7.4 0-13.5-5-13.5-11.1s6-11.1 13.5-11.1h43.1c2.4 0 4.7.5 6.7 1.5 3.9 1.8 8.8.8 11-2.4 2.2-3.2.9-7.2-2.9-9.1-4.5-2.1-9.6-3.3-14.8-3.3h-43.1c-16.3 0-29.6 10.9-29.6 24.3-.1 13.5 13.2 24.4 29.6 24.4zm118.5 172.6h-10.8c-4.5 0-8.1 3-8.1 6.6 0 3.7 3.6 6.6 8.1 6.6h10.8c4.5 0 8.1-3 8.1-6.6 0-3.7-3.6-6.6-8.1-6.6zm-194-97.4c-4.5 0-8.1 3-8.1 6.6v115.1c0 3.7 3.6 6.6 8.1 6.6s8.1-3 8.1-6.6V376.6c0-3.6-3.6-6.6-8.1-6.6zm194 123.9h-10.8c-4.5 0-8.1 3-8.1 6.6 0 3.7 3.6 6.6 8.1 6.6h10.8c4.5 0 8.1-3 8.1-6.6 0-3.6-3.6-6.6-8.1-6.6zM88.3 544.8V403.2c0-3.7-3.6-6.6-8.1-6.6s-8.1 3-8.1 6.6v141.6c0 3.7 3.6 6.6 8.1 6.6s8.1-2.9 8.1-6.6z"/><path d="M462.9 617.8h-2.7V456.3c0-8.5-8.5-15.5-18.9-15.5h-78.1V412c0-8.5-8.5-15.5-18.9-15.5H320v-19.9c0-8.5-8.5-15.5-18.9-15.5h-45.8v-19.9c0-8.5-8.5-15.5-18.9-15.5h-13.5v-46.5c0-3.7-3.6-6.6-8.1-6.6s-8.1 3-8.1 6.6v46.5H169v-11.1c0-8.5-8.5-15.5-18.9-15.5h-10.8c-10.4 0-18.9 6.9-18.9 15.5V370H53.3c-10.4 0-18.9 6.9-18.9 15.5v159.3c0 3.7 3.6 6.6 8.1 6.6s8.1-3 8.1-6.6V385.5c0-1.2 1.2-2.2 2.7-2.2h67.4v234.5H83v-37.6c0-8.5-8.5-15.5-18.9-15.5h-75.5c-10.4 0-18.9 6.9-18.9 15.5v37.6H-33c-4.5 0-8.1 3-8.1 6.6 0 3.7 3.6 6.6 8.1 6.6h334.1c4.5 0 8.1-3 8.1-6.6 0-3.7-3.6-6.6-8.1-6.6H190.7v-7.3c0-17.4 11.4-33.7 29.9-42.4 2.5-1.2 4.1-3.4 4-5.8v-.4c0-15.5 15.4-28.1 34.3-28.1 16.2 0 30.4 9.5 33.6 22.5.8 3.1 4.1 5.3 7.9 5.3h.8c32.9 0 59.7 22 59.7 49v7.3h-27.3c-4.5 0-8.1 3-8.1 6.6 0 3.7 3.6 6.6 8.1 6.6h129.3c4.5 0 8.1-3 8.1-6.6 0-3.7-3.6-6.7-8.1-6.7zm-396.1 0H-14v-37.6c0-1.2 1.2-2.2 2.7-2.2h75.5c1.5 0 2.7 1 2.7 2.2l-.1 37.6zm188.6-243.4h45.8c1.5 0 2.7 1 2.7 2.2v19.9h-48.5v-22.1zm-118.5-59.7c0-1.2 1.2-2.2 2.7-2.2h10.8c1.5 0 2.7 1 2.7 2.2v11.1h-16.2v-11.1zm307.2 303.1h-67v-7.3c0-32.9-31.2-59.8-70.5-62.1-6.9-16.5-26-28-47.7-28-26.5 0-48.2 16.8-50.3 38.1-21.1 11.5-34 31-34 51.9v7.3h-37.7V339h99.7c1.5 0 2.7 1 2.7 2.2v159.3c0 3.7 3.6 6.6 8.1 6.6s8.1-3 8.1-6.6v-90.7h88.9c1.5 0 2.7 1 2.7 2.2v132.8c0 3.7 3.6 6.6 8.1 6.6s8.1-3 8.1-6.6v-90.7h78.1c1.5 0 2.7 1 2.7 2.2v161.5z"/><path d="M398.2 520.5h-10.8c-4.5 0-8.1 3-8.1 6.6 0 3.7 3.6 6.6 8.1 6.6h10.8c4.5 0 8.1-3 8.1-6.6s-3.6-6.6-8.1-6.6zM312 423.1c-4.5 0-8.1 3-8.1 6.6v62c0 3.7 3.6 6.6 8.1 6.6s8.1-3 8.1-6.6v-62c0-3.6-3.6-6.6-8.1-6.6z"/></symbol><symbol viewBox="-271 394.9 512 512" id="orelstroy-adv-item4"><style>.st0{fill:#030104}</style><path d="M20.8 474.8c1.6-2.4 2.4-5.7 2.4-8.9v-10.6c0-8.9-7.3-17.1-17.1-17.1h-48.8c-8.9 0-17.1 7.3-17.1 17.1v10.6c0 4.1 1.6 7.3 3.3 9.8-87.8 19.5-153.7 97.6-153.7 190.3 0 107.3 87.8 195.2 195.2 195.2S180.2 773.4 180.2 666c.8-95.2-68.3-174.9-159.4-191.2zm-63.5-19.5l49.7.8v10.6s0 .8-.8.8l-49.6-.8.7-11.4zm28.5 390.4c-98.4 0-178.9-80.5-178.9-178.9s80.5-178.9 178.9-178.9 178.9 80.5 178.9 178.9S84.2 845.7-14.2 845.7z"/><path d="M-14.2 509.8c-87 0-157 70.8-157 157 0 87 70.8 157 157 157s157-70.8 157-157c0-87.1-70-157-157-157zm0 297.6c-78.1 0-140.7-63.4-140.7-140.7 0-78.1 63.4-140.7 140.7-140.7s140.7 63.4 140.7 140.7c0 78.1-62.6 140.7-140.7 140.7z"/><path d="M-88.2 665.1c0 18.7-7.3 29.3-18.7 29.3-10.6 0-17.9-9.8-17.9-28.5s8.1-28.5 18.7-28.5c11.4.1 17.9 9.8 17.9 27.7zm-30.1.8c0 14.6 4.1 22.8 11.4 22.8s11.4-8.9 11.4-22.8c0-13.8-3.3-22.8-11.4-22.8-6.5.1-11.4 7.4-11.4 22.8zm70-21.9h-21.1l-2.4 13.8h4.9c4.1 0 8.1.8 12.2 3.3s8.1 7.3 8.1 13.8c0 10.6-8.1 18.7-20.3 18.7-5.7 0-11.4-1.6-13.8-3.3l1.6-5.7c2.4 1.6 6.5 3.3 11.4 3.3 7.3 0 13-4.9 13-12.2 0-7.3-4.9-12.2-15.5-12.2-3.3 0-5.7 0-7.3.8l3.3-26h26v5.7zm28.4 14.6c0-3.3 2.4-5.7 4.9-5.7 3.3 0 4.9 2.4 4.9 5.7 0 3.3-1.6 4.9-4.9 4.9-2.4.8-4.9-1.6-4.9-4.9zm0 30.1c0-3.3 2.4-5.7 4.9-5.7 3.3 0 4.9 2.4 4.9 5.7 0 3.3-1.6 4.9-4.9 4.9-2.4 0-4.9-1.6-4.9-4.9zm71.6-23.6c0 18.7-7.3 29.3-18.7 29.3-10.6 0-17.9-9.8-17.9-28.5s8.1-28.5 18.7-28.5c11.4.1 17.9 9.8 17.9 27.7zm-30.1.8c0 14.6 4.1 22.8 11.4 22.8s11.4-8.9 11.4-22.8c0-13.8-3.3-22.8-11.4-22.8-6.5.1-11.4 7.4-11.4 22.8zm73.2-.8c0 18.7-7.3 29.3-18.7 29.3-10.6 0-17.9-9.8-17.9-28.5s8.1-28.5 18.7-28.5c11.4.1 17.9 9.8 17.9 27.7zm-29.3.8c0 14.6 4.1 22.8 11.4 22.8 7.3 0 11.4-8.9 11.4-22.8 0-13.8-3.3-22.8-11.4-22.8-6.5.1-11.4 7.4-11.4 22.8z"/></symbol><symbol viewBox="-151 275.9 512 512" id="orelstroy-adv-item5"><path d="M-37.5 348h-27.3v54.5h13.6v-13.6h13.6c11.3 0 20.4-9.2 20.4-20.4.1-11.3-9.1-20.5-20.3-20.5zm0 27.2h-13.6v-13.6h13.6c3.8 0 6.8 3.1 6.8 6.8 0 3.8-3.1 6.8-6.8 6.8z"/><path d="M207.8 675c0-37.6-30.6-68.1-68.1-68.1S71.5 637.5 71.5 675c0 22.3 10.8 42.1 27.4 54.5H-3.5v-27.3h-20.4V552.4h-13.6V429.8h31.7l23.4-54.5-23.4-54.5h-77.1l-23.4 54.5 23.4 54.5h31.7v122.6h-13.6v149.9h-20.4v27.3h-20.4v13.6h422.4v-13.6H180.3c16.6-12.5 27.5-32.3 27.5-54.6zM-73.9 416.1l-17.5-40.9 17.5-40.9h59.2l17.5 40.9-17.5 40.9h-59.2zM-51.1 566h13.6v136.3h-13.6V566zm34 163.5h-54.5v-13.6h54.5v13.6zm156.7 0c-30.1 0-54.5-24.5-54.5-54.5 0-30.1 24.5-54.5 54.5-54.5s54.5 24.5 54.5 54.5c0 30.1-24.4 54.5-54.5 54.5z"/><path d="M270.2 375.2c-27.8 0-52.2 18.8-59.3 45.7l-22 83.7h-35.6c-45.9 0-88.4 24.5-111.6 64.1l-17.8 5.9v45.8H-3.5V675h61.3v-13.6H37.4v-76.9l18.7-6.2c24.5-8.2 50.1-12.3 75.9-12.3h4.9c30 0 57.9 13.4 76.6 36.8 13.3 16.6 20.8 37.3 21.4 58.6h-13.5V675h95.3v-13.6h-68.2c-.6-24.3-9.2-48-24.5-67.1-21.3-26.7-53.1-41.9-87.3-41.9H132c-23.5 0-46.8 3.3-69.3 9.7 21.8-27.3 55.1-43.7 90.6-43.7h46.1l24.7-93.9c5.5-20.9 24.5-35.6 46.1-35.6h46.6v-13.6l-46.6-.1zM23.8 661.4H10.2v-27.3h13.6v27.3z"/><path d="M139.6 641c-18.8 0-34.1 15.3-34.1 34.1s15.3 34.1 34.1 34.1 34.1-15.3 34.1-34.1-15.3-34.1-34.1-34.1zm0 54.5c-11.3 0-20.4-9.2-20.4-20.4s9.2-20.4 20.4-20.4c11.3 0 20.4 9.2 20.4 20.4.1 11.2-9.1 20.4-20.4 20.4zm99.8-271l-20 74.9c-1.6 6.2-.4 12.6 3.5 17.7s9.8 8 16.2 8h77.7v-13.6h-77.7c-2.1 0-4.1-1-5.4-2.7-1.3-1.7-1.7-3.8-1.2-5.9l20-74.9c.8-3 3.5-5.1 6.6-5.1h57.7v-13.6h-57.7c-9.2 0-17.4 6.3-19.7 15.2z"/></symbol><symbol viewBox="442.5 242.5 75 75" id="play"><path d="M480.001 317.636c-20.678 0-37.5-16.885-37.5-37.637s16.822-37.636 37.5-37.636c20.677 0 37.5 16.883 37.5 37.636-.001 20.753-16.823 37.637-37.5 37.637zm0-73.272c-19.575 0-35.501 15.986-35.501 35.636 0 19.651 15.926 35.637 35.501 35.637 19.574 0 35.5-15.986 35.5-35.637-.001-19.65-15.927-35.636-35.5-35.636zm-8.498 51.136l23.243-13.875-23.243-14.454V295.5z"/></symbol><symbol viewBox="0 0 413.12 413.12" id="search"><path d="M289.537 49.617c-66.143-66.156-173.774-66.156-239.926 0-66.148 66.146-66.148 173.774 0 239.916 63.881 63.884 166.438 66.059 232.972 6.562l13.45 13.45c-3.351 8.578-1.596 18.678 5.325 25.604l70.973 70.973c9.334 9.334 24.465 9.329 33.789 0 9.334-9.329 9.334-24.46 0-33.794l-70.967-70.959c-6.927-6.926-17.035-8.681-25.604-5.33l-13.45-13.455c59.505-66.539 57.321-169.094-6.562-232.967zM69.888 269.269c-54.969-54.969-54.969-144.409 0-199.378 54.969-54.974 144.411-54.969 199.38 0s54.969 144.413 0 199.382-144.412 54.964-199.38-.004z"/><path d="M103.381 102.149c24.01-24.007 51.914-41.439 81.259-52.304-33.244-1.899-68.849 11.038-96.17 38.354-27.699 27.699-40.599 63.92-38.247 97.57 10.786-30.209 28.502-58.963 53.158-83.62z"/></symbol><symbol viewBox="0 0 375.795 375.795" id="zenit-filter-all"><path d="M364.053 324.635V61.498H257.919V35.136H117.877v26.361H11.743v263.138H0v16.023h375.795v-16.023h-11.742zm-218.954 0H27.767V77.521h117.332v247.114zm69.575 0h-53.552v-27.787h53.552v27.787zm0-258.141h-18.415v25.492h18.415v15.622h-18.415V133.1h18.415v15.625h-18.415v25.491h18.415v15.623h-18.415v25.492h18.415v15.624h-18.415v25.489h18.415v25.382h-53.552v-25.382h18.414v-25.489h-18.414v-15.624h18.414v-25.492h-18.414v-15.623h18.414v-25.491h-18.414V133.1h18.414v-25.492h-18.414V91.986h18.414V66.494h-18.414v-4.996h-28.224v-11.34h109.999v11.34h-28.224v4.996zm133.355 258.141H230.697V77.521h117.332v247.114z"/><path d="M246.238 94.947h34.207v27.19h-34.207zm52.044 0h34.207v27.19h-34.207zm-52.044 43.855h34.207v27.189h-34.207zm52.044 0h34.207v27.189h-34.207zm-52.044 43.856h34.207v27.191h-34.207zm52.044 0h34.207v27.191h-34.207zm-52.044 43.857h34.207v27.191h-34.207zm52.044 0h34.207v27.191h-34.207zm-52.044 43.856h34.207v27.191h-34.207zm52.044 0h34.207v27.191h-34.207zM43.308 94.947h34.207v27.19H43.308zm52.043 0h34.207v27.19H95.351zm-52.043 43.855h34.207v27.189H43.308zm52.043 0h34.207v27.189H95.351zm-52.043 43.856h34.207v27.191H43.308zm52.043 0h34.207v27.191H95.351zm-52.043 43.857h34.207v27.191H43.308zm52.043 0h34.207v27.191H95.351zm-52.043 43.856h34.207v27.191H43.308zm52.043 0h34.207v27.191H95.351z"/></symbol><symbol viewBox="0 0 40 40" id="zenit-filter-build"><path d="M13.4 4.1l5 5.1v24.6h-5V4.1M13 2.3l-.7.4v32h7v-26L13 2.3zm18.4 7.5v7h-2v-7h2m1-1h-4v9h4v-9z"/><path d="M30.605 16.635l.707.707-3.819 3.818-.707-.707zm1.45.703l.707.707-4.596 4.596-.707-.707zm1 1l.707.707-4.596 4.596-.707-.707zm.495 1.469l.707.708-3.606 3.606-.707-.707z"/><path d="M30.6 24.4c-2.2 0-3.9-1.8-3.9-3.9 0-2.2 1.8-3.9 3.9-3.9 2.2 0 3.9 1.8 3.9 3.9 0 2.2-1.8 3.9-3.9 3.9zm0-6.8c-1.6 0-2.9 1.3-2.9 2.9 0 1.6 1.3 2.9 2.9 2.9s2.9-1.3 2.9-2.9c-.1-1.6-1.4-2.9-2.9-2.9z"/><path d="M4.4 8.6h31v2.3h-31zm20 22.2h11.9v4H24.4zm4.5-6.9h3v2.9h-3zm-19 10.4h12v1.5h-12z"/><path d="M7.9 35.3h16v3h-16zM30.4 26.2l3.5 3.5h-7.1l3.6-3.5m0-1.4l-6 6h11.9l-5.9-6zM12.6 2.9l15.9 4.7H7.1l5.5-4.7m-.2-1.1l-8 6.8h31l-23-6.8z"/><path d="M13.4 4.1l5 5.1v26h-5V4.1m-1-1.8v33.9h7V8.7l-5.8-5.9-1.2-.5z"/><path d="M15.8 36.6l-.7-.7 2.5-2.6H13l-.4-.9 5-5h-4.7l-.4-.8 5.1-5.1h-4.8l-.4-.9 5.2-5.2h-4.8l-.4-.9 4.7-4.6h-4.2v-1h5.4l.3.9-4.6 4.6h4.8l.4.8-5.2 5.3h4.8l.4.8-5.1 5.1h4.7l.4.9-5 5h4.6l.4.8z"/></symbol><symbol viewBox="0 0 106.9 105.6" id="zenit-filter-buy"><path d="M68.7 61h-31V0h31v61zm-29-2h27V2h-27v57z"/><path d="M61 98.1H44.8V59H61v39.1zm-14.2-2H59V61H46.8v35.1z"/><path d="M70.6 105.3H35.7v-9.2h34.9v9.2zm-32.9-2h30.9v-5.1H37.7v5.1zM76 18.7h-9.3v-6.1h2v4.1H76z"/><path d="M90.9 105.3H66.8V11.7h25.1v47.7h-2V13.7H68.8v89.6h22.1zM45.6 11.1h4.3V15h-4.3z"/><path d="M50.9 16h-6.3v-5.9h6.3V16zm-4.3-2h2.3v-1.9h-2.3V14zm9.8-2.9h4.3V15h-4.3z"/><path d="M61.7 16h-6.3v-5.9h6.3V16zm-4.3-2h2.3v-1.9h-2.3V14zm-11.8 5.9h4.3v3.9h-4.3z"/><path d="M50.9 24.8h-6.3v-5.9h6.3v5.9zm-4.3-2h2.3v-1.9h-2.3v1.9zm9.8-2.9h4.3v3.9h-4.3z"/><path d="M61.7 24.8h-6.3v-5.9h6.3v5.9zm-4.3-2h2.3v-1.9h-2.3v1.9zm-11.8 6.1h4.3v3.9h-4.3z"/><path d="M50.9 33.8h-6.3v-5.9h6.3v5.9zm-4.3-2h2.3v-1.9h-2.3v1.9zm9.8-2.9h4.3v3.9h-4.3z"/><path d="M61.7 33.8h-6.3v-5.9h6.3v5.9zm-4.3-2h2.3v-1.9h-2.3v1.9zm-11.8 6h4.3v3.9h-4.3z"/><path d="M50.9 42.7h-6.3v-5.9h6.3v5.9zm-4.3-2h2.3v-1.9h-2.3v1.9zm9.8-2.9h4.3v3.9h-4.3z"/><path d="M61.7 42.7h-6.3v-5.9h6.3v5.9zm-4.3-2h2.3v-1.9h-2.3v1.9zm-11.8 6.1h4.3v3.9h-4.3z"/><path d="M50.9 51.7h-6.3v-5.9h6.3v5.9zm-4.3-2h2.3v-1.9h-2.3v1.9zm9.8-2.9h4.3v3.9h-4.3z"/><path d="M61.7 51.7h-6.3v-5.9h6.3v5.9zm-4.3-2h2.3v-1.9h-2.3v1.9zm20.2-27.9h4.3v3.9h-4.3z"/><path d="M82.9 26.6h-6.3v-5.9h6.3v5.9zm-4.3-2h2.3v-1.9h-2.3v1.9zm-1 6h4.3v3.9h-4.3z"/><path d="M82.9 35.4h-6.3v-5.9h6.3v5.9zm-4.3-2h2.3v-1.9h-2.3v1.9zm-1 6.2h4.3v3.9h-4.3z"/><path d="M82.9 44.4h-6.3v-5.9h6.3v5.9zm-4.3-2h2.3v-1.9h-2.3v1.9zm-1 6h4.3v3.9h-4.3z"/><path d="M82.9 53.3h-6.3v-5.9h6.3v5.9zm-4.3-2h2.3v-1.9h-2.3v1.9zm-39-32.6h-9.3v-2h7.3v-4.1h2z"/><path d="M39.6 105.3H14.4V11.7h25.1v93.6zm-23.2-2h21.1V13.7H16.4v89.6z"/><path d="M24.4 21.8h4.3v3.9h-4.3z"/><path d="M29.8 26.7h-6.3v-5.9h6.3v5.9zm-4.4-2h2.3v-1.9h-2.3v1.9zM24.4 30.6h4.3v3.9h-4.3z"/><path d="M29.8 35.5h-6.3v-5.9h6.3v5.9zm-4.4-2h2.3v-1.9h-2.3v1.9zM24.4 39.6h4.3v3.9h-4.3z"/><path d="M29.8 44.5h-6.3v-5.9h6.3v5.9zm-4.4-2h2.3v-1.9h-2.3v1.9zM24.4 48.5h4.3v3.9h-4.3z"/><path d="M29.8 53.3h-6.3v-5.9h6.3v5.9zm-4.4-2h2.3v-1.9h-2.3v1.9zM24.4 57.5h4.3v3.9h-4.3z"/><path d="M29.8 62.3h-6.3v-5.9h6.3v5.9zm-4.4-2h2.3v-1.9h-2.3v1.9zM24.4 66.2h4.3v3.9h-4.3z"/><path d="M29.8 71.1h-6.3v-5.9h6.3v5.9zm-4.4-2h2.3v-1.9h-2.3v1.9z"/><g><path d="M24.4 75.2h4.3v3.9h-4.3z"/><path d="M29.8 80.1h-6.3v-5.9h6.3v5.9zm-4.4-2h2.3v-1.9h-2.3v1.9z"/></g><g><path d="M24.4 84.1h4.3V88h-4.3z"/><path d="M29.8 88.9h-6.3V83h6.3v5.9zm-4.4-2h2.3V85h-2.3v1.9z"/></g><g><path d="M24.4 93.1h4.3V97h-4.3z"/><path d="M29.8 97.9h-6.3V92h6.3v5.9zm-4.4-2h2.3V94h-2.3v1.9z"/></g><g><path d="M-1.8 104.6h108.7m-108.7-1H107v2H-1.8z"/></g><path d="M92.6 82.3c5.4 0 9.8-4.4 9.8-9.8s-4.4-9.8-9.8-9.8h-8.1c-1 0-1.7.8-1.7 1.7v21.3h-1.7c-1 0-1.7.8-1.7 1.7s.8 1.7 1.7 1.7h1.7V99c0 1 .8 1.7 1.7 1.7 1 0 1.7-.8 1.7-1.7v-9.8h6.3c1 0 1.7-.8 1.7-1.7s-.8-1.7-1.7-1.7h-6.3v-3.5h6.4zm0-16.2c3.5 0 6.3 2.9 6.3 6.3 0 3.5-2.8 6.3-6.3 6.3h-6.3V66.1h6.3z"/></symbol><symbol viewBox="0 0 41.3 41.4" id="zenit-filter-ready"><path d="M26.1 9.8V41h4.3V7.7zM6.2 9.4v-3l10-5.8V4zm0 2.6l10-4.9v3.4l-10 4.4zm0 8.8v-3.3l10-4v3.9zm0 5.9v-3.3l10-2.9v3.9zm0 5.9v-3.3l10-1.9v3.9zm0 8.1v-5.5l10-.9v6.5zm11.3.3v-6.5l7.3.7v5.6zm0-9.6v-3.9l7.3 1.6v3.4zm0-6.9v-3.9l7.3 2.5v3.4zm0-7v-3.9l7.3 3.5v3.4zm0-6.9V7.1l7.3 4.4v3zm0-6.5V.6l7.3 5.2v3zm13.8 6.4V7.7l6.1 4.3v2.5zm0 5.4V13l6.1 3.6v2.5zm0 5.7v-3.2l6.1 2.9v2.8l-6-2.4zm0 5.8v-3.3l6.1 2.1V29zm0 5.7v-3.2l6.1 1.3V34zm0 7.9v-5.4l6.1.6v4.6z"/></symbol></svg>