<?xml version="1.0" encoding="utf-8"?><svg xmlns="http://www.w3.org/2000/svg" xmlns:xlink="http://www.w3.org/1999/xlink"><symbol viewBox="0 0 125 125" id="eqt1"><circle cx="52.8" cy="73.5" r="50.5" fill="#ffeb7b"/><path d="M52.7 125c-13.2 0-26.3-5-36.3-15-.6-.6-.6-1.6 0-2.2.6-.6 1.6-.6 2.2 0 18.9 18.9 49.5 18.9 68.4 0 9-9.1 14-21.3 14-34.2s-5-25.1-14.2-34.2c-.6-.6-.6-1.6 0-2.2.6-.6 1.6-.6 2.2 0 9.7 9.7 15.1 22.6 15.1 36.3 0 13.7-5.3 26.6-15.1 36.3C79 120 65.9 125 52.7 125z"/><path d="M73.5 98.5H6.4c-3.6 0-6.5-2.9-6.5-6.5V18c0-1.1.1-4.4 24-9.2.4-.1.8-.5.8-.9V5.6c0-1.9 1.6-3.5 3.5-3.5h22.6c1.9 0 3.5 1.6 3.5 3.5v2.3c0 .4.4.8.7.9h.2l21.9 7h.1c1.6.6 2.8 2.4 2.8 4.1v72c0 3.7-2.9 6.6-6.5 6.6zM2.9 18.3V92c0 1.9 1.6 3.5 3.5 3.5h67.2c1.9 0 3.5-1.6 3.5-3.5V20c0-.5-.4-1.1-.9-1.3l-21.8-7c-1.7-.4-3.1-2.1-3.1-3.8V5.6c0-.3-.2-.5-.5-.5H28.1c-.3 0-.5.2-.5.5v2.3c0 1.8-1.4 3.5-3.2 3.9-9.3 1.9-20 4.8-21.5 6.5zM78.5 105H1.4c-.8 0-1.5-.7-1.5-1.5s.7-1.5 1.5-1.5h77.2c.8 0 1.5.7 1.5 1.5s-.7 1.5-1.6 1.5z"/><path d="M46.8 18.1H32.6c-.8 0-1.5-.7-1.5-1.5s.7-1.5 1.5-1.5h14.2c.8 0 1.5.7 1.5 1.5s-.7 1.5-1.5 1.5zm24.1 80.4H9.8v-68c0-3.6 2.9-6.5 6.5-6.5h48.1c3.6 0 6.5 2.9 6.5 6.5v68zm-58.1-3h55.1v-65c0-1.9-1.6-3.5-3.5-3.5H16.3c-1.9 0-3.5 1.6-3.5 3.5v65z"/><path d="M40.3 98.5c-.8 0-1.5-.7-1.5-1.5V25.5c0-.8.7-1.5 1.5-1.5s1.5.7 1.5 1.5V97c0 .8-.7 1.5-1.5 1.5zm-9-38.1c-.4 0-.8-.1-1.1-.4l-14-14c-.6-.6-.6-1.5 0-2.1s1.5-.6 2.1 0l14 14c.6.6.6 1.5 0 2.1-.2.3-.6.4-1 .4zm30 16c-.4 0-.8-.1-1.1-.4l-14-14c-.6-.6-.6-1.5 0-2.1s1.5-.6 2.1 0l14 14c.6.6.6 1.5 0 2.1-.2.3-.6.4-1 .4zm-1-16c-.4 0-.8-.1-1.1-.4l-14-14c-.6-.6-.6-1.5 0-2.1s1.5-.6 2.1 0l14 14c.6.6.6 1.5 0 2.1-.2.3-.6.4-1 .4zm-29 15c-.4 0-.8-.1-1.1-.4l-14-14c-.6-.6-.6-1.5 0-2.1s1.5-.6 2.1 0l14 14c.6.6.6 1.5 0 2.1-.2.3-.6.4-1 .4z"/></symbol><symbol viewBox="0 0 125 125" id="eqt2"><circle cx="67.8" cy="73.5" r="50.5" fill="#ffeb7b"/><path d="M67.7 125c-13.2 0-26.3-5-36.3-15-.6-.6-.6-1.6 0-2.2.6-.6 1.6-.6 2.2 0 18.9 18.9 49.5 18.9 68.4 0 9-9.1 14-21.3 14-34.2s-5-25.1-14.2-34.2c-.6-.6-.6-1.6 0-2.2.6-.6 1.6-.6 2.2 0 9.7 9.7 15.1 22.6 15.1 36.3 0 13.7-5.3 26.6-15.1 36.3C94 120 80.8 125 67.7 125z"/><path d="M36.8 104.5H7.1c-3.9 0-7.1-3.2-7.1-7.1V9.9C0 6 3.2 2.8 7.1 2.8h29.7c3.9 0 7.1 3.2 7.1 7.1v87.5c0 3.9-3.2 7.1-7.1 7.1zM7.1 5.8C4.9 5.8 3 7.7 3 9.9v87.5c0 2.3 1.8 4.1 4.1 4.1h29.7c2.3 0 4.1-1.8 4.1-4.1V9.9c0-2.3-1.8-4.1-4.1-4.1H7.1z"/><path d="M11.5 97.8c-.8 0-1.5-.7-1.5-1.5V11.5c0-.8.7-1.5 1.5-1.5s1.5.7 1.5 1.5v84.8c0 .9-.6 1.5-1.5 1.5zm10 0c-.8 0-1.5-.7-1.5-1.5V11.5c0-.8.7-1.5 1.5-1.5s1.5.7 1.5 1.5v84.8c0 .9-.6 1.5-1.5 1.5zm10 0c-.8 0-1.5-.7-1.5-1.5V11.5c0-.8.7-1.5 1.5-1.5s1.5.7 1.5 1.5v84.8c0 .9-.6 1.5-1.5 1.5zm44.4-64.1c-.8 0-1.5-.7-1.5-1.5v-1.3c0-7 0-16.7-3.3-20-.8-.8-1.7-1.2-2.9-1.2-3.4 0-6.8 5.2-9.8 9.9-3.1 4.8-5.8 8.9-9.2 8.9-4.9 0-8.4-3.7-8.4-7.1 0-.8.7-1.5 1.5-1.5s1.5.7 1.5 1.5c0 1.4 1.9 4.1 5.4 4.1 1.8 0 4.5-4.2 6.6-7.5 3.6-5.5 7.3-11.2 12.3-11.2 2 0 3.7.7 5 2 4.2 4.2 4.2 13.7 4.1 22.1v1.3c.2.8-.5 1.5-1.3 1.5z"/><path d="M78.8 48.3c-.8 0-1.5-.7-1.5-1.5V35.7c0-1.1-.9-2-2-2s-2 .9-2 2v11.1c0 .8-.7 1.5-1.5 1.5s-1.5-.7-1.5-1.5V35.7c0-2.8 2.2-5 5-5s5 2.2 5 5v11.1c0 .8-.6 1.5-1.5 1.5z"/><path d="M87.9 83.2c-.4 0-.9-.2-1.2-.6-.5-.6-.4-1.6.3-2.1 4.4-3.5 7-8.7 7-14.3 0-10-8.1-18.1-18.1-18.1s-18.1 8.1-18.1 18.1c0 5.5 2.5 10.7 6.8 14.1.6.5.7 1.5.2 2.1-.5.6-1.5.7-2.1.2-5-4-7.9-10-7.9-16.5 0-11.6 9.5-21.1 21.1-21.1S97 54.6 97 66.3c0 6.5-3 12.6-8.1 16.6-.3.2-.7.3-1 .3z"/><path d="M92.8 102.3H59.5c-3 0-5.5-2.5-5.5-5.5V86.1c0-3 2.5-5.5 5.5-5.5H64c.8 0 1.5.7 1.5 1.5s-.7 1.5-1.5 1.5h-4.5c-1.4 0-2.5 1.1-2.5 2.5v10.6c0 1.4 1.1 2.5 2.5 2.5h33.4c1.4 0 2.5-1.1 2.5-2.5V86.1c0-1.4-1.1-2.5-2.5-2.5H88c-.8 0-1.5-.7-1.5-1.5s.7-1.5 1.5-1.5h4.8c3 0 5.5 2.5 5.5 5.5v10.6c0 3.1-2.4 5.6-5.5 5.6z"/><path d="M67.9 107.4h-4.1c-1.7 0-3.2-1.4-3.2-3.2v-3.5c0-.8.7-1.5 1.5-1.5s1.5.7 1.5 1.5v3.5c0 .1.1.2.2.2h4.1c.1 0 .2-.1.2-.2v-3.5c0-.8.7-1.5 1.5-1.5s1.5.7 1.5 1.5v3.5c0 1.8-1.4 3.2-3.2 3.2zm21.1 0h-4c-1.7 0-3.2-1.4-3.2-3.2v-3.5c0-.8.7-1.5 1.5-1.5s1.5.7 1.5 1.5v3.5c0 .1.1.2.2.2h4c.1 0 .2-.1.2-.2v-3.5c0-.8.7-1.5 1.5-1.5s1.5.7 1.5 1.5v3.5c0 1.8-1.4 3.2-3.2 3.2zM75.5 80c-7.6 0-13.7-6.1-13.7-13.7s6.1-13.7 13.7-13.7 13.7 6.1 13.7 13.7S83.1 80 75.5 80zm0-24.4c-5.9 0-10.7 4.8-10.7 10.7 0 5.9 4.8 10.7 10.7 10.7 5.9 0 10.7-4.8 10.7-10.7 0-5.9-4.8-10.7-10.7-10.7z"/><path d="M86.4 73.1H64.5c-.8 0-1.5-.7-1.5-1.5s.7-1.5 1.5-1.5h21.9c.8 0 1.5.7 1.5 1.5s-.7 1.5-1.5 1.5z"/><path d="M74.9 73.1c-.2 0-.4 0-.6-.1-.8-.3-1.1-1.2-.8-2l4.7-11.2c.3-.8 1.2-1.1 2-.8.8.3 1.1 1.2.8 2l-4.7 11.1c-.2.6-.8 1-1.4 1z"/></symbol><symbol viewBox="0 0 125 125" id="eqt3"><circle cx="60.8" cy="73.5" r="50.5" fill="#ffeb7b"/><path d="M60.7 125c-13.2 0-26.3-5-36.3-15-.6-.6-.6-1.6 0-2.2.6-.6 1.6-.6 2.2 0 18.9 18.9 49.5 18.9 68.4 0 9-9.1 14-21.3 14-34.2s-5-25.1-14.2-34.2c-.6-.6-.6-1.6 0-2.2.6-.6 1.6-.6 2.2 0 9.7 9.7 15.1 22.6 15.1 36.3 0 13.7-5.3 26.6-15.1 36.3C87 120 73.8 125 60.7 125z"/><path d="M43.4 107.8c-6.9 0-18.1-8.5-26.3-16.5S0 72.2 0 65.1V19.6C0 15.9 2.9 12 8.2 12h1.5c5.8.1 21.2.4 32.9-7.9.5-.3 1.1-.4 1.7 0 14.2 8.9 28.3 8.2 33.7 8h1.5c4.1 0 7.5 3.5 7.5 7.7v45.5c-.1 12.2-31 42.5-43.6 42.5zM8.2 15C4.4 15 3 17.8 3 19.6v45.5c0 10.8 29.5 39.7 40.4 39.7s40.4-28.9 40.4-39.7V19.6c0-2.5-2.1-4.7-4.5-4.7H78c-5 .2-19.8.9-34.6-7.9-12.4 8.3-28 8-33.9 7.9-.5.1-.9.1-1.3.1z"/><path d="M43.4 94.4c-9.5 0-32.9-23-32.9-32.3V34.5c0-.6.5-1.1 1.1-1.1s1.1.5 1.1 1.1V62c0 8.1 22.3 30 30.6 30s30.6-21.9 30.6-30V27.6c0-1.9-1.6-3.5-3.4-3.5h-1c-3.8.2-15 .7-26.2-6-4.9 3.3-11.1 5.2-18.4 5.8-.6 0-1.2-.4-1.2-1-.1-.6.4-1.2 1-1.2 7.2-.6 13.3-2.5 17.9-5.8.4-.3.9-.3 1.3 0 10.7 6.7 21.5 6.2 25.5 6.1h1.1c3.1 0 5.7 2.7 5.7 5.8V62c.1 9.4-23.2 32.4-32.8 32.4z"/><path d="M50.8 75.1h-15c-4.2 0-7.6-3.4-7.6-7.6V57.2c0-4.2 3.4-7.6 7.6-7.6h15c4.2 0 7.6 3.4 7.6 7.6v10.4c0 4.1-3.4 7.5-7.6 7.5zm-15-23.3c-2.9 0-5.3 2.4-5.3 5.3v10.4c0 2.9 2.4 5.3 5.3 5.3h15c2.9 0 5.3-2.4 5.3-5.3V57.2c0-2.9-2.4-5.3-5.3-5.3h-15z"/><path d="M53.3 51.8c-.6 0-1.1-.5-1.1-1.1V38.5c0-4.9-4-8.8-8.8-8.8s-8.8 4-8.8 8.8c0 .6-.5 1.1-1.1 1.1s-1.1-.5-1.1-1.1c0-6.1 5-11.1 11.1-11.1s11.1 5 11.1 11.1v12.2c-.2.6-.7 1.1-1.3 1.1zM43.9 64c-2.7 0-4.8-2.2-4.8-4.8s2.2-4.8 4.8-4.8 4.8 2.2 4.8 4.8-2.2 4.8-4.8 4.8zm0-7.4c-1.4 0-2.6 1.2-2.6 2.6s1.2 2.6 2.6 2.6 2.6-1.2 2.6-2.6-1.2-2.6-2.6-2.6z"/><path d="M43.9 68.6c-.6 0-1.1-.5-1.1-1.1v-4.6c0-.6.5-1.1 1.1-1.1s1.1.5 1.1 1.1v4.6c0 .6-.5 1.1-1.1 1.1z"/></symbol><symbol viewBox="0 0 125 125" id="eqt4"><circle cx="70.4" cy="73.5" r="50.5" fill="#ffeb7b"/><path d="M70.3 125c-13.2 0-26.3-5-36.3-15-.6-.6-.6-1.6 0-2.2.6-.6 1.6-.6 2.2 0 18.9 18.9 49.5 18.9 68.4 0 9.1-9.1 14.2-21.3 14.2-34.2s-5-25.1-14.2-34.2c-.6-.6-.6-1.6 0-2.2.6-.6 1.6-.6 2.2 0 9.7 9.7 15.1 22.6 15.1 36.3 0 13.7-5.3 26.6-15.1 36.3C96.6 120 83.4 125 70.3 125zM6 99.5H5c-2.7 0-5-2.2-5-5v-22c0-2.7 2.2-5 5-5h2v3H5c-1.1 0-2 .9-2 2v22c0 1.1.9 2 2 2h1v3z"/><path d="M17 96.5h65.4v3H17zm77.8 3h-2.5v-3h2.5c1.1 0 2-.9 2-2v-22c0-1.1-.9-2-2-2h-2.5v-3h2.5c2.7 0 5 2.2 5 5v22c0 2.8-2.3 5-5 5zM16.9 67.6h65.7v3H16.9z"/><path d="M13.9 104.9h-4c-2.7 0-4.9-2.2-4.9-4.9V67.9C5 65.2 7.2 63 9.9 63h4c2.7 0 4.9 2.2 4.9 4.9v32.2c0 2.6-2.2 4.8-4.9 4.8zM9.9 66c-1 0-1.9.8-1.9 1.9v32.2c0 1 .8 1.9 1.9 1.9h4c1 0 1.9-.8 1.9-1.9V67.9c0-1-.8-1.9-1.9-1.9h-4zm79.5 38.9h-4c-2.7 0-4.9-2.2-4.9-4.9V67.9c0-2.7 2.2-4.9 4.9-4.9h4c2.7 0 4.9 2.2 4.9 4.9v32.2c0 2.6-2.2 4.8-4.9 4.8zm-4-38.9c-1 0-1.9.8-1.9 1.9v32.2c0 1 .8 1.9 1.9 1.9h4c1 0 1.9-.8 1.9-1.9V67.9c0-1-.8-1.9-1.9-1.9h-4zm-7.8 3.1h-3v-5.9c0-1-.8-1.9-1.9-1.9H25.5c-1 0-1.9.8-1.9 1.9v5.9h-3v-5.9c0-2.7 2.2-4.9 4.9-4.9h47.3c2.7 0 4.9 2.2 4.9 4.9v5.9z"/><path d="M72.3 59.8h-3v-2.7c0-.9-.7-1.6-1.6-1.6H31.3c-.9 0-1.6.7-1.6 1.6v2.7h-3v-2.7c0-2.5 2.1-4.6 4.6-4.6h36.4c2.5 0 4.6 2.1 4.6 4.6v2.7z"/><path d="M60.4 54h-3v-9.2c0-1.2-.9-2.1-2.1-2.1H43.9c-1.2 0-2.1.9-2.1 2.1V54h-3v-9.2c0-2.8 2.3-5.1 5.1-5.1h11.4c2.8 0 5.1 2.3 5.1 5.1V54z"/><path d="M51.6 25.1h3v16.1h-3zm3-11.9h-3V6.9c0-.4-.3-.8-.8-.8h-3.5c-.4 0-.8.3-.8.8V13h-3V6.9c0-2.1 1.7-3.8 3.8-3.8h3.5c2.1 0 3.8 1.7 3.8 3.8v6.3zm-11 11.9h3v16.1h-3z"/><path d="M58.9 34c-1.8 0-2.1-1.8-2.3-2.9-.4-2.3-1-5.2-7.5-5.2-7.2 0-7.8 3.8-8.1 5.8-.1.7-.3 2.3-1.8 2.3h-11c-5.2 0-9.5-4.3-9.5-9.5V14.3c0-5.2 4.3-9.5 9.5-9.5h10.9v3H28.2c-3.6 0-6.5 2.9-6.5 6.5v10.2c0 3.6 2.9 6.5 6.5 6.5h9.9c.4-2.3 1.6-8.1 11-8.1 8.9 0 9.9 5.2 10.4 7.6.1.3.1.8.2.9-.1-.2-.4-.5-.8-.5V34z"/><path d="M71.4 34H58.9v-3h12.5c3.6 0 6.5-2.9 6.5-6.5V14.3c0-3.6-2.9-6.5-6.5-6.5H58.9v-3h12.5c5.2 0 9.5 4.3 9.5 9.5v10.2c0 5.2-4.3 9.5-9.5 9.5z"/><path d="M49.6 15.1c-8.3 0-10.5-5.3-11.3-7.3-.1-.2-.2-.4-.2-.5.1.2.5.6 1.1.6v-3c1.2 0 1.6 1 1.9 1.8.8 1.9 2.2 5.5 8.5 5.5 6.2 0 7.1-3.5 7.6-5.3.2-.7.5-2 1.8-2v3c.7 0 1.1-.4 1.2-.8 0 .1-.1.3-.1.4-.5 1.9-2 7.6-10.5 7.6z"/></symbol><symbol viewBox="0 0 125 125" id="eqt5"><circle cx="50.8" cy="73.6" r="50.5" fill="#ffeb7b"/><path d="M54.3 6c9.4 0 17 7.6 17 17v45.6c0 9.4-7.6 17-17 17h-34c-9.4 0-17-7.6-17-17V23c0-9.4 7.6-17 17-17h34m0-3h-34c-11 0-20 9-20 20v45.6c0 11 9 20 20 20h34c11 0 20-9 20-20V23c0-11-9-20-20-20z"/><path d="M37.6 24c7 0 12.8 5.7 12.8 12.8s-5.7 12.8-12.8 12.8-12.8-5.7-12.8-12.8S30.6 24 37.6 24m0-3c-8.7 0-15.8 7.1-15.8 15.8s7.1 15.8 15.8 15.8 15.8-7.1 15.8-15.8S46.3 21 37.6 21z"/><path d="M36 38.3c-.4 0-.9-.2-1.1-.5-.5-.6-.5-1.6.2-2.1l7.3-6.1c.6-.5 1.6-.5 2.1.2.5.6.5 1.6-.2 2.1l-7.3 6c-.3.2-.7.4-1 .4zm-25.5-8.7H1.9c-.8 0-1.5-.7-1.5-1.5s.7-1.5 1.5-1.5h8.6c.8 0 1.5.7 1.5 1.5s-.7 1.5-1.5 1.5zm0 8H1.9c-.8 0-1.5-.7-1.5-1.5s.7-1.5 1.5-1.5h8.6c.8 0 1.5.7 1.5 1.5s-.7 1.5-1.5 1.5zm0 8H1.9c-.8 0-1.5-.7-1.5-1.5s.7-1.5 1.5-1.5h8.6c.8 0 1.5.7 1.5 1.5s-.7 1.5-1.5 1.5zm62-16h-8.6c-.8 0-1.5-.7-1.5-1.5s.7-1.5 1.5-1.5h8.6c.8 0 1.5.7 1.5 1.5s-.7 1.5-1.5 1.5zm0 8h-8.6c-.8 0-1.5-.7-1.5-1.5s.7-1.5 1.5-1.5h8.6c.8 0 1.5.7 1.5 1.5s-.7 1.5-1.5 1.5zm0 8h-8.6c-.8 0-1.5-.7-1.5-1.5s.7-1.5 1.5-1.5h8.6c.8 0 1.5.7 1.5 1.5s-.7 1.5-1.5 1.5zM51.8 77.4H24.3c-.8 0-1.5-.7-1.5-1.5s.7-1.5 1.5-1.5h27.5c.8 0 1.5.7 1.5 1.5s-.7 1.5-1.5 1.5zm10.3-7c-3.4 0-5.4-2.5-7.2-4.7-1.4-1.8-2.7-3.3-4.4-3.3-2 0-3.7 1.8-5.5 3.7-2 2.1-4.1 4.3-7 4.3-3.1 0-5.3-2.4-7.3-4.5-1.7-1.8-3.4-3.5-5.2-3.5-1.8 0-3.3 1.6-5 3.4-2.1 2.2-4.4 4.6-7.9 4.6-3.4 0-5.7-2.6-7.6-4.7-1.1-1.2-2.3-2.6-3.1-2.6-.8 0-1.5-.7-1.5-1.5s.7-1.5 1.5-1.5c2.1 0 3.7 1.7 5.4 3.6 1.6 1.8 3.4 3.7 5.4 3.7 2.2 0 3.9-1.8 5.7-3.7 2-2.1 4.1-4.3 7.2-4.3s5.3 2.4 7.3 4.5c1.7 1.8 3.4 3.5 5.2 3.5 1.6 0 3.2-1.6 4.8-3.4 2-2.2 4.4-4.6 7.7-4.6 3.2 0 5.1 2.4 6.8 4.5 1.5 1.9 2.9 3.5 4.8 3.5 2.2 0 4-2.3 5.5-4.3 1.5-1.9 2.9-3.7 4.8-3.7.8 0 1.5.7 1.5 1.5s-.7 1.5-1.5 1.5c-.5 0-1.7 1.6-2.5 2.6-1.9 2.4-4.2 5.4-7.9 5.4zm-35.7 33.9h-5.1c-1.9 0-3.5-1.6-3.5-3.5v-3.3c0-.1-.1-.3-.1-.4l-3.6-3.6c-.7-.7-1-1.5-1-2.5v-5h3v5c0 .1.1.3.1.4l3.6 3.6c.7.7 1 1.5 1 2.5v3.3c0 .3.2.5.5.5h5.1c.3 0 .5-.2.5-.5v-3.4c0-.9.4-1.8 1-2.5l3.5-3.5c.1-.1.1-.2.1-.4v-4h3v4c0 .9-.4 1.8-1 2.5L30.1 97c-.1.1-.1.2-.1.4v3.4c-.1 1.9-1.6 3.5-3.6 3.5zm26.6 0h-5.1c-1.9 0-3.5-1.6-3.5-3.5v-3.4c0-.1-.1-.3-.1-.4l-3.5-3.5c-.7-.7-1-1.5-1-2.5v-4h3v4c0 .1.1.3.1.4l3.5 3.5c.7.7 1 1.5 1 2.5v3.4c0 .3.2.5.5.5H53c.3 0 .5-.2.5-.5v-3.3c0-.9.4-1.8 1-2.5l3.6-3.6c.1-.1.1-.2.1-.4v-5h3v5c0 .9-.4 1.8-1 2.5l-3.6 3.6c-.1.1-.1.2-.1.4v3.3c0 1.9-1.6 3.5-3.5 3.5z"/><path d="M50.7 125.1c-13.2 0-26.3-5-36.3-15-.6-.6-.6-1.6 0-2.2.6-.6 1.6-.6 2.2 0 18.9 18.9 49.5 18.9 68.4 0 9-9.1 14-21.2 14-34.1s-5-25.1-14.2-34.2c-.6-.6-.6-1.6 0-2.2.6-.6 1.6-.6 2.2 0 9.7 9.7 15.1 22.6 15.1 36.3 0 13.7-5.3 26.6-15.1 36.3-10 10.1-23.1 15.1-36.3 15.1z"/></symbol><symbol viewBox="0 0 125 125" id="eqt6"><circle cx="60.2" cy="73.5" r="50.5" fill="#ffeb7b"/><path d="M60.1 125c-13.2 0-26.3-5-36.3-15-.6-.6-.6-1.6 0-2.2.6-.6 1.6-.6 2.2 0 18.9 18.9 49.5 18.9 68.4 0 9.1-9.1 14.2-21.3 14.2-34.2s-5-25.1-14.2-34.2c-.6-.6-.6-1.6 0-2.2.6-.6 1.6-.6 2.2 0 9.7 9.7 15.1 22.6 15.1 36.3 0 13.7-5.3 26.6-15.1 36.3C86.5 120 73.3 125 60.1 125z"/><path d="M80.1 6.2c1.1 0 2 .9 2 2V84c0 1.1-.9 2-2 2H11c-1.1 0-2-.9-2-2V8.2c0-1.1.9-2 2-2h69.1m0-3H11c-2.8 0-5 2.3-5 5V84c0 2.8 2.3 5 5 5h69.2c2.8 0 5-2.3 5-5V8.2c-.1-2.7-2.3-5-5.1-5z"/><path d="M80.1 89.1h-3V14.6c0-1.6-1.3-2.9-2.9-2.9H16.9c-1.6 0-2.9 1.3-2.9 2.9V89h-3V14.6c0-3.3 2.7-5.9 5.9-5.9h57.3c3.3 0 5.9 2.7 5.9 5.9v74.5z"/><path d="M44.2 10.2h2.6V89h-2.6z"/><path d="M12.5 48.3h67v2.6h-67zM19.7 28c-.4 0-.8-.1-1.1-.4-.6-.6-.6-1.5 0-2.1l9.6-9.6c.6-.6 1.5-.6 2.1 0 .6.6.6 1.5 0 2.1l-9.6 9.6c-.2.2-.6.4-1 .4zm.2 9.4c-.4 0-.8-.1-1.1-.4-.6-.6-.6-1.5 0-2.1l9.4-9.4c.6-.6 1.5-.6 2.1 0 .6.6.6 1.5 0 2.1L21 36.9c-.3.3-.7.5-1.1.5zm13.5-12.9c-.4 0-.8-.1-1.1-.4-.6-.6-.6-1.5 0-2.1l5.1-5.1c.6-.6 1.5-.6 2.1 0 .6.6.6 1.5 0 2.1l-5 5c-.3.3-.7.5-1.1.5zm28.5 58.9c-.4 0-.8-.1-1.1-.4-.6-.6-.6-1.5 0-2.1l9.6-9.6c.6-.6 1.5-.6 2.1 0s.6 1.5 0 2.1L62.9 83c-.3.2-.6.4-1 .4zm0-9.6c-.4 0-.8-.1-1.1-.4-.6-.6-.6-1.5 0-2.1l9.4-9.4c.6-.6 1.5-.6 2.1 0 .6.6.6 1.5 0 2.1l-9.4 9.4c-.3.2-.6.4-1 .4zm-9.2 8.6c-.4 0-.8-.1-1.1-.4-.6-.6-.6-1.5 0-2.1l5.1-5.1c.6-.6 1.5-.6 2.1 0s.6 1.5 0 2.1L53.7 82c-.2.2-.6.4-1 .4zM84.5 98h-79c-3 0-5.5-2.5-5.5-5.5V85c0-.8.7-1.5 1.5-1.5S3 84.1 3 85v7.5C3 93.9 4.1 95 5.5 95h79c1.4 0 2.5-1.1 2.5-2.5V85c0-.8.7-1.5 1.5-1.5s1.5.6 1.5 1.5v7.5c0 3-2.5 5.5-5.5 5.5z"/><path d="M16.9 105.2H11c-1.9 0-3.5-1.6-3.5-3.5v-5.3c0-.8.7-1.4 1.5-1.4s1.5.7 1.5 1.5v5.3c0 .3.2.5.5.5h5.8c.3 0 .5-.2.5-.5v-5.3c0-.8.7-1.5 1.5-1.5s1.5.7 1.5 1.5v5.3c.1 1.9-1.5 3.4-3.4 3.4zm62 0H73c-1.9 0-3.5-1.6-3.5-3.5v-5.3c0-.8.7-1.5 1.5-1.5s1.5.7 1.5 1.5v5.3c0 .3.2.5.5.5h5.8c.3 0 .5-.2.5-.5v-5.3c0-.8.7-1.5 1.5-1.5s1.5.7 1.5 1.5v5.3c.1 2-1.5 3.5-3.4 3.5z"/></symbol><symbol viewBox="0 0 125 125" id="eqt7"><circle cx="66.6" cy="73.5" r="50.5" fill="#ffeb7b"/><path d="M66.5 125c-13.2 0-26.3-5-36.3-15-.6-.6-.6-1.6 0-2.2.6-.6 1.6-.6 2.2 0 18.9 18.9 49.5 18.9 68.4 0 9.1-9.1 14.2-21.3 14.2-34.2s-5-25.1-14.2-34.2c-.6-.6-.6-1.6 0-2.2.6-.6 1.6-.6 2.2 0 9.7 9.7 15.1 22.6 15.1 36.3 0 13.7-5.3 26.6-15.1 36.3C92.8 120 79.6 125 66.5 125z"/><path d="M106.9 59.5H-.2l33.3-19.3h41.7l32.1 19.3zm-96-3h85.2L73.9 43.2h-40l-23 13.3z"/><path d="M72 41.7h-3v-4.5c0-.3-.2-.5-.5-.5H38.8c-.3 0-.5.2-.5.5v4.5h-3v-4.5c0-1.9 1.6-3.5 3.5-3.5h29.7c1.9 0 3.5 1.6 3.5 3.5v4.5z"/><path d="M65 36.7H41.3v-9.8H65v9.8zm-20.7-3H62v-3.8H44.3v3.8z"/><path d="M65.3 29.8H41.2c-1.9 0-3.5-1.6-3.5-3.5v-3.2c0-1.9 1.6-3.5 3.5-3.5h24.2c1.9 0 3.5 1.6 3.5 3.5v3.2c-.1 2-1.6 3.5-3.6 3.5zm-24.1-7.1c-.3 0-.5.2-.5.5v3.2c0 .3.2.5.5.5h24.2c.3 0 .5-.2.5-.5v-3.2c0-.3-.2-.5-.5-.5H41.2z"/><path d="M60.2 21.2h-3V16c0-.3-.2-.5-.5-.5h-6.3c-.3 0-.5.2-.5.5v5.2h-3V16c0-1.9 1.6-3.5 3.5-3.5h6.3c1.9 0 3.5 1.6 3.5 3.5v5.2zm-7 69.1c-.8 0-1.5-.7-1.5-1.5V58c0-.8.7-1.5 1.5-1.5s1.5.7 1.5 1.5v30.8c0 .9-.7 1.5-1.5 1.5z"/><path d="M57.1 91.2h-.4c-.8 0-1.5-.7-1.4-1.6 0-.8.7-1.5 1.6-1.4 1.1 0 1.9-.2 2.3-.6.1-.1.4-.4.4-1.1 0-.6 0-2-6.4-2-6.2 0-9.4-1.7-9.4-5.2 0-5.1 5.4-5.7 9.5-5.7 6.3 0 6.3-2.4 6.3-3.2 0-2.3-4-2.7-6.3-2.7-3.5 0-5.6-.6-6.9-1.8-1.6-1.6-1.6-4-1.6-7.3v-.7c0-.8.7-1.5 1.5-1.5s1.5.7 1.5 1.5v.7c0 2.6 0 4.4.8 5.2.6.6 2.2 1 4.7 1 8.1 0 9.3 3.6 9.3 5.7 0 2.3-1.2 6.2-9.3 6.2-6.5 0-6.5 1.9-6.5 2.7 0 1.9 4 2.2 6.4 2.2 3.1 0 9.4 0 9.4 5 0 1.7-.7 2.7-1.3 3.3-1.1.8-2.5 1.3-4.2 1.3zm-3.9-75.7c-.8 0-1.5-.7-1.5-1.5V2c0-.8.7-1.5 1.5-1.5s1.5.7 1.5 1.5v12c0 .8-.7 1.5-1.5 1.5z"/><path d="M67.4 59.7l4.3 22.2c-.2 10.1-8.4 18.2-18.5 18.2S34.9 92 34.7 81.9l4.6-22.2h28.1m2.5-3.1h-33l-5.2 25c0 11.9 9.7 21.6 21.6 21.6 11.9 0 21.6-9.7 21.6-21.6l-5-25z"/></symbol><symbol viewBox="0 0 125 125" id="eqt8"><circle cx="61.5" cy="73.5" r="50.5" fill="#ffeb7b"/><path d="M61.4 125c-13.2 0-26.3-5-36.3-15-.6-.6-.6-1.6 0-2.2.6-.6 1.6-.6 2.2 0 18.9 18.9 49.5 18.9 68.4 0 9.1-9.1 14.2-21.3 14.2-34.2s-5-25.1-14.2-34.2c-.6-.6-.6-1.6 0-2.2.6-.6 1.6-.6 2.2 0 9.7 9.7 15.1 22.6 15.1 36.3 0 13.7-5.3 26.6-15.1 36.3C87.8 120 74.6 125 61.4 125z"/><path d="M69.7 79.2H37.6c-8.4 0-15.2-8.3-15.2-15.2V26.3h61.1v37.2c.1 8.9-8.4 15.7-13.8 15.7zM25.4 29.3V64c0 4.8 5.2 12.2 12.2 12.2h32.1c3.7 0 10.9-5.4 10.9-12.7V29.3H25.4z"/><path d="M58.9 89.1h-10c-2.5 0-4.5-2-4.5-4.5v-8.4h19v8.4c0 2.5-2 4.5-4.5 4.5zm-11.5-9.9v5.4c0 .8.7 1.5 1.5 1.5h10c.8 0 1.5-.7 1.5-1.5v-5.4h-13zM23.9 39.3H82v3H23.9zM49.5 53h-3.6v3.7h3.6V53zm6.3 0h-3.6v3.7h3.6V53zm6.1 0h-3.6v3.7h3.6V53zM41.4 29.3h-11V6.5c0-3 2.5-5.5 5.5-5.5h.1c3 0 5.5 2.5 5.5 5.5v22.8zm-8-3h5.1V6.5C38.5 5.1 37.4 4 36 4h-.1c-1.4 0-2.5 1.1-2.5 2.5v19.8zm41 1.5h-3V6.5c0-1.4-1.1-2.5-2.5-2.5s-2.6 1.1-2.6 2.5v21.3h-3V6.5c0-3 2.5-5.5 5.5-5.5 3.1 0 5.6 2.5 5.6 5.5v21.3z"/><path d="M37.5 105.5c-12.9 0-16.9-12.4-16.9-16.9 0-3.3-2.9-4.4-4.4-4.4H1.5c-.8 0-1.5-.7-1.5-1.5s.7-1.5 1.5-1.5h14.8c3.1 0 7.4 2.3 7.4 7.4 0 3.7 3.3 13.9 13.9 13.9 11.7 0 14.9-3.2 14.9-14.9 0-.8.7-1.5 1.5-1.5s1.5.7 1.5 1.5c-.1 13.4-4.6 17.9-18 17.9z"/></symbol><symbol viewBox="-120.8 125.1 12.2 11.8" id="lp-zenit-arrow-bottom"><path d="M-108.7 129.4v-1.6l-6.1 5.4-6-5.4v1.6l6 5.4z"/></symbol><symbol viewBox="-123.2 125 12.6 12.1" id="lp-zenit-arrow-left"><path d="M-115 137.1h1.6l-5.4-6.1 5.4-6h-1.6l-5.4 6z"/></symbol><symbol viewBox="-123.2 125 12.6 12.1" id="lp-zenit-arrow-right"><path d="M-118.8 125h-1.6l5.4 6.1-5.4 6h1.6l5.4-6z"/></symbol><symbol viewBox="0 0 309.143 309.143" id="msk76-arrow-right"><path d="M240.481 149.268L93.41 2.197a7.5 7.5 0 0 0-10.606 0L68.661 16.34a7.497 7.497 0 0 0 0 10.606l127.626 127.625L68.661 282.197a7.497 7.497 0 0 0 0 10.606l14.143 14.143a7.478 7.478 0 0 0 5.303 2.197 7.474 7.474 0 0 0 5.303-2.197l147.071-147.071a7.499 7.499 0 0 0 0-10.607z"/></symbol><symbol viewBox="442.5 242.5 75 75" id="play"><path d="M480.001 317.636c-20.678 0-37.5-16.885-37.5-37.637s16.822-37.636 37.5-37.636c20.677 0 37.5 16.883 37.5 37.636-.001 20.753-16.823 37.637-37.5 37.637zm0-73.272c-19.575 0-35.501 15.986-35.501 35.636 0 19.651 15.926 35.637 35.501 35.637 19.574 0 35.5-15.986 35.5-35.637-.001-19.65-15.927-35.636-35.5-35.636zm-8.498 51.136l23.243-13.875-23.243-14.454V295.5z"/></symbol><symbol viewBox="0 0 375.795 375.795" id="zenit-filter-all"><path d="M364.053 324.635V61.498H257.919V35.136H117.877v26.361H11.743v263.138H0v16.023h375.795v-16.023h-11.742zm-218.954 0H27.767V77.521h117.332v247.114zm69.575 0h-53.552v-27.787h53.552v27.787zm0-258.141h-18.415v25.492h18.415v15.622h-18.415V133.1h18.415v15.625h-18.415v25.491h18.415v15.623h-18.415v25.492h18.415v15.624h-18.415v25.489h18.415v25.382h-53.552v-25.382h18.414v-25.489h-18.414v-15.624h18.414v-25.492h-18.414v-15.623h18.414v-25.491h-18.414V133.1h18.414v-25.492h-18.414V91.986h18.414V66.494h-18.414v-4.996h-28.224v-11.34h109.999v11.34h-28.224v4.996zm133.355 258.141H230.697V77.521h117.332v247.114z"/><path d="M246.238 94.947h34.207v27.19h-34.207zm52.044 0h34.207v27.19h-34.207zm-52.044 43.855h34.207v27.189h-34.207zm52.044 0h34.207v27.189h-34.207zm-52.044 43.856h34.207v27.191h-34.207zm52.044 0h34.207v27.191h-34.207zm-52.044 43.857h34.207v27.191h-34.207zm52.044 0h34.207v27.191h-34.207zm-52.044 43.856h34.207v27.191h-34.207zm52.044 0h34.207v27.191h-34.207zM43.308 94.947h34.207v27.19H43.308zm52.043 0h34.207v27.19H95.351zm-52.043 43.855h34.207v27.189H43.308zm52.043 0h34.207v27.189H95.351zm-52.043 43.856h34.207v27.191H43.308zm52.043 0h34.207v27.191H95.351zm-52.043 43.857h34.207v27.191H43.308zm52.043 0h34.207v27.191H95.351zm-52.043 43.856h34.207v27.191H43.308zm52.043 0h34.207v27.191H95.351z"/></symbol><symbol viewBox="0 0 40 40" id="zenit-filter-build"><path d="M13.4 4.1l5 5.1v24.6h-5V4.1M13 2.3l-.7.4v32h7v-26L13 2.3zm18.4 7.5v7h-2v-7h2m1-1h-4v9h4v-9z"/><path d="M30.605 16.635l.707.707-3.819 3.818-.707-.707zm1.45.703l.707.707-4.596 4.596-.707-.707zm1 1l.707.707-4.596 4.596-.707-.707zm.495 1.469l.707.708-3.606 3.606-.707-.707z"/><path d="M30.6 24.4c-2.2 0-3.9-1.8-3.9-3.9 0-2.2 1.8-3.9 3.9-3.9 2.2 0 3.9 1.8 3.9 3.9 0 2.2-1.8 3.9-3.9 3.9zm0-6.8c-1.6 0-2.9 1.3-2.9 2.9 0 1.6 1.3 2.9 2.9 2.9s2.9-1.3 2.9-2.9c-.1-1.6-1.4-2.9-2.9-2.9z"/><path d="M4.4 8.6h31v2.3h-31zm20 22.2h11.9v4H24.4zm4.5-6.9h3v2.9h-3zm-19 10.4h12v1.5h-12z"/><path d="M7.9 35.3h16v3h-16zM30.4 26.2l3.5 3.5h-7.1l3.6-3.5m0-1.4l-6 6h11.9l-5.9-6zM12.6 2.9l15.9 4.7H7.1l5.5-4.7m-.2-1.1l-8 6.8h31l-23-6.8z"/><path d="M13.4 4.1l5 5.1v26h-5V4.1m-1-1.8v33.9h7V8.7l-5.8-5.9-1.2-.5z"/><path d="M15.8 36.6l-.7-.7 2.5-2.6H13l-.4-.9 5-5h-4.7l-.4-.8 5.1-5.1h-4.8l-.4-.9 5.2-5.2h-4.8l-.4-.9 4.7-4.6h-4.2v-1h5.4l.3.9-4.6 4.6h4.8l.4.8-5.2 5.3h4.8l.4.8-5.1 5.1h4.7l.4.9-5 5h4.6l.4.8z"/></symbol><symbol viewBox="0 0 106.9 105.6" id="zenit-filter-buy"><path d="M68.7 61h-31V0h31v61zm-29-2h27V2h-27v57z"/><path d="M61 98.1H44.8V59H61v39.1zm-14.2-2H59V61H46.8v35.1z"/><path d="M70.6 105.3H35.7v-9.2h34.9v9.2zm-32.9-2h30.9v-5.1H37.7v5.1zM76 18.7h-9.3v-6.1h2v4.1H76z"/><path d="M90.9 105.3H66.8V11.7h25.1v47.7h-2V13.7H68.8v89.6h22.1zM45.6 11.1h4.3V15h-4.3z"/><path d="M50.9 16h-6.3v-5.9h6.3V16zm-4.3-2h2.3v-1.9h-2.3V14zm9.8-2.9h4.3V15h-4.3z"/><path d="M61.7 16h-6.3v-5.9h6.3V16zm-4.3-2h2.3v-1.9h-2.3V14zm-11.8 5.9h4.3v3.9h-4.3z"/><path d="M50.9 24.8h-6.3v-5.9h6.3v5.9zm-4.3-2h2.3v-1.9h-2.3v1.9zm9.8-2.9h4.3v3.9h-4.3z"/><path d="M61.7 24.8h-6.3v-5.9h6.3v5.9zm-4.3-2h2.3v-1.9h-2.3v1.9zm-11.8 6.1h4.3v3.9h-4.3z"/><path d="M50.9 33.8h-6.3v-5.9h6.3v5.9zm-4.3-2h2.3v-1.9h-2.3v1.9zm9.8-2.9h4.3v3.9h-4.3z"/><path d="M61.7 33.8h-6.3v-5.9h6.3v5.9zm-4.3-2h2.3v-1.9h-2.3v1.9zm-11.8 6h4.3v3.9h-4.3z"/><path d="M50.9 42.7h-6.3v-5.9h6.3v5.9zm-4.3-2h2.3v-1.9h-2.3v1.9zm9.8-2.9h4.3v3.9h-4.3z"/><path d="M61.7 42.7h-6.3v-5.9h6.3v5.9zm-4.3-2h2.3v-1.9h-2.3v1.9zm-11.8 6.1h4.3v3.9h-4.3z"/><path d="M50.9 51.7h-6.3v-5.9h6.3v5.9zm-4.3-2h2.3v-1.9h-2.3v1.9zm9.8-2.9h4.3v3.9h-4.3z"/><path d="M61.7 51.7h-6.3v-5.9h6.3v5.9zm-4.3-2h2.3v-1.9h-2.3v1.9zm20.2-27.9h4.3v3.9h-4.3z"/><path d="M82.9 26.6h-6.3v-5.9h6.3v5.9zm-4.3-2h2.3v-1.9h-2.3v1.9zm-1 6h4.3v3.9h-4.3z"/><path d="M82.9 35.4h-6.3v-5.9h6.3v5.9zm-4.3-2h2.3v-1.9h-2.3v1.9zm-1 6.2h4.3v3.9h-4.3z"/><path d="M82.9 44.4h-6.3v-5.9h6.3v5.9zm-4.3-2h2.3v-1.9h-2.3v1.9zm-1 6h4.3v3.9h-4.3z"/><path d="M82.9 53.3h-6.3v-5.9h6.3v5.9zm-4.3-2h2.3v-1.9h-2.3v1.9zm-39-32.6h-9.3v-2h7.3v-4.1h2z"/><path d="M39.6 105.3H14.4V11.7h25.1v93.6zm-23.2-2h21.1V13.7H16.4v89.6z"/><path d="M24.4 21.8h4.3v3.9h-4.3z"/><path d="M29.8 26.7h-6.3v-5.9h6.3v5.9zm-4.4-2h2.3v-1.9h-2.3v1.9zM24.4 30.6h4.3v3.9h-4.3z"/><path d="M29.8 35.5h-6.3v-5.9h6.3v5.9zm-4.4-2h2.3v-1.9h-2.3v1.9zM24.4 39.6h4.3v3.9h-4.3z"/><path d="M29.8 44.5h-6.3v-5.9h6.3v5.9zm-4.4-2h2.3v-1.9h-2.3v1.9zM24.4 48.5h4.3v3.9h-4.3z"/><path d="M29.8 53.3h-6.3v-5.9h6.3v5.9zm-4.4-2h2.3v-1.9h-2.3v1.9zM24.4 57.5h4.3v3.9h-4.3z"/><path d="M29.8 62.3h-6.3v-5.9h6.3v5.9zm-4.4-2h2.3v-1.9h-2.3v1.9zM24.4 66.2h4.3v3.9h-4.3z"/><path d="M29.8 71.1h-6.3v-5.9h6.3v5.9zm-4.4-2h2.3v-1.9h-2.3v1.9z"/><g><path d="M24.4 75.2h4.3v3.9h-4.3z"/><path d="M29.8 80.1h-6.3v-5.9h6.3v5.9zm-4.4-2h2.3v-1.9h-2.3v1.9z"/></g><g><path d="M24.4 84.1h4.3V88h-4.3z"/><path d="M29.8 88.9h-6.3V83h6.3v5.9zm-4.4-2h2.3V85h-2.3v1.9z"/></g><g><path d="M24.4 93.1h4.3V97h-4.3z"/><path d="M29.8 97.9h-6.3V92h6.3v5.9zm-4.4-2h2.3V94h-2.3v1.9z"/></g><g><path d="M-1.8 104.6h108.7m-108.7-1H107v2H-1.8z"/></g><path d="M92.6 82.3c5.4 0 9.8-4.4 9.8-9.8s-4.4-9.8-9.8-9.8h-8.1c-1 0-1.7.8-1.7 1.7v21.3h-1.7c-1 0-1.7.8-1.7 1.7s.8 1.7 1.7 1.7h1.7V99c0 1 .8 1.7 1.7 1.7 1 0 1.7-.8 1.7-1.7v-9.8h6.3c1 0 1.7-.8 1.7-1.7s-.8-1.7-1.7-1.7h-6.3v-3.5h6.4zm0-16.2c3.5 0 6.3 2.9 6.3 6.3 0 3.5-2.8 6.3-6.3 6.3h-6.3V66.1h6.3z"/></symbol><symbol viewBox="0 0 41.3 41.4" id="zenit-filter-ready"><path d="M26.1 9.8V41h4.3V7.7zM6.2 9.4v-3l10-5.8V4zm0 2.6l10-4.9v3.4l-10 4.4zm0 8.8v-3.3l10-4v3.9zm0 5.9v-3.3l10-2.9v3.9zm0 5.9v-3.3l10-1.9v3.9zm0 8.1v-5.5l10-.9v6.5zm11.3.3v-6.5l7.3.7v5.6zm0-9.6v-3.9l7.3 1.6v3.4zm0-6.9v-3.9l7.3 2.5v3.4zm0-7v-3.9l7.3 3.5v3.4zm0-6.9V7.1l7.3 4.4v3zm0-6.5V.6l7.3 5.2v3zm13.8 6.4V7.7l6.1 4.3v2.5zm0 5.4V13l6.1 3.6v2.5zm0 5.7v-3.2l6.1 2.9v2.8l-6-2.4zm0 5.8v-3.3l6.1 2.1V29zm0 5.7v-3.2l6.1 1.3V34zm0 7.9v-5.4l6.1.6v4.6z"/></symbol></svg>