<?xml version="1.0" encoding="utf-8"?>
<!-- Generator: Adobe Illustrator 19.0.0, SVG Export Plug-In . SVG Version: 6.00 Build 0)  -->
<svg version="1.1" id="Capa_1" xmlns="http://www.w3.org/2000/svg" xmlns:xlink="http://www.w3.org/1999/xlink" x="0px" y="0px"
	 viewBox="-90 362 413.5 117.9" style="enable-background:new -90 362 413.5 117.9;" xml:space="preserve">
<path d="M-90,453.9v-63.5h45h0.6c15.8,0,33.3,9.6,33.3,31.9c0,22.4-15.9,31.6-34.5,31.6h-0.5L-90,453.9z M-68,405.9v31.9l19.2,0
	c8.4,0,13.4-7.2,13.4-16.3c0-7.6-5-15.5-13.4-15.5H-60H-68z"/>
<polygon points="30.2,390.8 56.5,390.8 68.2,406 104.5,363.8 111.7,363.8 17.7,480 8.5,480 56,421.9 "/>
<polygon points="120,363.8 128,363.8 82,421.9 107.7,453.5 81,453.5 68.7,437.5 34.7,480 25.5,480 "/>
<polygon points="247,453.8 247,390.7 273.8,390.7 299.2,427.3 299.2,390.7 323.5,390.7 323.5,453.8 296.2,453.8 270.7,417.1 
	270.7,453.8 "/>
<rect x="116.9" y="390.7" width="24.4" height="63.2"/>
<rect x="-2.8" y="390.7" width="24" height="63.2"/>
<g>
	<path d="M224.8,400c7.7,6.2,12.8,13.8,12.8,23.6s-5.3,17.1-13,23.3c-7.7,6.1-17.2,9.7-30,9.7c-12.9,0-22.8-3.8-30.4-9.9
		c-7.7-6.2-12.9-13.4-12.9-23.1c0-9.6,5.3-17.4,13-23.8c8.7-6.2,17.4-9.2,30.2-9.2C207.3,390.8,217.3,393.7,224.8,400z M176.6,423.8
		c0,11.3,8.8,18.4,17.8,18.4c8.7,0,18.4-6.4,18.4-18.7c0-11.3-9.2-18-17.8-18C186.4,405.4,176.6,411.5,176.6,423.8z"/>
</g>

</svg>
