<?xml version="1.0" encoding="utf-8"?>
<!-- Generator: Adobe Illustrator 19.0.0, SVG Export Plug-In . SVG Version: 6.00 Build 0)  -->
<svg version="1.1" id="Слой_1" xmlns="http://www.w3.org/2000/svg" xmlns:xlink="http://www.w3.org/1999/xlink" x="0px" y="0px"
	 viewBox="0 0 210.7 43.1" style="enable-background:new 0 0 210.7 43.1;" xml:space="preserve">
<path id="XMLID_29_" d="M210,20.9c0,0-3.3,0.3-9,0.7c-5.7,0.4-13.9,0.9-23.8,1.3c-4.9,0.2-10.3,0.5-15.9,0.6
	c-5.6,0.2-11.6,0.4-17.7,0.5c-6.2,0.1-12.5,0.2-19,0.3c-6.5,0-13,0.1-19.6,0.1c-6.6,0-13.1-0.1-19.6-0.1c-6.5-0.1-12.8-0.2-19-0.3
	c-6.2-0.1-12.1-0.3-17.7-0.5c-5.6-0.2-11-0.4-15.9-0.6C23,22.5,14.8,22,9,21.6c-5.7-0.4-9-0.7-9-0.7s3.3-0.3,9-0.7
	c5.7-0.4,13.9-0.9,23.8-1.3c4.9-0.2,10.3-0.5,15.9-0.6c5.6-0.2,11.6-0.4,17.7-0.5c6.2-0.1,12.5-0.2,19-0.3c6.5,0,13-0.1,19.6-0.1
	c6.6,0,13.1,0.1,19.6,0.1c6.5,0.1,12.8,0.2,19,0.3c6.2,0.1,12.1,0.3,17.7,0.5c5.6,0.2,11,0.4,15.9,0.6c9.8,0.4,18,0.9,23.8,1.3
	C206.7,20.6,210,20.9,210,20.9z"/>
<path id="XMLID_30_" d="M166.2,0c1.8,0.9,3.5,1.9,5.2,2.7c0.9,0.4,1.7,0.9,2.6,1.3l2.6,1.3c1.8,0.8,3.5,1.7,5.3,2.4
	c1.8,0.8,3.5,1.6,5.3,2.3c3.6,1.5,7.1,2.9,10.7,4.3c1.8,0.7,3.6,1.4,5.4,2c1.8,0.7,3.6,1.3,5.4,1.9c1.5,0.5,2.3,2.1,1.8,3.6
	c-0.3,0.9-0.9,1.5-1.7,1.8l0,0c-1.8,0.6-3.7,1.3-5.5,2c-1.8,0.7-3.7,1.4-5.5,2.2c-1.8,0.7-3.7,1.5-5.5,2.3c-0.9,0.4-1.8,0.8-2.7,1.2
	c-0.9,0.4-1.8,0.8-2.7,1.2l-2.7,1.2l-2.7,1.3c-0.9,0.4-1.8,0.8-2.7,1.3l-2.7,1.3l-2.7,1.3c-0.9,0.4-1.7,1-2.6,1.4
	c-1.8,0.9-3.5,2-5.3,2.9c0.7-0.7,1.4-1.4,2.1-2.1c0.7-0.7,1.5-1.4,2.3-2c0.8-0.7,1.5-1.3,2.3-1.9l2.4-1.9c0.8-0.6,1.7-1.2,2.5-1.7
	c0.8-0.6,1.7-1.2,2.5-1.7c1.7-1.1,3.4-2.1,5.2-3.2c1.8-1,3.5-2,5.3-2.9c1.8-0.9,3.6-1.8,5.5-2.7c1.8-0.8,3.7-1.6,5.6-2.4
	c1.9-0.8,3.8-1.5,5.7-2.2l0,5.3c-1.9-0.7-3.8-1.3-5.6-2.1c-1.8-0.7-3.7-1.5-5.5-2.3c-1.8-0.8-3.6-1.6-5.4-2.5
	c-1.8-0.9-3.5-1.8-5.3-2.8c-1.7-1-3.5-1.9-5.1-3c-0.8-0.5-1.7-1.1-2.5-1.6c-0.8-0.6-1.7-1.1-2.5-1.7l-2.4-1.8
	c-0.8-0.6-1.6-1.2-2.3-1.9c-0.8-0.6-1.5-1.3-2.2-2C167.7,1.4,166.9,0.7,166.2,0z"/>
</svg>
