<svg width="500" height="319" viewBox="0 0 500 319" xmlns="http://www.w3.org/2000/svg">
<path d="M8.71703 120.034C9.3182 119.433 9.71898 119.032 10.22 118.532L11.6227 117.129L14.328 114.423L19.7386 109.213C23.3456 105.807 27.0528 102.4 30.6599 98.9933C34.3671 95.6869 38.0744 92.3804 41.8818 89.1742C45.6892 85.9679 49.4967 82.7617 53.4043 79.6556C57.3119 76.5495 61.1194 73.4434 65.1272 70.4376L71.1389 65.9288L77.1507 61.5202C81.1585 58.6145 85.3667 55.7088 89.4748 52.9033C93.683 50.0978 97.8912 47.3926 102.099 44.6873C106.408 41.982 110.716 39.3769 115.125 36.872L118.431 34.9683L121.738 33.1648L128.451 29.5577C130.655 28.3554 132.96 27.2532 135.264 26.0509C137.569 24.9487 139.873 23.8466 142.178 22.7444C146.787 20.6403 151.496 18.436 156.205 16.6325C161.014 14.7288 165.724 12.8251 170.633 11.3221C173.038 10.5206 175.543 9.71898 178.048 8.91742C180.553 8.21605 183.058 7.51468 185.562 6.9135C188.067 6.31233 190.572 5.61096 193.177 5.21018C194.48 4.90959 195.682 4.7092 196.985 4.50881C198.287 4.30841 199.49 4.00783 200.792 3.90763C205.902 3.20626 211.112 2.60509 216.322 2.70529H217.024C218.126 2.70529 218.928 3.60704 218.928 4.609C218.928 5.41057 218.427 6.11194 217.725 6.41253C208.808 9.81918 200.291 14.0274 191.975 18.7366C187.767 21.0411 183.759 23.546 179.651 26.1511C175.643 28.656 171.635 31.3613 167.627 34.0665C163.72 36.7718 159.712 39.4771 155.905 42.2826C151.997 45.0881 148.189 47.9937 144.382 50.8994C136.767 56.7108 129.252 62.7225 121.838 68.8344C114.423 74.9464 107.209 81.2587 99.9953 87.6712C92.7812 93.9836 85.6673 100.496 78.6536 107.009C71.6399 113.522 64.6262 120.235 57.8129 126.948C54.4063 130.355 50.9996 133.661 47.593 137.068C45.0881 139.573 42.5832 142.077 40.1785 144.683L48.2943 153.099L59.0153 164.121C66.2294 171.435 73.4434 178.749 80.7577 186.063C88.072 193.277 95.3863 200.492 102.801 207.706L113.722 218.326L124.844 228.947C132.258 236.061 139.773 243.075 147.388 249.988C151.195 253.495 155.003 256.902 158.81 260.308C162.618 263.715 166.525 267.122 170.333 270.528C174.14 273.935 178.048 277.241 181.955 280.648C185.863 283.955 189.771 287.261 193.778 290.568C195.782 292.171 197.786 293.774 199.79 295.377C201.794 296.98 203.798 298.583 205.802 300.186C207.806 301.789 209.81 303.292 211.914 304.895L218.126 309.504C219.028 310.106 219.128 311.308 218.527 312.21C218.026 312.811 217.224 313.112 216.523 312.911L215.822 312.711L211.814 311.609L207.906 310.406C205.301 309.605 202.696 308.703 200.091 307.801C197.486 306.899 194.981 305.897 192.476 304.895C189.971 303.894 187.466 302.791 184.961 301.789C179.951 299.685 175.142 297.281 170.232 294.976L163.119 291.269C160.714 290.067 158.309 288.864 156.005 287.461C151.295 284.856 146.686 282.251 142.077 279.446C137.569 276.64 133.06 273.835 128.551 271.029C124.142 268.124 119.734 265.218 115.325 262.212C110.917 259.206 106.708 256.1 102.4 252.994C98.1918 249.888 93.9836 246.682 89.7753 243.476C85.5671 240.269 81.5593 236.963 77.4513 233.656C75.4474 232.053 73.4434 230.35 71.4395 228.647C69.4356 226.943 67.4317 225.34 65.4278 223.537C61.5202 220.13 57.5123 216.723 53.6047 213.216L47.7933 207.906L42.0822 202.596C38.2748 198.989 34.4673 195.382 30.7601 191.775C26.9526 188.168 23.3456 184.36 19.6384 180.653C17.8348 178.749 16.0313 176.845 14.2278 174.942L8.71703 169.13L8.61683 169.03C4.20822 164.421 1.40274 158.91 0 153.099C1.30254 164.922 6.31233 176.445 14.9292 185.863L15.5303 186.564L21.1413 192.676C22.9448 194.68 24.7483 196.684 26.6521 198.488L32.263 204.199L35.0685 207.004L37.9742 209.81C41.7816 213.517 45.589 217.224 49.5969 220.831L55.5084 226.242L61.5202 231.452C65.528 234.959 69.7362 238.265 73.8442 241.672C75.8481 243.375 78.0524 244.978 80.1566 246.682C82.2607 248.285 84.3648 249.988 86.5691 251.591C90.8775 254.798 95.1859 258.004 99.6947 261.01C104.103 264.116 108.612 267.022 113.221 270.027C115.526 271.53 117.83 272.933 120.135 274.336L123.641 276.44L127.148 278.544C131.858 281.35 136.667 283.955 141.577 286.56L148.991 290.367C151.496 291.569 154.001 292.772 156.506 293.974C161.616 296.379 166.625 298.583 171.936 300.787C177.146 302.992 182.456 304.895 187.867 306.899C190.572 307.801 193.277 308.703 196.083 309.605C198.788 310.506 201.594 311.308 204.399 312.009C207.205 312.811 210.01 313.512 212.916 314.214C215.822 314.815 218.627 315.516 221.633 316.117C223.136 316.418 224.639 316.618 226.041 316.919C227.544 317.119 228.947 317.42 230.45 317.62L234.959 318.121C236.462 318.222 237.965 318.422 239.568 318.422L241.472 318.522C242.373 318.522 243.375 318.121 243.977 317.42C244.978 316.117 244.778 314.214 243.476 313.212L237.364 308.402C235.36 306.799 233.356 305.196 231.352 303.493C229.348 301.89 227.344 300.186 225.34 298.583C223.336 296.98 221.332 295.277 219.429 293.573C215.521 290.267 211.613 286.86 207.706 283.454L196.183 273.133C192.276 269.727 188.468 266.22 184.661 262.713C180.853 259.206 177.046 255.699 173.339 252.193C165.824 245.079 158.309 237.965 150.995 230.751L128.852 209.008C121.537 201.694 114.223 194.38 106.909 187.065C99.6947 179.651 92.4806 172.236 85.2665 164.822L68.1331 146.787C70.0368 144.783 71.9405 142.779 73.8442 140.775C77.2509 137.268 80.5573 133.861 83.964 130.455C90.7773 123.641 97.6908 116.928 104.705 110.215C111.718 103.602 118.832 96.9894 125.946 90.5769L136.767 80.9581C140.374 77.7519 143.981 74.5456 147.688 71.4395C155.003 65.1272 162.417 59.0153 170.032 53.1037C173.84 50.0979 177.647 47.1922 181.454 44.3867C185.262 41.481 189.169 38.7757 193.077 35.9703C196.985 33.1648 200.993 30.4595 205 27.8544C209.008 25.2493 213.116 22.6442 217.224 20.3397C221.332 17.935 225.541 15.6305 229.749 13.5264C233.957 11.3221 238.265 9.3182 242.674 7.61487C243.576 7.21409 244.277 6.41253 244.578 5.41057C244.878 3.70724 243.776 2.10411 242.173 1.80353L240.47 1.50294C234.759 0.400783 229.047 0.100196 223.336 0C221.933 0 220.531 -1.53036e-06 219.128 0.100194C217.725 0.100194 216.323 0.200394 214.92 0.30059C212.114 0.400786 209.309 0.70137 206.503 1.00196C200.892 1.60313 195.482 2.60509 190.071 3.70725C184.661 4.8094 179.35 6.11194 174.04 7.71507C168.83 9.21801 163.62 10.9213 158.51 12.7249C156.005 13.6266 153.4 14.5284 150.895 15.5303C148.39 16.5323 145.885 17.5342 143.48 18.5362C140.975 19.5382 138.571 20.6403 136.166 21.7425L132.559 23.3456L128.952 25.0489C126.547 26.2513 124.142 27.3534 121.838 28.5558L114.824 32.1628C112.52 33.3652 110.215 34.6677 107.911 35.9703C105.606 37.2728 103.302 38.4751 101.097 39.8779C96.6888 42.5832 92.18 45.1883 87.8716 48.0939C85.6673 49.4967 83.5632 50.8994 81.3589 52.3022L75.0466 56.7108C70.8384 59.6164 66.7303 62.7225 62.6223 65.8286C58.5143 68.9346 54.6067 72.1409 50.5988 75.3472C46.6912 78.5534 42.7836 81.9601 38.8759 85.2665C35.0685 88.6732 31.2611 92.0798 27.4536 95.5867L21.8427 100.997L19.0372 103.803L17.6344 105.205L16.9331 105.907L16.1315 106.809C9.3182 114.023 4.609 122.539 2.20431 131.557C3.20626 127.048 5.61096 123.341 8.71703 120.034Z" fill="black"/>
<path d="M8.51663 13.2305C18.0352 12.0281 28.4556 11.0262 39.3769 10.3248C50.2982 9.62342 61.8207 9.12243 73.744 9.42302C79.6556 9.62341 85.7675 9.92401 91.8794 10.3248C97.9914 10.8258 104.204 11.4269 110.416 12.0281C116.628 12.6293 122.94 13.3307 129.252 13.8316C135.565 14.4328 141.877 14.9338 148.29 15.3346C161.014 16.1361 173.739 16.9377 186.164 17.8395C198.688 18.641 211.012 19.643 222.835 20.5447C234.759 21.5467 246.281 22.4485 257.202 23.4504C268.124 24.4524 278.444 25.3541 287.962 26.1557C297.481 26.9573 306.198 27.859 313.913 28.5604C321.628 29.2618 328.441 29.9631 333.952 30.5643C345.174 31.6665 351.486 32.3678 351.486 32.3678C352.589 32.468 353.39 33.47 353.29 34.5721C353.19 35.5741 352.388 36.2755 351.486 36.3757C351.486 36.3757 345.074 36.8766 333.952 37.6782C328.341 38.079 321.628 38.58 313.913 39.081C306.198 39.5819 297.381 40.1831 287.862 40.6841C278.344 41.1851 268.023 41.7862 257.002 42.4876C246.081 43.0888 234.558 43.69 222.635 44.2911C210.712 44.8923 198.387 45.4935 185.863 45.9944C173.339 46.4954 160.614 46.8962 147.889 47.3972C141.577 47.6978 135.164 47.8982 128.852 48.299C122.539 48.6997 116.227 49.1005 109.915 49.6015C103.602 50.0023 97.3902 50.5033 91.2783 50.7036C85.1663 51.0042 79.0544 51.1044 73.1429 51.1044C61.2196 51.0042 49.6971 50.3029 38.7757 49.2007C27.8544 48.1988 17.5342 46.796 8.01566 45.3933C6.81331 45.1929 5.61096 44.9925 4.50881 44.7921C5.71115 45.1929 6.81331 45.4935 8.01566 45.8943C15.7307 48.1988 24.4478 50.5032 33.9663 52.6074C38.6755 53.6093 43.6853 54.6113 48.7953 55.5131C53.9053 56.4148 59.2157 57.2164 64.7264 57.9177C75.6478 59.4207 87.1703 60.4226 99.0936 60.4226C105.005 60.4226 111.117 60.122 117.229 59.7213C123.341 59.2203 129.553 58.6191 135.865 57.9177C148.39 56.515 161.115 55.2125 173.84 54.5111C186.564 53.7095 199.289 53.1083 211.814 52.2066C224.338 51.405 236.662 50.4031 248.586 49.5013C260.509 48.4994 272.031 47.5976 282.953 46.5956C288.463 46.0947 293.774 45.6939 298.884 45.1929C303.994 44.6919 309.004 44.2911 313.813 43.7901C323.332 42.8884 332.149 41.9866 339.864 41.2853C347.579 40.4837 354.392 39.7823 360.003 39.1811C365.614 38.58 369.923 38.079 372.928 37.7784C375.934 37.3776 377.537 37.2774 377.537 37.2774C378.84 37.077 379.842 36.1753 380.042 34.7725C380.243 33.1694 379.14 31.6665 377.537 31.4661C377.537 31.4661 375.934 31.2657 372.928 30.7647C369.923 30.3639 365.614 29.7627 360.003 28.9612C354.492 28.1596 347.679 27.2579 339.964 26.2559C332.249 25.2539 323.532 24.1518 314.013 22.9494C309.204 22.3483 304.294 21.7471 299.184 21.1459C294.074 20.5447 288.764 19.9436 283.253 19.2422C272.332 17.9397 260.809 16.7373 248.986 15.3346C237.063 14.1322 224.739 12.7295 212.315 11.6273C199.79 10.425 187.166 9.32283 174.441 8.22068C161.716 7.11852 149.091 5.41519 136.567 3.61167C130.355 2.70991 124.142 1.90835 118.031 1.30718C111.919 0.706006 105.807 0.205015 99.8951 0.104819C87.9718 -0.295963 76.4493 0.505602 65.528 1.60775C60.0172 2.20893 54.7068 2.8101 49.5969 3.61167C44.4869 4.41323 39.4771 5.2148 34.6677 6.11656C25.1491 7.92008 16.3319 9.92401 8.51663 12.0281C5.51076 12.8297 2.70528 13.6312 0 14.4328C2.80548 13.9318 5.61096 13.531 8.51663 13.2305Z" transform="translate(119.935 117.425)"/>
</svg>