<svg width="500" height="319" viewBox="0 0 500 319" xmlns="http://www.w3.org/2000/svg">
<path d="M235.91 198.488C235.309 199.089 234.908 199.49 234.407 199.991L230.299 204.099L224.889 209.309C221.282 212.716 217.575 216.122 213.967 219.529C210.26 222.835 206.553 226.142 202.746 229.348C198.938 232.554 195.131 235.761 191.223 238.867C187.315 241.973 183.508 245.079 179.5 248.085L173.488 252.594L167.477 257.002C163.469 259.908 159.261 262.814 155.153 265.619C150.944 268.424 146.736 271.13 142.528 273.835C138.219 276.54 133.911 279.145 129.502 281.65L126.196 283.554L122.89 285.358L116.176 288.965C113.972 290.167 111.668 291.269 109.363 292.471C107.059 293.574 104.754 294.676 102.45 295.778C97.8405 297.882 93.1313 300.086 88.4221 301.89C83.6127 303.794 78.9035 305.697 73.994 307.2C71.5893 308.002 69.0844 308.803 66.5795 309.605C64.0746 310.306 61.5697 311.008 59.0648 311.609C56.5599 312.21 54.055 312.911 51.4499 313.312C50.1474 313.613 48.945 313.813 47.6425 314.014C46.3399 314.214 45.1376 314.515 43.835 314.615C38.725 315.316 33.5149 315.917 28.3047 315.817H27.6033C26.5012 315.817 25.6996 314.915 25.6996 313.913C25.6996 313.112 26.2006 312.41 26.9019 312.11C35.8194 308.703 44.336 304.495 52.6523 299.786C56.8605 297.481 60.8683 294.976 64.9763 292.371C68.9842 289.866 72.992 287.161 76.9998 284.456C80.9075 281.751 84.9153 279.045 88.7227 276.24C92.6304 273.434 96.4378 270.529 100.245 267.623C107.86 261.812 115.375 255.8 122.789 249.688C130.204 243.576 137.418 237.264 144.632 230.851C151.846 224.539 158.96 218.026 165.974 211.513C172.987 205.001 180.001 198.287 186.814 191.574C190.221 188.168 193.628 184.861 197.034 181.455C199.539 178.95 202.044 176.445 204.449 173.84L196.333 165.423L185.612 154.402C178.398 147.087 171.184 139.773 163.87 132.459C156.555 125.245 149.241 118.031 141.826 110.817L130.905 100.196L119.783 89.575C112.369 82.4611 104.854 75.4474 97.2394 68.5339C93.4319 65.0271 89.6245 61.6204 85.8171 58.2137C82.0096 54.8071 78.102 51.4004 74.2946 47.9938C70.4871 44.5871 66.5795 41.2807 62.6718 37.874C58.7642 34.5675 54.8565 31.2611 50.8487 27.9546C48.8448 26.3515 46.8409 24.7484 44.837 23.1452C42.8331 21.5421 40.8291 19.939 38.8252 18.3358C36.8213 16.7327 34.8174 15.2298 32.7133 13.6266L26.5012 9.01762C25.5994 8.41645 25.4992 7.2141 26.1004 6.31233C26.6014 5.71116 27.4029 5.41057 28.1043 5.61096L28.8056 5.81136L32.8135 6.91351L36.7211 8.11586C39.3262 8.91742 41.9313 9.81919 44.5364 10.7209C47.1415 11.6227 49.6464 12.6247 52.1513 13.6266C54.6562 14.6286 57.1611 15.7307 59.666 16.7327C64.6758 18.8368 69.4851 21.2415 74.3947 23.546L81.5086 27.2533C83.9133 28.4556 86.318 29.658 88.6225 31.0607C93.3317 33.6658 97.9407 36.2709 102.55 39.0764C107.059 41.8818 111.567 44.6873 116.076 47.4928C120.485 50.3985 124.893 53.3042 129.302 56.31C133.711 59.3159 137.919 62.422 142.227 65.528C146.435 68.6341 150.644 71.8404 154.852 75.0466C159.06 78.2529 163.068 81.5594 167.176 84.8658C169.18 86.469 171.184 88.1723 173.188 89.8756C175.192 91.5789 177.196 93.1821 179.2 94.9856C183.107 98.3923 187.115 101.799 191.023 105.306L196.834 110.616L202.545 115.927C206.353 119.534 210.16 123.141 213.867 126.748C217.675 130.355 221.282 134.162 224.989 137.869C226.793 139.773 228.596 141.677 230.4 143.581L235.91 149.392L236.011 149.492C240.419 154.101 243.225 159.612 244.627 165.423C243.325 153.6 238.315 142.078 229.698 132.659L229.097 131.958L223.486 125.846C221.683 123.842 219.879 121.838 217.975 120.035L212.364 114.323L209.559 111.518L206.653 108.712C202.846 105.005 199.038 101.298 195.03 97.6909L189.119 92.2803L183.107 87.0701C179.099 83.5633 174.891 80.2568 170.783 76.8502C168.779 75.1468 166.575 73.5437 164.471 71.8404C162.367 70.2372 160.263 68.5339 158.058 66.9308C153.75 63.7245 149.441 60.5183 144.933 57.5124C140.524 54.4063 136.015 51.5006 131.406 48.4948C129.102 46.9918 126.797 45.5891 124.493 44.1863L117.479 39.9781C112.77 37.1726 107.96 34.5675 103.051 31.9625L95.6362 28.155C93.1314 26.9527 90.6265 25.7503 88.1216 24.548C83.0116 22.1433 78.0018 19.939 72.6914 17.7347C67.4812 15.5303 62.1709 13.6266 56.7603 11.6227C54.055 10.7209 51.3497 9.81919 48.5442 8.91742C45.8389 8.01566 43.0335 7.2141 40.228 6.51273C37.4225 5.71116 34.617 5.00979 31.7114 4.30842C28.8057 3.70724 26.0002 3.00587 22.9943 2.4047C21.4914 2.10411 19.9884 1.90372 18.5857 1.60313C17.0828 1.40274 15.68 1.10215 14.1771 0.901764L9.66828 0.400785C8.16534 0.300589 6.6624 0.100194 5.05927 0.100194L3.15555 0C2.25379 0 1.25182 0.400781 0.650645 1.10215C-0.351313 2.4047 -0.150906 4.30842 1.15164 5.31038L7.26356 10.1198C9.26747 11.7229 11.2714 13.326 13.2753 15.0294C15.2792 16.6325 17.2831 18.3358 19.2871 19.939C21.291 21.5421 23.2949 23.2454 25.1986 24.9487C29.1063 28.2552 33.0139 31.6619 36.9215 35.0685L48.444 45.3887C52.3517 48.7953 56.1591 52.3022 59.9665 55.809C63.774 59.3159 67.5814 62.8227 71.2887 66.3296C78.8034 73.4435 86.318 80.5574 93.6323 87.7715L115.776 109.514C123.09 116.828 130.404 124.143 137.718 131.457C144.933 138.871 152.147 146.286 159.361 153.7L176.494 171.736C174.591 173.739 172.687 175.743 170.783 177.747C167.376 181.254 164.07 184.661 160.663 188.067C153.85 194.881 146.936 201.594 139.923 208.307C132.909 214.92 125.795 221.533 118.681 227.945L107.86 237.564C104.253 240.77 100.646 243.977 96.9388 247.083C89.6245 253.395 82.21 259.507 74.5951 265.419C70.7877 268.424 66.9803 271.33 63.1728 274.136C59.3654 277.041 55.4577 279.747 51.5501 282.552C47.6425 285.358 43.6346 288.063 39.6268 290.668C35.619 293.273 31.5109 295.878 27.4029 298.183C23.2949 300.587 19.0867 302.892 14.8784 304.996C10.6702 307.2 6.36181 309.204 1.95319 310.907C1.05143 311.308 0.350067 312.11 0.0494796 313.112C-0.251108 314.815 0.85104 316.418 2.45417 316.719L4.15751 317.019C9.86867 318.122 15.5798 318.422 21.291 318.522C22.6937 318.522 24.0965 318.522 25.4992 318.422C26.9019 318.422 28.3047 318.322 29.7074 318.222C32.5129 318.122 35.3184 317.821 38.1239 317.52C43.7348 316.919 49.1454 315.917 54.556 314.815C59.9665 313.713 65.2769 312.41 70.5873 310.807C75.7975 309.304 81.0077 307.601 86.1176 305.798C88.6225 304.896 91.2276 303.994 93.7325 302.992C96.2374 301.99 98.7423 300.988 101.147 299.986C103.652 298.984 106.057 297.882 108.461 296.78L112.068 295.177L115.675 293.473C118.08 292.271 120.485 291.169 122.789 289.967L129.803 286.36C132.108 285.157 134.412 283.855 136.717 282.552C139.021 281.25 141.326 280.047 143.53 278.644C147.938 275.939 152.447 273.334 156.756 270.428C158.96 269.026 161.064 267.623 163.268 266.22L169.581 261.812C173.789 258.906 177.897 255.8 182.005 252.694C186.113 249.588 190.021 246.381 194.029 243.175C197.936 239.969 201.844 236.562 205.751 233.256C209.559 229.849 213.366 226.442 217.174 222.936L222.785 217.525L227.694 212.615L228.496 211.714C235.309 204.5 240.018 195.983 242.423 186.965C241.421 191.474 239.016 195.181 235.91 198.488Z" transform="translate(255.373)"/>
<path d="M371.549 47.1922C362.03 48.3946 351.61 49.3965 340.689 50.0979C329.767 50.7993 318.245 51.3002 306.322 50.9997C300.41 50.7993 294.298 50.4987 288.186 50.0979C282.074 49.5969 275.862 48.9957 269.65 48.3946C263.438 47.7934 257.125 47.092 250.813 46.591C244.501 45.9899 238.188 45.4889 231.776 45.0881C219.051 44.2865 206.326 43.485 193.902 42.5832C181.377 41.7816 169.053 40.7797 157.23 39.8779C145.307 38.876 133.784 37.9742 122.863 36.9723C111.942 35.9703 101.622 35.0685 92.1035 34.267C82.5849 33.4654 73.8678 32.5636 66.1528 31.8623C58.4377 31.1609 51.6244 30.4595 46.1136 29.8583C34.8917 28.7562 28.5793 28.0548 28.5793 28.0548C27.4772 27.9546 26.6756 26.9527 26.7758 25.8505C26.876 24.8486 27.6776 24.1472 28.5793 24.047C28.5793 24.047 34.9919 23.546 46.1136 22.7445C51.7246 22.3437 58.4377 21.8427 66.1528 21.3417C73.8678 20.8407 82.6851 20.2396 92.2037 19.7386C101.722 19.2376 112.042 18.6364 123.063 17.9351C133.985 17.3339 145.507 16.7327 157.431 16.1315C169.354 15.5304 181.678 14.9292 194.202 14.4282C206.727 13.9272 219.452 13.5264 232.177 13.0255C238.489 12.7249 244.902 12.5245 251.214 12.1237C257.526 11.7229 263.839 11.3221 270.151 10.8211C276.463 10.4204 282.675 9.91939 288.787 9.719C294.899 9.41842 301.011 9.31821 306.923 9.31821C318.846 9.41841 330.369 10.1198 341.29 11.2219C352.211 12.2239 362.531 13.6266 372.05 15.0294C373.252 15.2298 374.455 15.4302 375.557 15.6305C374.354 15.2298 373.252 14.9292 372.05 14.5284C364.335 12.2239 355.618 9.91938 346.099 7.81527C341.39 6.81332 336.38 5.81136 331.27 4.9096C326.16 4.00784 320.85 3.20626 315.339 2.50489C304.418 1.00196 292.895 0 280.972 0C275.06 0 268.949 0.3006 262.837 0.701383C256.725 1.20236 250.512 1.80352 244.2 2.50489C231.676 3.90764 218.951 5.21019 206.226 5.91156C193.501 6.71313 180.776 7.3143 168.252 8.21607C155.727 9.01763 143.403 10.0196 131.48 10.9213C119.557 11.9233 108.034 12.8251 97.1133 13.827C91.6025 14.328 86.2921 14.7288 81.1821 15.2298C76.0721 15.7307 71.0623 16.1315 66.253 16.6325C56.7344 17.5343 47.9171 18.436 40.2021 19.1374C32.487 19.939 25.6737 20.6403 20.0627 21.2415C14.4517 21.8427 10.1433 22.3437 7.1374 22.6443C4.13152 23.045 2.52839 23.1452 2.52839 23.1452C1.22585 23.3456 0.223892 24.2474 0.0235005 25.6501C-0.176891 27.2533 0.925263 28.7562 2.52839 28.9566C2.52839 28.9566 4.13152 29.157 7.1374 29.658C10.1433 30.0587 14.4517 30.6599 20.0627 31.4615C25.5735 32.263 32.3868 33.1648 40.1019 34.1668C47.8169 35.1687 56.534 36.2709 66.0526 37.4732C70.862 38.0744 75.7714 38.6756 80.8814 39.2768C85.9914 39.8779 91.3019 40.4791 96.8127 41.1805C107.734 42.483 119.256 43.6854 131.079 45.0881C143.002 46.2904 155.327 47.6932 167.751 48.7954C180.275 49.9977 192.9 51.0999 205.625 52.202C218.35 53.3042 230.974 55.0075 243.499 56.811C249.711 57.7128 255.923 58.5143 262.035 59.1155C268.147 59.7167 274.259 60.2177 280.17 60.3179C292.094 60.7187 303.616 59.9171 314.538 58.8149C320.048 58.2138 325.359 57.6126 330.469 56.811C335.579 56.0095 340.588 55.2079 345.398 54.3061C354.916 52.5026 363.734 50.4987 371.549 48.3946C374.555 47.593 377.36 46.7914 380.066 45.9899C377.26 46.4908 374.455 46.8916 371.549 47.1922Z" transform="translate(0 140.675)"/>
</svg>
