<?xml version="1.0" encoding="utf-8"?>
<!-- Generator: Adobe Illustrator 16.0.0, SVG Export Plug-In . SVG Version: 6.00 Build 0)  -->
<!DOCTYPE svg PUBLIC "-//W3C//DTD SVG 1.1//EN" "http://www.w3.org/Graphics/SVG/1.1/DTD/svg11.dtd">
<svg version="1.1" id="Слой_1" xmlns="http://www.w3.org/2000/svg" xmlns:xlink="http://www.w3.org/1999/xlink" x="0px" y="0px"
	 width="75px" height="75px" viewBox="442.5 242.5 75 75" enable-background="new 442.5 242.5 75 75" xml:space="preserve">
<path d="M480.001,317.636c-20.678,0-37.5-16.885-37.5-37.637c0-20.752,16.822-37.636,37.5-37.636
	c20.677,0,37.5,16.883,37.5,37.636C517.5,300.752,500.678,317.636,480.001,317.636z M480.001,244.364
	c-19.575,0-35.501,15.986-35.501,35.636c0,19.651,15.926,35.637,35.501,35.637c19.574,0,35.5-15.986,35.5-35.637
	C515.5,260.35,499.574,244.364,480.001,244.364z M471.503,295.5l23.243-13.875l-23.243-14.454V295.5z"/>
</svg>
